#N canvas 683 147 528 358 10;
#X obj 35 32 inlet;
#X obj 191 32 inlet;
#X obj 191 234 symbol \$1;
#X obj 191 209 t b a;
#X obj 191 72 t a a;
#X obj 191 280 outlet toRecorderInlet4;
#X obj 35 280 outlet toSaveSf1;
#X obj 35 172 join_path;
#X obj 191 256 join_path;
#X obj 132 316 print path;
#X connect 0 0 7 0;
#X connect 1 0 4 0;
#X connect 2 0 8 0;
#X connect 3 0 2 0;
#X connect 3 1 8 1;
#X connect 4 0 3 0;
#X connect 4 1 7 1;
#X connect 7 0 6 0;
#X connect 7 0 9 0;
#X connect 8 0 5 0;
#X connect 8 0 9 0;
