#N canvas 415 -916 1044 310 10;
#X text 713 29 Initial Arguments:;
#X text 664 47 1.arg: <int> max. number of grains playing at the same
time;
#X obj 515 26 namecanvas \$0-gran-synth-vc;
#N canvas 178 100 814 660 \$0-CREATOR-PATCH 0;
#X obj 529 109 bng 15 250 50 0 empty empty empty 17 7 0 10 -262144
-1 -1;
#X obj 489 274 s pd-\$0-GRAIN-ENSEMLE;
#X obj 196 273 s pd-\$0-GRAIN-ENSEMLE;
#X obj 348 273 s pd-\$0-GRAIN-ENSEMLE;
#X obj 189 513 s \$0-gran-synth-vc;
#X msg 540 313 editmode 1;
#X msg 82 477 editmode 0;
#X obj 57 512 s \$0-gran-synth-vc;
#X msg 37 478 vis 0;
#X msg 571 338 vis 1;
#X obj 61 386 t b b b b b b;
#X msg 319 469 editmode 0;
#X msg 295 446 vis 0;
#X msg 182 467 editmode 1;
#X msg 196 489 vis 1;
#X obj 49 455 t b b;
#X obj 573 367 s pd-\$0-GRAIN-ENSEMLE;
#N canvas 799 149 481 461 CREATE_INLET_ROUTE 0;
#X obj 96 44 inlet;
#X obj 119 204 t f f b;
#X obj 119 256 until;
#X msg 119 323 obj 30 40 route 0 1 2 3 4 5 6 7 8 9 10 11 12 13 14 15
;
#X msg 119 301 add2 \$1;
#X msg 137 153 set obj 30 40 route;
#X msg 150 133 obj 30 20 inlet;
#X msg 165 113 clear;
#X obj 119 229 + 1;
#X obj 149 387 outlet;
#X obj 289 390 outlet;
#X obj 288 278 f;
#X obj 95 71 t b f b b b f;
#X msg 189 40 16;
#X obj 298 218 del 0;
#X obj 119 277 counter 10;
#X connect 0 0 12 0;
#X connect 1 0 8 0;
#X connect 1 1 15 1;
#X connect 1 2 15 2;
#X connect 2 0 15 0;
#X connect 3 0 9 0;
#X connect 4 0 3 0;
#X connect 5 0 3 0;
#X connect 6 0 9 0;
#X connect 7 0 9 0;
#X connect 8 0 2 0;
#X connect 11 0 10 0;
#X connect 12 0 3 0;
#X connect 12 1 1 0;
#X connect 12 2 5 0;
#X connect 12 3 6 0;
#X connect 12 4 7 0;
#X connect 12 5 11 1;
#X connect 13 0 12 0;
#X connect 14 0 11 0;
#X connect 15 0 4 0;
#X connect 15 1 14 0;
#X restore 489 230 pd CREATE_INLET_ROUTE;
#X obj 509 144 f \$1;
#N canvas 846 184 434 460 CREATE_GRAIN 0;
#X obj 146 59 inlet;
#X obj 64 419 outlet;
#X obj 309 418 outlet;
#X obj 307 279 f;
#X obj 111 247 * 20;
#X obj 77 247 * 10;
#X obj 77 270 + 30;
#X obj 146 172 until;
#X obj 111 270 + 80;
#X obj 146 150 + 1;
#X obj 159 271 symbol \$0-out;
#X msg 225 71 16;
#X obj 263 251 del 0;
#X obj 107 221 t f f b b;
#X obj 86 319 pack f f s s;
#X obj 149 107 t b f f b f;
#X obj 147 248 symbol \$0-sound;
#X msg 86 340 obj \$1 \$2 grain~ \$3 \$4 4;
#X obj 119 194 counter 10;
#X connect 0 0 15 0;
#X connect 3 0 2 0;
#X connect 4 0 8 0;
#X connect 5 0 6 0;
#X connect 6 0 14 0;
#X connect 7 0 18 0;
#X connect 8 0 14 1;
#X connect 9 0 7 0;
#X connect 10 0 14 3;
#X connect 11 0 15 0;
#X connect 12 0 3 0;
#X connect 13 0 5 0;
#X connect 13 1 4 0;
#X connect 13 2 16 0;
#X connect 13 3 10 0;
#X connect 14 0 17 0;
#X connect 15 1 9 0;
#X connect 15 2 18 1;
#X connect 15 3 18 2;
#X connect 15 4 3 1;
#X connect 16 0 14 2;
#X connect 17 0 1 0;
#X connect 18 0 13 0;
#X connect 18 1 12 0;
#X restore 348 232 pd CREATE_GRAIN;
#X obj 311 501 s pd-\$0-GRAIN-ENSEMLE;
#N canvas 870 200 410 520 CONNECT_ROUTE_GRAIN 0;
#X obj 79 59 inlet;
#X obj 78 378 outlet;
#X obj 214 378 outlet;
#X obj 213 347 f;
#X msg 79 252 connect 1 \$1 \$2 0;
#X obj 79 109 t f f b;
#X obj 79 161 until;
#X obj 79 205 t f f;
#X obj 79 229 pack 0 0;
#X obj 79 136 + 1;
#X obj 122 206 + 2;
#X obj 79 85 t f b f;
#X msg 101 280 connect 0 0 1 0;
#X msg 196 51 16;
#X obj 214 211 del 0;
#X obj 226 272 del 0;
#X msg 113 340 loadbang;
#X obj 79 182 counter 10;
#X connect 0 0 11 0;
#X connect 3 0 2 0;
#X connect 4 0 1 0;
#X connect 5 0 9 0;
#X connect 5 1 17 1;
#X connect 5 2 17 2;
#X connect 6 0 17 0;
#X connect 7 0 8 0;
#X connect 7 1 10 0;
#X connect 8 0 4 0;
#X connect 9 0 6 0;
#X connect 10 0 8 1;
#X connect 11 0 5 0;
#X connect 11 1 12 0;
#X connect 11 2 3 1;
#X connect 12 0 1 0;
#X connect 13 0 11 0;
#X connect 14 0 15 0;
#X connect 14 0 16 0;
#X connect 15 0 3 0;
#X connect 16 0 1 0;
#X connect 17 0 7 0;
#X connect 17 1 14 0;
#X restore 196 232 pd CONNECT_ROUTE_GRAIN;
#X msg 621 340 clear;
#X obj 457 130 bng 15 250 50 0 empty empty empty 17 7 0 10 -262144
-1 -1;
#X obj 344 123 bng 15 250 50 0 empty empty empty 17 7 0 10 -262144
-1 -1;
#X obj 201 144 bng 15 250 50 0 empty empty empty 17 7 0 10 -262144
-1 -1;
#X obj 59 353 bng 15 250 50 0 empty empty empty 17 7 0 10 -262144 -1
-1;
#X obj 456 155 f \$1;
#X obj 351 164 f \$1;
#X obj 200 180 f \$1;
#X msg 161 443 connect 8 0 9 0;
#X obj 509 55 inlet;
#X text 509 34 init;
#X obj 133 578 outlet;
#X obj 132 554 del 0;
#X obj 509 171 t f b b b;
#X obj 698 57 inlet;
#X text 698 36 fini;
#X obj 661 572 outlet;
#X obj 660 548 del 0;
#X obj 760 59 inlet;
#X obj 690 124 route maxNrGrains;
#X obj 762 572 outlet;
#X obj 740 100 t a a;
#X obj 577 113 safety;
#X connect 0 0 18 0;
#X connect 5 0 16 0;
#X connect 6 0 7 0;
#X connect 8 0 7 0;
#X connect 9 0 16 0;
#X connect 10 0 15 0;
#X connect 10 0 34 0;
#X connect 10 1 30 0;
#X connect 10 2 13 0;
#X connect 10 3 14 0;
#X connect 10 4 12 0;
#X connect 10 5 11 0;
#X connect 11 0 20 0;
#X connect 12 0 20 0;
#X connect 13 0 4 0;
#X connect 14 0 4 0;
#X connect 15 0 8 0;
#X connect 15 1 6 0;
#X connect 17 0 1 0;
#X connect 17 1 19 0;
#X connect 18 0 35 0;
#X connect 19 0 3 0;
#X connect 19 1 21 0;
#X connect 21 0 2 0;
#X connect 21 1 10 0;
#X connect 22 0 16 0;
#X connect 23 0 27 0;
#X connect 24 0 28 0;
#X connect 25 0 29 0;
#X connect 26 0 10 0;
#X connect 27 0 17 0;
#X connect 28 0 19 0;
#X connect 29 0 21 0;
#X connect 30 0 4 0;
#X connect 31 0 18 0;
#X connect 34 0 33 0;
#X connect 35 0 17 0;
#X connect 35 1 5 0;
#X connect 35 2 9 0;
#X connect 35 3 22 0;
#X connect 36 0 39 0;
#X connect 39 0 38 0;
#X connect 40 0 43 0;
#X connect 41 0 44 0;
#X connect 43 0 42 0;
#X connect 43 1 41 0;
#X connect 44 0 18 1;
#X restore 112 67 pd \$0-CREATOR-PATCH;
#X obj 30 41 inlet~;
#X obj 295 41 inlet;
#X obj 135 39 inlet;
#X obj 420 39 inlet;
#N canvas -1775 -898 1680 1005 GRAIN-RATE-PARAMETER-TRANSFORM____________
1;
#X obj 11 43 inlet~;
#X obj 108 793 outlet;
#X obj 37 394 tgl 15 0 empty empty empty 17 7 0 10 -262144 -1 -1 1
1;
#X obj 37 465 f;
#X obj 37 494 + 1;
#X obj 37 438 t b b b;
#X obj 544 43 inlet;
#X obj 311 41 inlet;
#X text 311 23 init-bang;
#X text 544 29 parameters;
#X obj 424 43 inlet;
#X text 424 28 fini-bang;
#X obj 1373 476 t a;
#X obj 75 478 mod \$1;
#X obj 541 710 outlet;
#X text 858 391 minimum number of grains you can at the same time.
;
#X text 848 379 unit [-] \, initial-value: 5 \, range: (0 ... MAX_OL)
;
#X text 859 443 maximum number of grains you can at the same time.
;
#X text 848 51 unit [-] \, initial-value: 16 \, range: (1 ... 40);
#X text 849 431 unit [-] \, initial-value: 8 \, range: (0 ... MAX_OL)
;
#X text 858 63 maximum number of grain generators (MAX_OL).;
#X text 849 608 unit [-] \, initial-value: 0 \, range: (0 ... 999999)
;
#X text 859 620 number of quants between minimum and maximum value
of cloud;
#X text 859 632 position in sample. Zero means +infinite = no quantization.
;
#X text 849 670 unit [cents] \, initial-value: 0 \, range: (-2400 ...
+2400);
#X text 850 719 unit [cents] \, initial-value: 0 \, range: (-2400 ...
+2400);
#X text 860 731 maximum value of pitch transposing of the sample grain.
;
#X text 859 682 minimum value of pitch transposing of the sample grain.
;
#X text 850 764 unit [sec] \, initial-value: 0.03 \, range: (0.001
... 100);
#X text 860 776 minimum size of sample grain.;
#X text 1320 570 maximum size of sample grain.;
#X text 1320 619 relative attack time related to grain size. the shape
is;
#X text 1321 631 allways the left half of a hanning window.;
#X text 1317 675 relative release time related to grain size. the shape
is;
#X text 1318 687 allways the right half of a hanning window.;
#X text 1310 558 unit [sec] \, initial-value: 0.05 \, range: (0.001
... 100);
#X text 1310 607 unit [%] \, initial-value: 15 \, range: (0 ... 50)
;
#X text 1307 663 unit [%] \, initial-value: 15 \, range: (0 ... 50)
;
#X text 1317 737 minimum value of spatial position of a grain.;
#X text 1318 800 maximum value of spatial position of a grain.;
#N canvas 383 170 548 484 pos 0;
#X obj 77 88 inlet;
#X obj 76 364 outlet;
#X obj 188 91 inlet;
#X obj 190 361 outlet;
#X text 74 66 rel pos;
#X text 188 71 pos deviation;
#X connect 0 0 1 0;
#X connect 2 0 3 0;
#X restore 133 587 pd pos;
#N canvas 225 257 326 347 pitch 0;
#X obj 43 52 inlet;
#X obj 43 185 outlet;
#X obj 193 55 inlet;
#X obj 150 191 outlet;
#X obj 41 94 minmax2meandev;
#X connect 0 0 4 0;
#X connect 2 0 4 1;
#X connect 4 0 1 0;
#X connect 4 1 3 0;
#X restore 478 429 pd pitch;
#N canvas 383 170 326 347 g.size 0;
#X obj 42 52 inlet;
#X obj 43 185 outlet;
#X obj 193 55 inlet;
#X obj 150 191 outlet;
#X obj 41 94 minmax2meandev;
#X connect 0 0 4 0;
#X connect 2 0 4 1;
#X connect 4 0 1 0;
#X connect 4 1 3 0;
#X restore 375 422 pd g.size;
#N canvas 418 326 326 347 spat 0;
#X obj 42 52 inlet;
#X obj 43 295 outlet;
#X obj 193 55 inlet;
#X obj 119 294 outlet;
#X obj 42 91 + 1000;
#X obj 191 95 + 1000;
#X obj 43 188 - 1000;
#X obj 43 143 minmax2meandev;
#X connect 0 0 4 0;
#X connect 2 0 5 0;
#X connect 4 0 7 0;
#X connect 5 0 7 1;
#X connect 6 0 1 0;
#X connect 7 0 6 0;
#X connect 7 1 3 0;
#X restore 510 503 pd spat;
#N canvas 383 170 556 381 dense 0;
#X obj 42 52 inlet;
#X obj 282 270 outlet;
#X obj 178 52 inlet;
#X obj 49 267 outlet;
#X obj 282 238 min;
#X obj 42 91 t f f;
#X obj 130 271 outlet;
#X obj 178 92 t f b f;
#X obj 43 143 minmax2meandev;
#X connect 0 0 5 0;
#X connect 2 0 7 0;
#X connect 4 0 1 0;
#X connect 5 0 8 0;
#X connect 5 1 4 0;
#X connect 7 0 8 1;
#X connect 7 1 4 0;
#X connect 7 2 4 1;
#X connect 8 0 3 0;
#X connect 8 1 6 0;
#X restore 355 357 pd dense;
#X obj 103 164 expr 1000 * $f1 / $f2;
#X obj 103 101 t f b;
#X text 111 181 minimum metro time;
#X obj 88 345 max;
#X obj 226 132 f \$1;
#X obj 37 413 metro 300;
#X msg 37 174 1;
#X text 533 734 rejected para;
#X text 1308 788 unit [-] \, initial-value: 0.7 \, range: (0 ... 2)
;
#X text 1307 725 unit [-] \, initial-value: 0.3 \, range: (0 ... 2)
;
#X text 1317 749 0 .. left \, 1 .. right \, 2 = 0;
#X obj 88 318 expr 1000 * $f1 / $f2;
#X obj 88 267 t b f;
#X obj 88 293 f;
#N canvas 0 22 465 477 init 0;
#X obj 55 36 inlet;
#X obj 54 244 outlet;
#X obj 55 61 t b;
#X obj 54 155 until;
#X obj 54 133 + 1;
#X obj 54 111 t f f b f;
#X obj 54 89 f \$1;
#X msg 54 210 \$1 init bang;
#X obj 54 179 counter 10;
#X connect 0 0 2 0;
#X connect 2 0 6 0;
#X connect 3 0 8 0;
#X connect 4 0 3 0;
#X connect 5 0 4 0;
#X connect 5 1 8 1;
#X connect 5 2 8 2;
#X connect 6 0 5 0;
#X connect 7 0 1 0;
#X connect 8 0 7 0;
#X restore 552 550 pd init;
#X obj 88 373 min 10000;
#X obj 311 69 t b b b;
#X text 849 112 the soundfile storage for editing like loading \, resizing
\, recording.;
#X text 849 342 the soundfile storage for playing back.;
#X text 849 213 unit [sec] \, initial-value: 10 \, range: (0.1..90)
\, resizes;
#X text 849 159 initial-value: - \, range: - \, loads the soundfile
;
#X text 849 172 content from harddisk into the previously selected
pd array.;
#X text 849 226 the previously selected pd array (soundfile storage).
;
#X text 849 278 from signal input to the previously selected pd array
(soundfile storage).;
#X text 767 836 MAX_OL = maximum overlap;
#X text 849 99 unit [-] \, initial-value: 1 \, range: (1..5) \, selects
;
#X text 849 329 unit [-] \, initial-value: 1 \, range: (1..5) \, selects
;
#X text 159 695 -2.) rel.cluster.position in sample [0...1];
#X text 176 707 -3.) cluster.position.deviation [sec];
#X text 192 721 -4.) cluster.position.quantization [-];
#X text 209 733 -5.) grain.size [sec];
#X text 226 745 -6.) grain.size.deviation [sec];
#X text 10 23 sig.in;
#X msg 1373 32 maxNrGrains \$1;
#X msg 1373 53 selEditSoundIndex \$1;
#X msg 1373 76 loadSound \$1;
#X msg 1373 99 resizeSound \$1;
#X msg 1373 121 recSound \$1;
#X msg 1373 144 selPlaybackSoundIndex \$1;
#X msg 1373 167 minCloudDensity \$1;
#X msg 1373 189 maxCloudDensity \$1;
#X msg 1373 354 maxGrainSize \$1;
#X msg 1373 329 minGrainSize \$1;
#X msg 1373 449 maxSpatialPosition \$1;
#X msg 1373 426 minSpatialPosition \$1;
#X msg 1373 377 attackTime \$1;
#X msg 1373 401 releaseTime \$1;
#X text 818 36 7.) parameter: "maxNrGrains" \, type: <float>;
#X text 819 84 8.) parameter: "selEditSoundIndex" \, type: <float>
;
#X text 819 144 9.) parameter: "loadSound" \, type: <symbol> \, unit
[-];
#X text 819 314 12.) parameter: "selPlaybackSoundIndex" \, type: <float>
;
#X text 818 364 13.) parameter: "minCloudDensity" \, type: <float>
;
#X text 819 416 14.) parameter: "maxCloudDensity" \, type: <float>
;
#X text 1280 543 21.) parameter: "maxGrainSize" \, type: <float>;
#X text 1280 592 22.) parameter: "attackTime" \, type: <float>;
#X text 1277 648 23.) parameter: "releaseTime" \, type: <float>;
#X text 1277 711 24.) parameter: "minSpatialPosition" \, type: <float>
;
#X text 1278 773 25.) parameter: "maxSpatialPosition" \, type: <float>
;
#X text 820 749 20.) parameter: "minGrainSize" \, type: <float>;
#X obj 118 651 pack 0 0 0 0 0 0 0 0 0 0 0 0 1;
#X text 243 757 -7.) percental.attack.time of grain.time [%];
#X text 260 769 -8.) percental.release.time of grain.time [%];
#X text 277 781 -9.) pitch.transposition [cents];
#X text 294 793 -10.) pitch.deviation [cents];
#X text 311 807 -11.) rel.spatial.cloud.position [0...1];
#X text 328 819 -12.) spatial.deviation [-];
#X text 344 833 -13.) playback table index [1...5];
#X text 148 682 -1.) voice allocator index [0...15];
#X text 819 655 18.) parameter: "minPitchTransposition" \, type: <float>
;
#X text 820 704 19.) parameter: "maxPitchTransposition" \, type: <float>
;
#X msg 1373 305 maxPitchTransposition \$1;
#X msg 1373 282 minPitchTransposition \$1;
#X text 850 547 unit [sec] \, initial-value: 0.2 \, range: (0 ... 10)
;
#X text 860 559 maximum of positive or negative deviation value of
;
#X text 860 571 cloud position in playback sample.;
#X text 850 483 unit [-] \, initial-value: 0.1 \, range: (0 ... 1)
;
#X text 860 495 relative mean value of cloud position in playback sample.
;
#X text 860 507 (0 .. begin of sample \, 1 .. end of sample).;
#X msg 1373 213 relMeanCloudPosition \$1;
#X obj 511 475 / 2;
#X obj 549 475 / 2;
#X text 819 250 11.) parameter: "recSound" \, type: <int>;
#X text 849 265 unit [-] \, initial-value: 0 \, range: 0/1 \, records
sound;
#X obj 743 710 outlet;
#X text 735 734 outgoing para;
#X text 819 198 10.) parameter: "recLength" \, type: <float>;
#X obj 1608 825 outlet;
#N canvas 0 23 666 639 resizeTable 0;
#X obj 34 196 soundfiler;
#X obj 34 151 pack s \$0;
#X obj 34 104 t a a;
#X obj 174 154 iemlib/soundfile_info;
#X obj 174 182 unpack f s f f f f s;
#X msg 174 132 read \$1;
#X obj 34 81 symbol;
#X obj 34 35 inlet;
#X obj 34 56 t b a;
#X msg 34 174 read \$1 \$2-sound-1;
#X obj 476 36 table \$0-sound-1 441000;
#X obj 476 58 table \$0-sound-2 441000;
#X obj 476 80 table \$0-sound-3 441000;
#X obj 476 102 table \$0-sound-4 441000;
#X obj 476 124 table \$0-sound-5 441000;
#X obj 357 48 inlet;
#X text 340 31 select table;
#X obj 258 255 symbol \$0-sound-1;
#X obj 213 209 t f b;
#X obj 213 282 pack f s;
#X msg 213 305 \; \$2 resize \$1;
#X obj 32 554 outlet;
#X obj 34 356 t b;
#X obj 33 450 until;
#X obj 33 428 + 1;
#X obj 33 406 t f f b f;
#X obj 33 384 f \$1;
#X msg 34 500 \$1 bang;
#X obj 254 558 outlet;
#X obj 251 467 pack;
#X obj 251 415 expr 1/($f1/44100);
#X obj 34 297 t b f f;
#X obj 33 474 counter 10;
#X connect 0 0 31 0;
#X connect 1 0 9 0;
#X connect 2 0 1 0;
#X connect 2 1 5 0;
#X connect 3 0 4 0;
#X connect 4 2 18 0;
#X connect 5 0 3 0;
#X connect 6 0 2 0;
#X connect 7 0 8 0;
#X connect 8 0 6 0;
#X connect 8 1 6 1;
#X connect 9 0 0 0;
#X connect 15 0 17 1;
#X connect 17 0 19 1;
#X connect 18 0 19 0;
#X connect 18 1 17 0;
#X connect 19 0 20 0;
#X connect 22 0 26 0;
#X connect 23 0 32 0;
#X connect 24 0 23 0;
#X connect 25 0 24 0;
#X connect 25 1 32 1;
#X connect 25 2 32 2;
#X connect 26 0 25 0;
#X connect 27 0 21 0;
#X connect 29 0 28 0;
#X connect 30 0 29 0;
#X connect 31 0 22 0;
#X connect 31 1 30 0;
#X connect 31 2 29 1;
#X connect 32 0 27 0;
#X restore 619 672 pd resizeTable;
#X obj 287 360 t f f;
#X text 820 596 17.) parameter: "nrOfPositions" \, type: <float>;
#X text 821 532 16.) parameter: "devCloudPos" \, type: <float>;
#X text 820 468 15.) parameter: "relMeanPos" \, type: <float>;
#X msg 1373 259 nrOfPositions \$1;
#X msg 1373 236 devCloudPos \$1;
#X obj 76 221 gauss_distribute 141 8 0;
#X obj 644 620 Recorder~;
#X obj 618 520 directory internal.wav;
#X obj 345 223 route maxNrGrains selEditSoundIndex loadSound recLength
recSound selPlaybackSoundIndex minCloudDensity maxCloudDensity relMeanPos
devCloudPos nrOfPositions minPitchTransposition maxPitchTransposition
minGrainSize maxGrainSize attackTime releaseTime minSpatialPosition
maxSpatialPosition init dataDirectory;
#X msg 345 103 init bang \, maxNrGrains 16 \, minCloudDensity 1 \,
maxCloudDensity 8 \, relMeanPos 0.1 \, devCloudPos 0.2 \, nrOfPositions
0 \, minPitchTransposition 0 \, maxPitchTransposition 0 \, minGrainSize
0.03 \, maxGrainSize 0.05 \, attackTime 15 \, releaseTime 15 \, minSpatialPosition
0.3 \, maxSpatialPosition 0.7 \, dataDirectory;
#X connect 0 0 140 0;
#X connect 2 0 50 0;
#X connect 3 0 4 0;
#X connect 4 0 13 0;
#X connect 5 0 3 0;
#X connect 5 2 139 0;
#X connect 6 0 142 0;
#X connect 7 0 61 0;
#X connect 13 0 3 1;
#X connect 13 0 104 0;
#X connect 40 0 104 1;
#X connect 40 1 104 2;
#X connect 41 0 104 8;
#X connect 41 1 104 9;
#X connect 42 0 58 1;
#X connect 42 0 104 4;
#X connect 42 1 104 5;
#X connect 43 0 104 10;
#X connect 43 1 104 11;
#X connect 44 0 139 1;
#X connect 44 1 139 2;
#X connect 45 0 48 1;
#X connect 46 0 45 0;
#X connect 46 1 49 0;
#X connect 48 0 60 0;
#X connect 49 0 45 1;
#X connect 50 0 5 0;
#X connect 51 0 2 0;
#X connect 56 0 48 0;
#X connect 57 0 58 0;
#X connect 57 1 56 1;
#X connect 58 0 56 0;
#X connect 59 0 1 0;
#X connect 60 0 50 1;
#X connect 61 0 51 0;
#X connect 61 1 143 0;
#X connect 61 2 49 0;
#X connect 78 0 12 0;
#X connect 79 0 12 0;
#X connect 80 0 12 0;
#X connect 81 0 12 0;
#X connect 82 0 12 0;
#X connect 83 0 12 0;
#X connect 84 0 12 0;
#X connect 85 0 12 0;
#X connect 86 0 12 0;
#X connect 87 0 12 0;
#X connect 88 0 12 0;
#X connect 89 0 12 0;
#X connect 90 0 12 0;
#X connect 91 0 12 0;
#X connect 104 0 1 0;
#X connect 115 0 12 0;
#X connect 116 0 12 0;
#X connect 123 0 12 0;
#X connect 124 0 43 0;
#X connect 125 0 43 1;
#X connect 132 0 1 0;
#X connect 132 1 131 0;
#X connect 133 0 49 1;
#X connect 133 1 13 1;
#X connect 137 0 12 0;
#X connect 138 0 12 0;
#X connect 139 0 57 0;
#X connect 140 0 132 0;
#X connect 140 1 128 0;
#X connect 141 0 132 0;
#X connect 141 1 132 0;
#X connect 141 1 140 2;
#X connect 142 0 133 0;
#X connect 142 1 132 1;
#X connect 142 2 141 0;
#X connect 142 3 140 3;
#X connect 142 4 140 1;
#X connect 142 5 104 12;
#X connect 142 6 44 0;
#X connect 142 7 44 1;
#X connect 142 8 40 0;
#X connect 142 9 40 1;
#X connect 142 10 104 3;
#X connect 142 11 41 0;
#X connect 142 12 41 1;
#X connect 142 13 42 0;
#X connect 142 13 46 0;
#X connect 142 14 42 1;
#X connect 142 15 104 6;
#X connect 142 16 104 7;
#X connect 142 17 124 0;
#X connect 142 18 125 0;
#X connect 142 19 59 0;
#X connect 142 20 141 1;
#X connect 142 21 14 0;
#X connect 143 0 142 0;
#X restore 30 94 pd GRAIN-RATE-PARAMETER-TRANSFORM____________;
#N canvas 0 22 725 476 \$0-GRAIN-ENSEMLE 0;
#X obj 30 20 inlet;
#X obj 30 40 route 0 1 2 3 4 5 6 7 8 9 10 11 12 13 14 15;
#X obj 30 80 grain~ 1005-sound 1005-out 4;
#X obj 40 100 grain~ 1005-sound 1005-out 4;
#X obj 50 120 grain~ 1005-sound 1005-out 4;
#X obj 60 140 grain~ 1005-sound 1005-out 4;
#X obj 70 160 grain~ 1005-sound 1005-out 4;
#X obj 80 180 grain~ 1005-sound 1005-out 4;
#X obj 90 200 grain~ 1005-sound 1005-out 4;
#X obj 100 220 grain~ 1005-sound 1005-out 4;
#X obj 110 240 grain~ 1005-sound 1005-out 4;
#X obj 120 260 grain~ 1005-sound 1005-out 4;
#X obj 130 280 grain~ 1005-sound 1005-out 4;
#X obj 140 300 grain~ 1005-sound 1005-out 4;
#X obj 150 320 grain~ 1005-sound 1005-out 4;
#X obj 160 340 grain~ 1005-sound 1005-out 4;
#X obj 170 360 grain~ 1005-sound 1005-out 4;
#X obj 180 380 grain~ 1005-sound 1005-out 4;
#X connect 0 0 1 0;
#X connect 1 0 2 0;
#X connect 1 1 3 0;
#X connect 1 2 4 0;
#X connect 1 3 5 0;
#X connect 1 4 6 0;
#X connect 1 5 7 0;
#X connect 1 6 8 0;
#X connect 1 7 9 0;
#X connect 1 8 10 0;
#X connect 1 9 11 0;
#X connect 1 10 12 0;
#X connect 1 11 13 0;
#X connect 1 12 14 0;
#X connect 1 13 15 0;
#X connect 1 14 16 0;
#X connect 1 15 17 0;
#X restore 30 117 pd \$0-GRAIN-ENSEMLE;
#X obj 28 187 outlet~;
#X obj 148 187 outlet~;
#X text 129 21 init-bang;
#X text 25 21 opt.sig.in;
#X text 290 22 fini-bang;
#X text 406 21 parameter;
#X obj 268 187 outlet~;
#X obj 388 187 outlet~;
#X obj 208 25 bng 15 250 50 0 empty empty empty 17 7 0 10 -262144 -1
-1;
#X obj 28 167 catch~ \$0-out-0;
#X obj 148 167 catch~ \$0-out-1;
#X obj 268 167 catch~ \$0-out-2;
#X obj 388 167 catch~ \$0-out-3;
#X connect 3 0 8 1;
#X connect 3 1 8 2;
#X connect 3 2 8 3;
#X connect 4 0 8 0;
#X connect 5 0 3 1;
#X connect 6 0 3 0;
#X connect 7 0 3 2;
#X connect 8 0 9 0;
#X connect 18 0 3 0;
#X connect 19 0 10 0;
#X connect 20 0 11 0;
#X connect 21 0 16 0;
#X connect 22 0 17 0;
