#N canvas 0 23 679 450 10;
#X obj 166 63 inlet;
#X obj 166 84 t b f;
#X obj 333 346 f;
#X obj 333 373 outlet;
#X msg 166 128 1;
#X msg 166 170 1;
#X obj 166 191 +;
#X obj 166 266 sel 0;
#X msg 97 112 0;
#X text 58 19 this patch prevent that the data will be every 20ms at
max;
#X obj 166 149 metro 10;
#X obj 166 237 spigot;
#X msg 164 319 1;
#X obj 166 287 t b b b;
#X obj 97 133 t i i i;
#X obj 397 84 loadbang;
#X msg 397 105 1;
#X obj 166 212 expr if($f1>=3 \, 0 \, $f1);
#X connect 0 0 1 0;
#X connect 1 0 4 0;
#X connect 1 1 2 1;
#X connect 2 0 3 0;
#X connect 4 0 10 0;
#X connect 5 0 6 0;
#X connect 6 0 17 0;
#X connect 7 0 13 0;
#X connect 7 1 6 1;
#X connect 8 0 14 0;
#X connect 10 0 5 0;
#X connect 11 0 7 0;
#X connect 12 0 11 1;
#X connect 13 0 12 0;
#X connect 13 1 2 0;
#X connect 13 2 8 0;
#X connect 14 0 6 1;
#X connect 14 1 10 0;
#X connect 14 2 11 1;
#X connect 15 0 16 0;
#X connect 16 0 11 1;
#X connect 17 0 11 0;
