#N canvas 573 22 818 389 10;
#X declare -path abstraction;
#X declare -path abstraction/ml;
#X declare -path abstraction/SPAT;
#X declare -path abstraction/audio;
#X declare -path abstraction/throw;
#X declare -path abstraction/generics;
#X declare -path abstraction/extend;
#X declare -path abstraction/lower;
#X declare -path abstraction/AMDelay;
#X declare -path abstraction/lighting;
#N canvas 712 247 568 363 delcare+init 0;
#X obj 5 42 declare -path abstraction;
#X obj 254 48 loadbang;
#X obj 6 238 declare -path abstraction/ml;
#X obj 6 135 declare -path abstraction/SPAT;
#X obj 6 82 declare -path abstraction/audio;
#X obj 6 157 declare -path abstraction/throw;
#X obj 6 307 declare -path abstraction/generics;
#X obj 6 197 declare -path abstraction/extend;
#X obj 6 177 declare -path abstraction/lower;
#X obj 6 114 declare -path abstraction/AMDelay;
#X obj 6 273 declare -path abstraction/lighting;
#X msg 254 79 1;
#X obj 347 95 s \$0-loadbang;
#X obj 357 134 s initBang;
#X obj 254 101 s AMDelayOnOff;
#X connect 1 0 11 0;
#X connect 1 0 12 0;
#X connect 1 0 13 0;
#X connect 11 0 14 0;
#X restore 302 56 pd delcare+init;
#N canvas 97 126 822 584 audioIO 0;
#X obj 536 382 vsl 28 128 0 4 0 0 empty empty empty 0 -9 0 10 -258113
-1 -1 3175 1;
#X floatatom 536 512 5 0 0 3 Gain - master, f 5;
#X obj 463 224 loadbang;
#X msg 428 250 1;
#X obj 439 308 tgl 15 0 empty empty DSP -25 7 0 12 -159808 -262144
-1 0 1;
#X msg 465 271 pd \; pd dsp \$1;
#X obj 92 245 sample;
#N canvas 0 22 450 300 load 0;
#X floatatom 16 189 0 0 0 1 %_CPU - -;
#X obj 16 122 cputime;
#X obj 16 12 loadbang;
#X obj 16 66 metro 1000;
#X msg 16 40 1;
#X obj 16 94 t b b;
#X obj 16 164 * 0.1;
#X obj 16 141 int;
#X connect 1 0 7 0;
#X connect 2 0 4 0;
#X connect 3 0 5 0;
#X connect 4 0 3 0;
#X connect 5 0 1 0;
#X connect 5 1 1 1;
#X connect 6 0 0 0;
#X connect 7 0 6 0;
#X coords 0 -1 1 1 65 40 1 10 170;
#X restore 464 308 pd load;
#X obj 463 246 delay 100;
#X obj 255 277 s rec;
#X obj 214 315 tgl 15 0 empty empty rec -25 7 0 10 -262144 -1 -1 0
1;
#X obj 255 253 pack f f;
#X floatatom 201 330 5 0 0 0 name - -, f 5;
#X obj 87 317 tgl 15 0 empty empty Sample -40 7 0 10 -262144 -1 -1
0 1;
#X floatatom 113 318 5 0 0 0 - - -, f 5;
#X obj 573 317 hoa.2d.meter~ @size 225 225 @fontname "Helvetica" @fontweight
"normal" @fontslant "roman" @fontsize 11 @receive "(null)" @send "(null)"
@channels 4 @angles 0 90 180 270 @offset 45 @rotation "anti-clockwise"
@vectors "none" @interval 50 @bgcolor 0.76 0.76 0.76 1 @bdcolor 0.7
0.7 0.7 1 @coldcolor 0 0.6 0 0.8 @tepidcolor 0.6 0.73 0 0.8 @warmcolor
0.85 0.85 0 0.8 @hotcolor 1 0.6 0 0.8 @overcolor 1 0 0 0.8 @energycolor
0 0 1 0.8 @velocitycolor 1 0 0 0.8;
#X obj 15 332 hsl 128 15 0 2 0 0 empty empty empty -2 -8 0 10 -262144
-1 -1 6350 1;
#X msg 12 306 1;
#X obj 12 286 loadbang;
#X obj 252 333 s namerec;
#X obj 12 352 input~ 1;
#X obj 198 352 output~ 1;
#X obj 101 352 input~ 2;
#X obj 366 352 output~ 3;
#X obj 281 352 output~ 2;
#X obj 450 352 output~ 4;
#X connect 0 0 1 0;
#X connect 2 0 8 0;
#X connect 3 0 0 0;
#X connect 4 0 5 0;
#X connect 8 0 3 0;
#X connect 10 0 11 0;
#X connect 11 0 9 0;
#X connect 12 0 11 1;
#X connect 12 0 19 0;
#X connect 13 0 6 0;
#X connect 14 0 6 1;
#X connect 16 0 14 0;
#X connect 17 0 16 0;
#X connect 18 0 17 0;
#X coords 0 -1 1 1 800 250 1 5 300;
#X restore 8 109 pd audioIO;
#X text 9 4 MyoSpat;
#X obj 314 78 receiver;
#X obj 487 27 router~;
#N canvas 770 488 335 128 processing 1;
#X obj 11 98 throw;
#X obj 10 56 lower;
#X obj 10 35 extend;
#X obj 88 82 hsl 128 15 0 1 0 0 empty empty empty -2 -8 0 10 -262144
-1 -1 0 1;
#X text 125 96 1;
#X text 165 96 2;
#X text 208 96 4;
#X text 84 97 3;
#X floatatom 192 45 5 0 0 0 roomX - roomX, f 5;
#X floatatom 123 64 5 0 0 0 temp - temp, f 5;
#X obj 252 16 loadbang;
#X obj 85 17 r currentPosition;
#X floatatom 192 63 5 0 0 0 roomY - roomY, f 5;
#X obj 10 14 SPAT;
#X obj 11 77 AMDelay;
#X obj 252 38 t b b;
#X msg 286 61 20;
#X msg 252 61 5;
#X connect 10 0 15 0;
#X connect 11 0 3 0;
#X connect 15 0 17 0;
#X connect 15 1 16 0;
#X connect 16 0 9 0;
#X connect 17 0 8 0;
#X connect 17 0 12 0;
#X coords 0 -1 1 1 150 75 1 80 40;
#X restore 653 27 pd processing;
#X text 9 21 MyoSpat \, is a hand-gesture controlled system for sound
and lingt projections manipulation.;
#X text 318 365 balandinodidonato.com;
#X obj 373 36 ml;
#X obj 131 65 bng 15 250 50 0 resetNorm-2 empty cal.light 17 7 0 10
-262144 -1 -1;
#X obj 14 65 bng 15 250 50 0 resetNorm-3 empty cal.crumbleGate 17 7
0 10 -262144 -1 -1;
#X obj 14 84 bng 15 250 50 0 resetNorm-2 empty cal.crumble 17 7 0 10
-262144 -1 -1;
#X obj 400 26 lighting;
