#N canvas 0 22 450 300 10;
#X obj 122 49 inlet;
#X obj 122 95 t f f;
#X obj 153 124 + 1;
#X obj 122 167 outlet;
#X obj 122 71 * 2;
#X connect 0 0 4 0;
#X connect 1 0 3 0;
#X connect 1 1 2 0;
#X connect 2 0 3 0;
#X connect 4 0 1 0;
