#N canvas 325 41 1115 509 10;
#X obj 34 207 vline~;
#X obj 19 231 *~;
#X msg 34 183 \$1 \, \$2 \$3;
#X obj 34 159 pack f f f;
#X msg 34 118 1;
#X msg 63 118 0;
#X obj 34 74 route zero one duration;
#X obj 153 118 f;
#X obj 34 96 t b b b;
#X obj 94 96 t b b b;
#X msg 94 118 0;
#X msg 123 118 1;
#X msg 395 352 one;
#X msg 542 299 duration \$1;
#X obj 446 302 max;
#X obj 461 282 * 2;
#X obj 446 183 r grainDuration-\$0;
#X obj 503 205 r rampDuration-\$0;
#X obj 34 52 r ramp-\$0;
#X obj 395 137 r generteGrain-\$0;
#X obj 449 11 inlet grainDuration-\$0;
#X obj 449 96 s grainDuration-\$0;
#X obj 596 10 inlet rampDuration-\$0;
#X obj 596 102 s rampDuration-\$0;
#X obj 184 12 inlet generteGrain-\$0;
#X obj 224 463 s generteGrain-\$0;
#X floatatom 596 85 5 0 0 1 Ramp_Duration - -, f 5;
#X obj 224 343 bng 15 250 50 0 empty empty empty 17 7 0 10 -262144
-1 -1;
#X obj 422 329 delay;
#X obj 395 161 t b b;
#X msg 422 351 zero;
#X obj 442 162 bng 15 250 50 0 empty empty empty 17 7 0 10 -262144
-1 -1;
#X obj 405 406 s ramp-\$0;
#X obj 851 10 loadbang;
#X obj 851 32 s init-\$0;
#X obj 461 33 r init-\$0;
#X obj 605 32 r init-\$0;
#X obj 503 227 t b f f;
#X obj 446 228 f;
#X obj 446 205 t f f;
#X obj 250 303 >;
#X obj 265 256 t b f;
#X obj 732 10 inlet emgThr-1-\$0;
#X obj 304 256 r init-\$0;
#X obj 449 56 f \$2;
#X obj 596 62 f \$3;
#X obj 250 198 r emg-\$1;
#X obj 265 278 f \$4;
#X obj 235 175 r genGrain-\$1;
#X obj 250 325 sel 1;
#X obj 19 13 inlet~ signalGrain-\$1-\$0;
#X obj 224 432 spigot;
#X msg 322 406 1;
#X msg 292 407 0;
#X obj 285 368 loadbang;
#X obj 19 285 outlet~;
#X obj 732 102 s emg-threshold-\$0;
#X obj 265 230 r emg-threshold-\$0;
#X obj 184 35 s genGrain-\$0;
#X obj 224 142 r genGrain-\$0;
#X floatatom 449 78 5 0 0 1 Grain_Duration - -, f 5;
#X obj 339 59 f \$1;
#X obj 339 13 r init-\$0;
#X floatatom 339 81 5 0 0 1 Grain_ID - -, f 5;
#X floatatom 732 79 5 0 0 1 emg_threshold - -, f 5;
#X obj 750 33 r init-\$0;
#X obj 349 37 r init-\$0;
#X obj 732 56 f \$4;
#X floatatom 947 77 5 0 0 1 delay - -, f 5;
#X obj 965 31 r init-\$0;
#X obj 947 8 inlet delay-1-\$0;
#X obj 947 54 f \$5;
#X obj 947 100 s delay-\$0;
#N canvas 0 22 450 300 delay 0;
#X obj 134 64 inlet;
#X obj 31 61 inlet~;
#X obj 31 273 outlet~;
#X obj 134 240 *~ 0.6;
#X obj 134 215 delread~ delay-\$0;
#X obj 79 156 delwrite~ delay-\$0 1000;
#X connect 0 0 4 0;
#X connect 1 0 2 0;
#X connect 1 0 5 0;
#X connect 3 0 5 0;
#X connect 4 0 2 0;
#X connect 4 0 3 0;
#X restore 19 262 pd delay;
#X obj 64 239 r delay-\$0;
#X connect 0 0 1 1;
#X connect 1 0 73 0;
#X connect 2 0 0 0;
#X connect 3 0 2 0;
#X connect 4 0 3 0;
#X connect 5 0 3 1;
#X connect 6 0 8 0;
#X connect 6 1 9 0;
#X connect 6 2 7 1;
#X connect 7 0 3 2;
#X connect 8 0 4 0;
#X connect 8 1 5 0;
#X connect 8 2 7 0;
#X connect 9 0 10 0;
#X connect 9 1 11 0;
#X connect 10 0 3 0;
#X connect 11 0 3 1;
#X connect 12 0 32 0;
#X connect 12 0 53 0;
#X connect 13 0 32 0;
#X connect 14 0 28 1;
#X connect 15 0 14 1;
#X connect 16 0 39 0;
#X connect 17 0 37 0;
#X connect 18 0 6 0;
#X connect 19 0 29 0;
#X connect 19 0 31 0;
#X connect 20 0 44 0;
#X connect 22 0 45 0;
#X connect 24 0 58 0;
#X connect 26 0 23 0;
#X connect 27 0 51 0;
#X connect 28 0 30 0;
#X connect 29 0 12 0;
#X connect 29 1 28 0;
#X connect 30 0 32 0;
#X connect 30 0 52 0;
#X connect 33 0 34 0;
#X connect 35 0 44 0;
#X connect 36 0 45 0;
#X connect 37 0 38 0;
#X connect 37 1 15 0;
#X connect 37 2 13 0;
#X connect 38 0 14 0;
#X connect 39 0 38 0;
#X connect 39 1 38 1;
#X connect 40 0 49 0;
#X connect 41 0 47 0;
#X connect 41 1 47 1;
#X connect 42 0 67 0;
#X connect 43 0 47 0;
#X connect 44 0 60 0;
#X connect 45 0 26 0;
#X connect 46 0 40 0;
#X connect 47 0 40 1;
#X connect 48 0 27 0;
#X connect 49 0 27 0;
#X connect 50 0 1 0;
#X connect 51 0 25 0;
#X connect 52 0 51 1;
#X connect 53 0 51 1;
#X connect 54 0 52 0;
#X connect 57 0 41 0;
#X connect 59 0 27 0;
#X connect 60 0 21 0;
#X connect 61 0 63 0;
#X connect 62 0 61 0;
#X connect 64 0 56 0;
#X connect 65 0 67 0;
#X connect 66 0 61 0;
#X connect 67 0 64 0;
#X connect 68 0 72 0;
#X connect 69 0 71 0;
#X connect 70 0 71 0;
#X connect 71 0 68 0;
#X connect 73 0 55 0;
#X connect 74 0 73 1;
