#N canvas 529 438 604 269 10;
#X obj 175 103 tgl 15 0 empty empty empty 17 7 0 10 -262144 -1 -1 89
1;
#X obj 175 151 s genGrain-\$0;
#X obj 15 243 dac~ 1 2;
#X obj 175 125 metro 200;
#X obj 32 123 noise~;
#X obj 175 15 inlet onOff-\$0;
#X obj 15 17 inlet~ signal-\$0;
#X obj 226 99 f;
#X obj 199 38 inlet couldIntesity-\$0;
#X obj 199 60 t b f;
#X msg 199 80 1;
#X text 236 59 time gap between two grains in ms;
#X floatatom 344 39 5 0 0 0 - - -, f 5;
#X obj 15 221 grain 50 5 \$0;
#X connect 0 0 3 0;
#X connect 3 0 1 0;
#X connect 4 0 13 0;
#X connect 5 0 0 0;
#X connect 6 0 13 0;
#X connect 7 0 3 1;
#X connect 8 0 9 0;
#X connect 9 0 10 0;
#X connect 9 1 7 0;
#X connect 10 0 0 0;
#X connect 12 0 0 0;
#X connect 13 0 2 0;
#X connect 13 0 2 1;
