#N canvas 667 491 427 198 10;
#X obj 180 14 r throw;
#X obj 231 14 r endThrow;
#X obj 305 14 loadbang;
#X msg 231 36 1;
#X msg 180 36 0.1;
#X obj 100 121 gain~ 50;
#X obj 8 166 throw~ spat-\$1;
#X obj 8 15 receive~ crumpling-\$1;
#X obj 100 95 mavDelay \$1;
#X obj 8 121 gain~ 50;
#X msg 53 76 1 \$1;
#X obj 53 98 -;
#X connect 0 0 4 0;
#X connect 1 0 3 0;
#X connect 2 0 3 0;
#X connect 3 0 5 1;
#X connect 3 0 10 0;
#X connect 4 0 5 1;
#X connect 4 0 10 0;
#X connect 5 0 6 0;
#X connect 7 0 9 0;
#X connect 7 0 8 0;
#X connect 8 0 5 0;
#X connect 9 0 6 0;
#X connect 10 0 11 0;
#X connect 11 0 9 1;
