#N canvas 701 554 299 126 10;
#X obj 5 44 unpack f f f f f f f f, f 29;
#X obj 5 17 r emg, f 10;
#X obj 53 88 s am-3;
#X obj 151 88 s am-4;
#X obj 102 88 s am-2;
#X obj 5 88 s am-1;
#X obj 5 66 +;
#X obj 53 67 +;
#X obj 102 66 +;
#X obj 151 67 +;
#X obj 203 25 AMDelayCh 1;
#X obj 203 45 AMDelayCh 2;
#X obj 203 66 AMDelayCh 3;
#X obj 203 85 AMDelayCh 4;
#X connect 0 0 6 0;
#X connect 0 1 6 1;
#X connect 0 2 7 0;
#X connect 0 3 7 1;
#X connect 0 4 8 0;
#X connect 0 5 8 1;
#X connect 0 6 9 0;
#X connect 0 7 9 1;
#X connect 1 0 0 0;
#X connect 6 0 5 0;
#X connect 7 0 2 0;
#X connect 8 0 4 0;
#X connect 9 0 3 0;
#X coords 0 126 1 125 80 20 0;
