#N canvas 701 554 510 147 10;
#X obj 281 23 tgl 15 0 empty empty empty 17 7 0 10 -262144 -1 -1 0
1;
#X obj 5 69 unpack f f f f f f f f, f 29;
#X obj 5 32 r emg, f 10;
#X obj 53 113 s am-3;
#X obj 151 113 s am-4;
#X obj 102 113 s am-2;
#X obj 5 113 s am-1;
#X obj 5 91 +;
#X obj 53 92 +;
#X obj 102 91 +;
#X obj 151 92 +;
#X obj 281 2 r crumpled;
#X obj 379 4 crumbleCh 1;
#X obj 379 24 crumbleCh 2;
#X obj 379 45 crumbleCh 3;
#X obj 379 64 crumbleCh 4;
#X connect 1 0 7 0;
#X connect 1 1 7 1;
#X connect 1 2 8 0;
#X connect 1 3 8 1;
#X connect 1 4 9 0;
#X connect 1 5 9 1;
#X connect 1 6 10 0;
#X connect 1 7 10 1;
#X connect 2 0 1 0;
#X connect 7 0 6 0;
#X connect 8 0 3 0;
#X connect 9 0 5 0;
#X connect 10 0 4 0;
#X connect 11 0 0 0;
#X coords 0 -1 1 1 80 20 1 220 20;
