#N canvas 34 410 420 340 10;
#X obj 10 13 inlet;
#X obj 10 35 t f f f f f f f f f f;
#X obj 10 274 outlet~;
#X obj 10 66 gen \$1 \$11;
#X obj 37 106 gen \$3 \$11;
#X obj 90 186 gen \$7 \$11;
#X obj 127 246 gen \$10 \$11;
#X obj 50 126 gen \$4 \$11;
#X obj 23 86 gen \$2 \$11;
#X obj 63 146 gen \$5 \$11;
#X obj 77 166 gen \$6 \$11;
#X obj 103 206 gen \$8 \$11;
#X obj 117 226 gen \$9 \$11;
#X connect 0 0 1 0;
#X connect 1 0 3 0;
#X connect 1 1 8 0;
#X connect 1 2 4 0;
#X connect 1 3 7 0;
#X connect 1 4 9 0;
#X connect 1 5 10 0;
#X connect 1 6 5 0;
#X connect 1 7 11 0;
#X connect 1 8 12 0;
#X connect 1 9 6 0;
#X connect 3 0 2 0;
#X connect 4 0 2 0;
#X connect 5 0 2 0;
#X connect 6 0 2 0;
#X connect 7 0 2 0;
#X connect 8 0 2 0;
#X connect 10 0 2 0;
#X connect 11 0 2 0;
#X connect 12 0 2 0;
