#N canvas 334 563 450 300 10;
#X obj 52 150 ../audio/gain~ 20;
#X obj 53 69 ../audio/gain~ 20;
#X obj 52 115 ../audio/gain~ 20;
#X obj 151 93 r crumbled;
#X obj 152 47 r crumbleClean;
#X obj 53 90 throw~ move-\$1;
#X obj 52 214 throw~ move-\$1;
#X obj 246 123 inlet;
#X floatatom 303 107 5 0 0 0 - - -, f 5;
#X obj 303 85 env~;
#X obj 52 184 ../audio/delay~ 133;
#X obj 32 21 catch~ crumble-\$1;
#X connect 0 0 10 0;
#X connect 1 0 5 0;
#X connect 2 0 0 0;
#X connect 3 0 2 1;
#X connect 4 0 1 1;
#X connect 7 0 0 1;
#X connect 9 0 8 0;
#X connect 10 0 6 0;
#X connect 11 0 2 0;
#X connect 11 0 1 0;
