#N canvas 667 347 329 189 10;
#X obj 25 38 unpack f f f f f f f f, f 38;
#X obj 25 14 inlet;
#X obj 25 67 +;
#X obj 93 67 +;
#X obj 163 67 +;
#X obj 235 67 +;
#X obj 25 90 * 0.5;
#X obj 93 90 * 0.5;
#X obj 163 90 * 0.5;
#X obj 235 90 * 0.5;
#X obj 25 118 emgAMch 1;
#X obj 93 120 emgAMch 2;
#X obj 163 120 emgAMch 3;
#X obj 235 120 emgAMch 4;
#X connect 0 0 2 0;
#X connect 0 1 2 1;
#X connect 0 2 3 0;
#X connect 0 3 3 1;
#X connect 0 4 4 0;
#X connect 0 5 4 1;
#X connect 0 6 5 0;
#X connect 0 7 5 1;
#X connect 1 0 0 0;
#X connect 2 0 6 0;
#X connect 3 0 7 0;
#X connect 4 0 8 0;
#X connect 5 0 9 0;
#X connect 6 0 10 0;
#X connect 7 0 11 0;
#X connect 8 0 12 0;
#X connect 9 0 13 0;
