#N canvas 508 226 607 217 10;
#X obj 17 29 inlet;
#X obj 17 77 unpack f f f f f f f f, f 38;
#X obj 17 106 +;
#X obj 85 106 +;
#X obj 155 106 +;
#X obj 225 106 +;
#X obj 17 128 * 15;
#X obj 87 128 * 15;
#X obj 157 128 * 15;
#X obj 227 128 * 15;
#X text 62 26 emg data data processing for AM;
#X obj 157 151 s am-1;
#X obj 227 151 s am-2;
#X obj 17 151 s am-3;
#X obj 87 151 s am-4;
#X obj 17 178 crumbleCh 1;
#X obj 97 178 crumbleCh 2;
#X obj 187 178 crumbleCh 3;
#X obj 267 178 crumbleCh 4;
#X connect 0 0 1 0;
#X connect 1 0 2 0;
#X connect 1 1 2 1;
#X connect 1 2 3 0;
#X connect 1 3 3 1;
#X connect 1 4 4 0;
#X connect 1 5 4 1;
#X connect 1 6 5 0;
#X connect 1 7 5 1;
#X connect 2 0 6 0;
#X connect 3 0 7 0;
#X connect 4 0 8 0;
#X connect 5 0 9 0;
#X connect 6 0 13 0;
#X connect 7 0 14 0;
#X connect 8 0 11 0;
#X connect 9 0 12 0;
