#N canvas 0 22 183 236 10;
#X obj 31 107 +;
#X obj 31 151 int;
#X obj 31 173 change;
#X obj 31 70 inlet;
#X obj 71 70 inlet;
#X obj 31 195 outlet;
#X floatatom 120 187 5 0 0 0 - - -, f 5;
#X obj 31 129 * 100;
#X connect 0 0 7 0;
#X connect 1 0 2 0;
#X connect 1 0 6 0;
#X connect 2 0 5 0;
#X connect 3 0 0 0;
#X connect 4 0 0 1;
#X connect 7 0 1 0;
