#N canvas 899 313 437 358 10;
#X obj 157 17 inlet;
#X obj 157 89 == \$1;
#X obj 19 254 outlet~;
#X obj 157 166 bng 15 250 50 0 empty empty empty 17 7 0 10 -262144
-1 -1;
#X obj 157 111 sel 1 0;
#X obj 157 39 spigot;
#X msg 185 166 0;
#X msg 228 166 1;
#X obj 226 142 delay 60;
#X obj 223 12 loadbang;
#X msg 223 34 1;
#X obj 157 133 t b b b;
#X obj 19 185 grain 50;
#X obj 19 18 receive~ crumble-\$2;
#X obj 64 89 env~;
#X floatatom 64 111 5 0 0 0 - - -, f 5;
#X connect 0 0 5 0;
#X connect 1 0 4 0;
#X connect 3 0 12 1;
#X connect 4 0 11 0;
#X connect 5 0 1 0;
#X connect 6 0 5 1;
#X connect 7 0 5 1;
#X connect 8 0 7 0;
#X connect 9 0 10 0;
#X connect 10 0 5 1;
#X connect 11 0 3 0;
#X connect 11 1 6 0;
#X connect 11 2 8 0;
#X connect 12 0 2 0;
#X connect 13 0 12 0;
#X connect 13 0 14 0;
#X connect 14 0 15 0;
