#N canvas 474 235 745 328 10;
#X obj 8 105 >;
#X obj 23 58 t b f;
#X obj 23 80 f \$1;
#X obj 23 36 inlet emgThr-1-\$0;
#X obj 8 10 r emg-1;
#X obj 62 58 r init-\$0;
#X obj 559 6 loadbang;
#X obj 559 28 s init-\$0;
#X obj 138 105 >;
#X obj 153 58 t b f;
#X obj 192 58 r init-\$0;
#X obj 268 105 >;
#X obj 283 58 t b f;
#X obj 322 58 r init-\$0;
#X obj 138 10 r emg-2;
#X obj 268 10 r emg-3;
#X obj 8 128 s genGrain-1;
#X obj 138 127 s genGrain-2;
#X obj 268 127 s genGrain-3;
#X obj 398 105 >;
#X obj 413 58 t b f;
#X obj 452 58 r init-\$0;
#X obj 398 127 s genGrain-4;
#X obj 413 80 f \$4;
#X obj 413 36 inlet emgThr-4-\$0;
#X obj 398 10 r emg-4;
#X obj 153 80 f \$2;
#X obj 283 80 f \$3;
#X obj 283 36 inlet emgThr-3-\$0;
#X obj 153 36 inlet emgThr-2-\$0;
#X obj 8 255 >;
#X obj 23 208 t b f;
#X obj 62 208 r init-\$0;
#X obj 138 255 >;
#X obj 153 208 t b f;
#X obj 192 208 r init-\$0;
#X obj 268 255 >;
#X obj 283 208 t b f;
#X obj 322 208 r init-\$0;
#X obj 398 255 >;
#X obj 413 208 t b f;
#X obj 452 208 r init-\$0;
#X obj 8 160 r emg-5;
#X obj 138 160 r emg-6;
#X obj 268 160 r emg-7;
#X obj 398 160 r emg-8;
#X obj 398 277 s genGrain-8;
#X obj 8 278 s genGrain-5;
#X obj 138 277 s genGrain-6;
#X obj 268 277 s genGrain-7;
#X obj 23 230 f \$5;
#X obj 153 230 f \$6;
#X obj 283 230 f \$7;
#X obj 413 230 f \$8;
#X obj 413 186 inlet emgThr-8-\$0;
#X obj 283 186 inlet emgThr-7-\$0;
#X obj 153 186 inlet emgThr-6-\$0;
#X obj 23 186 inlet emgThr-5-\$0;
#X connect 0 0 16 0;
#X connect 1 0 2 0;
#X connect 1 1 2 1;
#X connect 2 0 0 1;
#X connect 3 0 1 0;
#X connect 4 0 0 0;
#X connect 5 0 2 0;
#X connect 6 0 7 0;
#X connect 8 0 17 0;
#X connect 9 0 26 0;
#X connect 9 1 26 1;
#X connect 10 0 26 0;
#X connect 11 0 18 0;
#X connect 12 0 27 0;
#X connect 12 1 27 1;
#X connect 13 0 27 0;
#X connect 14 0 8 0;
#X connect 15 0 11 0;
#X connect 19 0 22 0;
#X connect 20 0 23 0;
#X connect 20 1 23 1;
#X connect 21 0 23 0;
#X connect 23 0 19 1;
#X connect 24 0 20 0;
#X connect 25 0 19 0;
#X connect 26 0 8 1;
#X connect 27 0 11 1;
#X connect 28 0 12 0;
#X connect 29 0 9 0;
#X connect 30 0 47 0;
#X connect 31 0 50 0;
#X connect 31 1 50 1;
#X connect 32 0 50 0;
#X connect 33 0 48 0;
#X connect 34 0 51 0;
#X connect 34 1 51 1;
#X connect 35 0 51 0;
#X connect 36 0 49 0;
#X connect 37 0 52 0;
#X connect 37 1 52 1;
#X connect 38 0 52 0;
#X connect 39 0 46 0;
#X connect 40 0 53 0;
#X connect 40 1 53 1;
#X connect 41 0 53 0;
#X connect 42 0 30 0;
#X connect 43 0 33 0;
#X connect 44 0 36 0;
#X connect 45 0 39 0;
#X connect 50 0 30 1;
#X connect 51 0 33 1;
#X connect 52 0 36 1;
#X connect 53 0 39 1;
#X connect 54 0 40 0;
#X connect 55 0 37 0;
#X connect 56 0 34 0;
#X connect 57 0 31 0;
