#N canvas 118 169 698 407 10;
#X msg 66 326 rgbw 0 \$1 \$2 \$3;
#X obj 81 33 unpack f f f;
#X obj 81 218 pack f f;
#X obj 81 240 line 0 0;
#X obj 66 304 pack f f f;
#X obj 66 348 s light-\$2;
#X obj 135 80 r br-t-\$1;
#X obj 81 9 inlet;
#X text 335 15 \$1 - delay channel;
#X text 335 29 \$2 - light channel;
#X obj 81 55 * 255;
#X obj 200 75 * 255;
#X obj 311 65 * 255;
#X obj 81 194 i;
#X obj 126 195 i;
#X obj 66 282 i;
#X obj 22 246 metro 30;
#X obj 22 221 r onOff;
#X obj 81 169 zexy/mavg;
#X obj 135 102 t f f;
#X obj 135 124 * 0.5;
#X obj 135 146 i;
#X obj 191 218 pack f f;
#X obj 191 240 line 0 0;
#X obj 245 80 r br-t-\$1;
#X obj 191 194 i;
#X obj 236 195 i;
#X obj 191 169 zexy/mavg;
#X obj 245 102 t f f;
#X obj 245 124 * 0.5;
#X obj 245 146 i;
#X obj 311 218 pack f f;
#X obj 311 240 line 0 0;
#X obj 365 80 r br-t-\$1;
#X obj 311 194 i;
#X obj 356 195 i;
#X obj 311 169 zexy/mavg;
#X obj 365 102 t f f;
#X obj 365 124 * 0.5;
#X obj 365 146 i;
#X floatatom 412 176 5 0 0 0 - - -, f 5;
#X floatatom 457 135 5 0 0 0 - - -, f 5;
#X floatatom 150 173 5 0 0 0 - - -, f 5;
#X floatatom 284 299 5 0 0 0 - - -, f 5;
#X floatatom 108 120 5 0 0 0 - - -, f 5;
#X connect 0 0 5 0;
#X connect 1 0 10 0;
#X connect 1 1 11 0;
#X connect 1 2 12 0;
#X connect 2 0 3 0;
#X connect 3 0 15 1;
#X connect 4 0 0 0;
#X connect 6 0 19 0;
#X connect 7 0 1 0;
#X connect 10 0 44 0;
#X connect 10 0 13 0;
#X connect 11 0 25 0;
#X connect 12 0 34 0;
#X connect 13 0 2 0;
#X connect 14 0 2 1;
#X connect 15 0 4 0;
#X connect 16 0 15 0;
#X connect 17 0 16 0;
#X connect 18 0 13 0;
#X connect 19 0 20 0;
#X connect 19 1 14 0;
#X connect 20 0 21 0;
#X connect 21 0 18 1;
#X connect 21 0 42 0;
#X connect 22 0 23 0;
#X connect 23 0 4 1;
#X connect 24 0 28 0;
#X connect 25 0 22 0;
#X connect 26 0 22 1;
#X connect 27 0 25 0;
#X connect 28 0 29 0;
#X connect 28 1 26 0;
#X connect 29 0 30 0;
#X connect 30 0 27 1;
#X connect 30 0 43 0;
#X connect 31 0 32 0;
#X connect 32 0 4 2;
#X connect 33 0 37 0;
#X connect 34 0 31 0;
#X connect 35 0 31 1;
#X connect 36 0 34 0;
#X connect 37 0 38 0;
#X connect 37 0 41 0;
#X connect 37 1 35 0;
#X connect 38 0 39 0;
#X connect 39 0 36 1;
#X connect 39 0 40 0;
