#N canvas 199 60 1021 408 10;
#X msg 111 306 print \$2c\$1w;
#X obj 17 346 outlet;
#X msg 199 306 print \$2c\$1w;
#X msg 293 303 print \$2c\$1w;
#X obj 111 281 pack f \$3;
#X obj 199 281 pack f \$4;
#X obj 293 278 pack f \$5;
#X obj 17 10 inlet;
#X obj 102 149 r \$1-r;
#X obj 34 129 r \$1-br;
#X msg 17 307 print \$2c\$1w;
#X obj 17 281 pack f \$2;
#X obj 176 146 r \$1-g;
#X text 621 252 g-\$1 \, set green value (0-255);
#X text 621 225 br-\$1 \, set brightness value (0-255);
#X text 621 239 r-\$1 \, set red value (0-255);
#X text 621 265 b-\$1 \, set blue value (0-255);
#X text 621 278 color-\$1 \, set light red \, green \, blue and brightness
values. (0-255 \, 0-255 \, 0-255 \, 0-255).;
#X text 607 195 Allowed messages:;
#X obj 44 56 loadbang;
#X text 631 126 \$1 = where to receive from (default null) \; \$2 =
brightness channel (default 255) \; \$3 = red channel (default 0) \;
\$4 = green channel (default 0) \; \$5 = blue channel (default 0) \;
;
#X text 607 109 Settings:;
#X text 607 27 Inlets:;
#X text 70 347 Messages to comport;
#X floatatom 17 239 5 0 255 2 Bright - -, f 5;
#X floatatom 56 239 5 0 255 2 Red - -, f 5;
#X floatatom 95 239 5 0 255 2 Green - -, f 5;
#X floatatom 134 239 5 0 255 2 Blue - -, f 5;
#X text 620 212 bang \, reset color values to default;
#X obj 58 9 r light-\$1;
#X obj 17 36 route float br r g b w rgbw bang, f 44;
#X floatatom 172 239 5 0 255 2 White - -, f 5;
#X msg 393 303 print \$2c\$1w;
#X obj 393 278 pack f \$6;
#X obj 112 107 unpack f f f f;
#X msg 113 84 0 0 0 0;
#X msg 44 83 255;
#X obj 324 30 inlet;
#X obj 364 30 inlet;
#X obj 404 30 inlet;
#X obj 445 30 inlet;
#X obj 485 30 inlet;
#X text 627 54 2 - Brightnes value;
#X text 627 67 3 - Red value;
#X text 627 80 4 - Green value;
#X text 627 93 5 - Blue value;
#X text 627 42 1 - Settings (see allowed messages list below);
#X obj 17 170 dmxLimiter;
#X obj 91 170 dmxLimiter;
#X obj 164 169 dmxLimiter;
#X obj 234 169 dmxLimiter;
#X obj 246 146 r \$1-b;
#X obj 303 169 dmxLimiter;
#X obj 315 146 r \$1-w;
#X connect 0 0 1 0;
#X connect 2 0 1 0;
#X connect 3 0 1 0;
#X connect 4 0 0 0;
#X connect 5 0 2 0;
#X connect 6 0 3 0;
#X connect 7 0 30 0;
#X connect 8 0 48 0;
#X connect 9 0 47 0;
#X connect 10 0 1 0;
#X connect 11 0 10 0;
#X connect 12 0 49 0;
#X connect 19 0 35 0;
#X connect 19 0 36 0;
#X connect 24 0 11 0;
#X connect 25 0 4 0;
#X connect 26 0 5 0;
#X connect 27 0 6 0;
#X connect 29 0 30 0;
#X connect 30 0 47 0;
#X connect 30 1 47 0;
#X connect 30 2 48 0;
#X connect 30 3 49 0;
#X connect 30 4 50 0;
#X connect 30 5 52 0;
#X connect 30 6 34 0;
#X connect 30 7 35 0;
#X connect 30 7 36 0;
#X connect 31 0 33 0;
#X connect 32 0 1 0;
#X connect 33 0 32 0;
#X connect 34 0 48 0;
#X connect 34 1 49 0;
#X connect 34 2 50 0;
#X connect 34 3 52 0;
#X connect 35 0 34 0;
#X connect 36 0 47 0;
#X connect 37 0 47 0;
#X connect 38 0 48 0;
#X connect 39 0 49 0;
#X connect 40 0 50 0;
#X connect 41 0 52 0;
#X connect 47 0 24 0;
#X connect 48 0 25 0;
#X connect 49 0 26 0;
#X connect 50 0 27 0;
#X connect 51 0 50 0;
#X connect 52 0 31 0;
#X connect 53 0 52 0;
#X coords 0 -1 1 1 200 60 1 10 200;
