#N canvas 564 208 588 303 10;
#X declare -path abstraction/generics;
#X declare -path abstraction/generics;
#N canvas 642 500 413 324 comport-setup 0;
#X obj 20 37 r \$0-comport;
#X msg 313 202 devices;
#X msg 111 205 close;
#X msg 72 259 baud 115200;
#X obj 20 291 comport 0 115200;
#X text 17 9 Settings comport to send DMX data to lighting system.
;
#X obj 20 215 spigot;
#X obj 53 83 sel 1 0;
#X obj 53 147 t f b b;
#X msg 53 125 1;
#X obj 313 106 loadbang;
#X msg 138 182 0;
#X obj 53 61 r onOff;
#X obj 313 128 t b b;
#X obj 111 153 t b b;
#X obj 111 106 t b b;
#X msg 183 150 0;
#X obj 111 129 delay 510;
#X obj 183 178 s lightOnOffButton;
#X obj 216 68 r lightOnOff;
#X obj 216 90 == 1;
#X obj 183 123 spigot;
#X floatatom 237 122 5 0 0 0 - - -, f 5;
#X obj 92 178 r port;
#X msg 91 229 open \$1;
#X obj 87 209 f;
#X connect 0 0 6 0;
#X connect 1 0 4 0;
#X connect 2 0 4 0;
#X connect 3 0 4 0;
#X connect 6 0 4 0;
#X connect 7 0 9 0;
#X connect 7 1 15 0;
#X connect 8 0 6 1;
#X connect 8 1 3 0;
#X connect 8 2 25 0;
#X connect 9 0 8 0;
#X connect 10 0 13 0;
#X connect 11 0 6 1;
#X connect 12 0 7 0;
#X connect 13 0 1 0;
#X connect 13 1 11 0;
#X connect 14 0 2 0;
#X connect 14 1 11 0;
#X connect 15 0 17 0;
#X connect 15 1 21 0;
#X connect 16 0 18 0;
#X connect 17 0 14 0;
#X connect 19 0 20 0;
#X connect 20 0 21 1;
#X connect 20 0 22 0;
#X connect 21 0 16 0;
#X connect 23 0 25 1;
#X connect 24 0 4 0;
#X connect 25 0 24 0;
#X restore 13 86 pd comport-setup;
#X text 26 14 Sends rIoT data and recognised gestures by Wekinator
to lighting system. Ligthing system realised usiing Arduino Uno + Thinker
Kit DMX Shield. Communication is serial via comport.;
#X obj 122 151 s \$0-comport;
#X obj 345 152 s \$0-comport;
#X obj 120 242 s \$0-comport;
#X obj 345 242 s \$0-comport;
#X obj 11 279 declare -path abstraction/generics;
#X text 202 151 channel: d001;
#X text 199 241 channel: d021;
#X text 424 242 channel: d031;
#X text 425 153 channel: d011;
#N canvas 401 82 367 107 mapping 0;
#N canvas 598 197 212 246 color 0;
#X obj 11 111 pack f f f, f 27;
#X obj 63 43 t b f;
#X obj 143 44 t b f;
#X obj 11 81 f;
#X obj 11 42 t b f;
#X obj 11 133 t a a a a;
#X obj 143 17 r clean;
#X obj 11 17 r lower;
#X obj 63 17 r extend;
#X obj 11 166 colourDelay 1 a;
#X obj 28 186 colourDelay 2 b;
#X obj 45 206 colourDelay 3 c;
#X obj 62 226 colourDelay 4 d;
#X connect 0 0 5 0;
#X connect 1 0 3 0;
#X connect 1 1 0 1;
#X connect 2 0 3 0;
#X connect 2 1 0 2;
#X connect 3 0 0 0;
#X connect 4 0 3 0;
#X connect 4 1 3 1;
#X connect 5 0 9 0;
#X connect 5 1 10 0;
#X connect 5 2 11 0;
#X connect 5 3 12 0;
#X connect 6 0 2 0;
#X connect 7 0 4 0;
#X connect 8 0 1 0;
#X restore 12 70 pd color;
#X obj 11 13 declare -path abstraction/generics;
#X obj 11 42 scaleBr 1 a;
#X obj 156 42 scaleBr 3 c;
#X obj 229 42 scaleBr 4 d;
#X obj 83 42 scaleBr 2 b;
#X restore 13 106 pd mapping;
#X obj 119 176 dmx-router c 24 25 26 27 28;
#X obj 345 176 dmx-router d 34 35 36 37 38;
#X obj 345 86 dmx-router b 14 15 16 17 18;
#X obj 122 84 dmx-router a 4 5 6 7 8;
#X obj 15 202 tgl 15 0 lightOnOff lightOnOffButton OnOff 17 7 0 10
-262144 -1 -1 0 1;
#X floatatom 15 183 5 0 0 2 connect_port - port, f 5;
#X obj 52 182 tgl 15 0 onOff empty empty 17 7 0 10 -262144 -1 -1 0
1;
#X connect 12 0 4 0;
#X connect 13 0 5 0;
#X connect 14 0 3 0;
#X connect 15 0 2 0;
#X coords 0 -1 1 1 80 75 1 10 145;
