#N canvas 0 22 450 300 10;
#X declare -path abstraction/generics;
#X obj 45 52 inlet;
#X msg 45 96 \$1 50;
#X obj 45 118 line 0 0;
#X obj 45 225 outlet;
#X obj 44 20 declare -path abstraction/generics;
#X obj 45 74 datapressor01;
#X obj 51 141 * 255;
#X obj 51 163 i;
#X floatatom 54 189 5 0 0 0 - - -, f 5;
#X connect 0 0 5 0;
#X connect 1 0 2 0;
#X connect 2 0 6 0;
#X connect 5 0 1 0;
#X connect 6 0 7 0;
#X connect 7 0 8 0;
#X connect 8 0 3 0;
