#N canvas 0 23 450 300 10;
#N canvas 9 22 732 374 granulation 0;
#X obj 309 313 t a;
#X msg 309 80 selEditSoundIndex \$1;
#X msg 309 103 loadSound \$1;
#X msg 309 126 resizeSound \$1;
#X msg 309 161 selPlaybackSoundIndex \$1;
#X msg 309 264 attackTime \$1;
#X msg 309 288 releaseTime \$1;
#X msg 309 190 relMeanCloudPosition \$1;
#X msg 309 236 nrOfPositions \$1;
#X msg 309 213 devCloudPos \$1;
#X obj 309 335 s parameters;
#X obj 78 47 loadbang;
#X obj 172 47 r parameters;
#N canvas 523 26 575 333 spatialisation-parameters 0;
#X msg 172 204 maxSpatialPosition \$1;
#X obj 19 255 s parameters;
#X obj 19 60 t f f;
#X obj 172 109 max 0.5;
#X obj 19 131 change;
#X obj 172 131 change;
#X floatatom 172 175 5 0 0 0 - - -, f 5;
#X obj 19 16 r yaw;
#X text 210 14 here we establish the grain spatialisation. when the
perfromer open his/her arms the grains can floats within a wider spatial
soundscape.;
#X obj 22 39 hsl 128 15 0 1 0 0 empty empty empty -2 -8 0 10 -262144
-1 -1 0 1;
#X msg 19 204 minSpatialPosition \$1;
#X obj 19 109 min 0.5;
#X floatatom 19 153 5 0 0 0 - - -, f 5;
#X obj 284 113 hsl 128 15 0 2 0 0 empty empty empty -2 -8 0 10 -262144
-1 -1 0 1;
#X connect 0 0 1 0;
#X connect 2 0 11 0;
#X connect 2 1 3 0;
#X connect 3 0 5 0;
#X connect 6 0 0 0;
#X connect 7 0 9 0;
#X connect 9 0 2 0;
#X connect 10 0 1 0;
#X connect 11 0 4 0;
#X connect 12 0 10 0;
#X connect 13 0 12 0;
#X restore 535 15 pd spatialisation-parameters;
#N canvas 0 22 524 249 number-of-grains 0;
#X obj 19 23 r mav;
#X obj 19 45 * 16;
#X obj 19 67 int;
#X msg 19 89 maxNrGrains \$1;
#X obj 19 131 s parameters;
#X connect 0 0 1 0;
#X connect 1 0 2 0;
#X connect 2 0 3 0;
#X restore 535 63 pd number-of-grains;
#N canvas 667 494 450 300 sample-sound 0;
#X msg 142 129 recSound \$1;
#X obj 142 7 r grainRec;
#X obj 142 54 delay 2000;
#X msg 142 76 0;
#X msg 173 75 1;
#X obj 106 8 bng 15 250 50 0 empty empty empty 17 7 0 10 -262144 -1
-1;
#X obj 142 32 t b b b;
#X obj 142 151 s parameters;
#X connect 0 0 7 0;
#X connect 1 0 6 0;
#X connect 2 0 3 0;
#X connect 3 0 0 0;
#X connect 4 0 0 0;
#X connect 5 0 6 0;
#X connect 6 0 2 0;
#X connect 6 1 4 0;
#X restore 535 39 pd sample-sound;
#N canvas 996 22 450 300 grain-size 0;
#X msg 182 144 maxGrainSize \$1;
#X obj 182 52 r yaw;
#X obj 182 96 abs;
#X obj 182 74 - 0.5;
#X obj 48 83 loadbang;
#X obj 48 191 s parameters;
#X obj 182 118 * 2;
#X msg 48 109 minGrainSize 0.03;
#X floatatom 266 87 5 0 0 0 - - -, f 5;
#X msg 263 109 0.25;
#X connect 0 0 5 0;
#X connect 1 0 3 0;
#X connect 2 0 6 0;
#X connect 3 0 2 0;
#X connect 4 0 7 0;
#X connect 6 0 0 0;
#X connect 7 0 5 0;
#X connect 8 0 0 0;
#X connect 9 0 0 0;
#X restore 535 89 pd grain-size;
#N canvas 577 22 450 300 could-density 0;
#X obj 152 19 r acceleration;
#X obj 157 98 max 1;
#X obj 157 120 min 16;
#X obj 9 91 loadbang;
#X obj 9 206 s parameters;
#X msg 9 124 minCloudDensity 0;
#X msg 157 146 maxCloudDensity \$1;
#X obj 246 97 hsl 128 15 0 4 0 0 empty empty empty -2 -8 0 10 -262144
-1 -1 0 1;
#X floatatom 243 117 5 0 0 0 - - -, f 5;
#X connect 1 0 2 0;
#X connect 2 0 6 0;
#X connect 3 0 5 0;
#X connect 5 0 4 0;
#X connect 6 0 4 0;
#X connect 7 0 8 0;
#X connect 8 0 6 0;
#X restore 537 114 pd could-density;
#N canvas 0 22 251 316 pitch-transposition 0;
#X msg 64 213 maxPitchTransposition \$1;
#X obj 11 244 s paramenters;
#X msg 11 184 minPitchTransposition \$1;
#X obj 11 47 t f f;
#X obj 64 76 max 0.5;
#X obj 11 76 min 0.5;
#X obj 11 98 change;
#X obj 64 98 change;
#X floatatom 64 162 5 0 0 0 - - -, f 5;
#X obj 11 23 r pitch;
#X obj 64 120 - 0.5;
#X obj 64 140 * 4800;
#X obj 11 120 - 0.5;
#X floatatom 11 164 5 0 0 0 - - -, f 5;
#X obj 11 142 * 4800;
#X connect 0 0 1 0;
#X connect 2 0 1 0;
#X connect 3 0 5 0;
#X connect 3 1 4 0;
#X connect 4 0 7 0;
#X connect 5 0 6 0;
#X connect 6 0 12 0;
#X connect 7 0 10 0;
#X connect 8 0 0 0;
#X connect 9 0 3 0;
#X connect 10 0 11 0;
#X connect 11 0 8 0;
#X connect 12 0 14 0;
#X connect 13 0 2 0;
#X connect 14 0 13 0;
#X restore 538 139 pd pitch-transposition;
#X obj 31 17 catch~ granulatorIn-\$0;
#X obj 131 49 bng 15 250 50 0 empty empty empty 17 7 0 10 -262144 -1
-1;
#X obj 31 223 send~ grain-out-1;
#X obj 78 202 send~ grain-out-2;
#X obj 125 182 send~ grain-out-3;
#X obj 172 162 send~ grain-out-4;
#X obj 31 80 granulator/granulator 16;
#X msg 499 205 maxNrGrains \$1;
#X floatatom 500 172 5 0 0 0 - - -, f 5;
#X obj 499 227 print;
#X connect 0 0 10 0;
#X connect 1 0 0 0;
#X connect 2 0 0 0;
#X connect 3 0 0 0;
#X connect 4 0 0 0;
#X connect 5 0 0 0;
#X connect 6 0 0 0;
#X connect 7 0 0 0;
#X connect 8 0 0 0;
#X connect 9 0 0 0;
#X connect 11 0 25 1;
#X connect 12 0 25 3;
#X connect 19 0 25 0;
#X connect 20 0 25 1;
#X connect 25 0 21 0;
#X connect 25 1 22 0;
#X connect 25 2 23 0;
#X connect 25 3 24 0;
#X connect 26 0 10 0;
#X connect 26 0 28 0;
#X connect 27 0 26 0;
#X restore 11 87 pd granulation;
