#N canvas 721 451 450 300 10;
#X obj 75 17 noise~;
#X obj 79 150 receive~ signal;
#X obj 75 39 send~ signal;
#X obj 175 19 bng 15 250 50 0 empty empty empty 17 7 0 10 -262144 -1
-1;
#X obj 79 193 dac~ 1;
#X obj 79 171 grain 15 7 1;
#X obj 179 150 receive~ signal;
#X obj 179 171 grain 15 7 2;
#X obj 179 193 dac~ 2;
#X obj 175 91 s genGrain-1;
#X obj 255 91 s genGrain-2;
#X obj 175 39 t b b;
#X obj 204 63 delay 200;
#X connect 0 0 2 0;
#X connect 1 0 5 0;
#X connect 3 0 11 0;
#X connect 5 0 4 0;
#X connect 6 0 7 0;
#X connect 7 0 8 0;
#X connect 11 0 9 0;
#X connect 11 1 12 0;
#X connect 12 0 10 0;
