#N canvas 0 22 698 479 10;
#X obj 149 275 vline~;
#X msg 149 252 \$1 25;
#X obj 133 322 vcf~ 4;
#X obj 305 195 * 0.001;
#X obj 276 145 t f b;
#X obj 276 237 *;
#X obj 276 286 vline~;
#X msg 276 263 \$1 25;
#X obj 305 173 random 1000;
#X obj 305 217 + 1;
#X obj 260 322 vcf~ 5;
#X obj 446 195 * 0.001;
#X obj 417 145 t f b;
#X obj 417 237 *;
#X obj 417 286 vline~;
#X msg 417 263 \$1 25;
#X obj 446 217 + 1;
#X obj 566 195 * 0.001;
#X obj 537 145 t f b;
#X obj 537 237 *;
#X obj 537 286 vline~;
#X msg 537 263 \$1 25;
#X obj 566 217 + 1;
#X obj 446 173 random 2000;
#X obj 566 173 random 3000;
#X obj 149 91 t f f f f;
#X obj 401 322 vcf~ 6;
#X obj 521 322 vcf~ 7;
#X obj 133 383 *~ 0.25;
#X obj 133 405 outlet~;
#X obj 149 29 inlet;
#X obj 149 62 clip 40 17000;
#X obj 16 275 receive~ splitIn;
#X connect 0 0 2 1;
#X connect 1 0 0 0;
#X connect 2 0 28 0;
#X connect 3 0 9 0;
#X connect 4 0 5 0;
#X connect 4 1 8 0;
#X connect 5 0 7 0;
#X connect 6 0 10 1;
#X connect 7 0 6 0;
#X connect 8 0 3 0;
#X connect 9 0 5 1;
#X connect 10 0 28 0;
#X connect 11 0 16 0;
#X connect 12 0 13 0;
#X connect 12 1 23 0;
#X connect 13 0 15 0;
#X connect 14 0 26 1;
#X connect 15 0 14 0;
#X connect 16 0 13 1;
#X connect 17 0 22 0;
#X connect 18 0 19 0;
#X connect 18 1 24 0;
#X connect 19 0 21 0;
#X connect 20 0 27 1;
#X connect 21 0 20 0;
#X connect 22 0 19 1;
#X connect 23 0 11 0;
#X connect 24 0 17 0;
#X connect 25 0 1 0;
#X connect 25 1 4 0;
#X connect 25 2 12 0;
#X connect 25 3 18 0;
#X connect 26 0 28 0;
#X connect 27 0 28 0;
#X connect 28 0 29 0;
#X connect 30 0 31 0;
#X connect 31 0 25 0;
#X connect 32 0 2 0;
#X connect 32 0 10 0;
#X connect 32 0 26 0;
#X connect 32 0 27 0;
