#N canvas 264 424 267 209 10;
#X obj 87 28 inlet;
#X text 12 5 signal;
#X text 84 5 distance;
#X obj 18 163 outlet~;
#X obj 18 133 low_pass_1p~;
#X obj 18 24 inlet~;
#X obj 87 72 airCut;
#X obj 87 50 + 1;
#N canvas 0 22 450 300 analysis 0;
#X msg 145 158 1;
#X obj 145 180 +;
#X floatatom 145 202 5 0 0 0 - - -, f 5;
#X floatatom 110 218 5 0 0 0 - - -, f 5;
#X msg 74 157 0;
#X obj 74 46 r reset-\$1;
#X obj 144 137 spigot;
#X obj 169 116 tgl 15 0 empty empty empty 17 7 0 10 -262144 -1 -1 0
1;
#X obj 110 92 t f b b;
#X obj 208 59 loadbang;
#X obj 110 72 inlet;
#X obj 208 90 text define lpf-\$1;
#X obj 110 247 text set lpf-\$1;
#X connect 0 0 1 0;
#X connect 1 0 2 0;
#X connect 2 0 1 1;
#X connect 2 0 12 1;
#X connect 3 0 12 0;
#X connect 4 0 3 0;
#X connect 4 0 2 0;
#X connect 5 0 4 0;
#X connect 6 0 0 0;
#X connect 7 0 6 1;
#X connect 8 0 3 0;
#X connect 8 1 6 0;
#X connect 8 2 7 0;
#X connect 9 0 11 0;
#X connect 10 0 8 0;
#X restore 114 158 pd analysis;
#X obj 114 131 spigot;
#X obj 147 103 tgl 15 0 empty empty empty 17 7 0 10 -262144 -1 -1 0
1;
#X obj 148 61 loadbang;
#X msg 148 81 1;
#X obj 87 94 t f f;
#X connect 0 0 7 0;
#X connect 4 0 3 0;
#X connect 5 0 4 0;
#X connect 6 0 13 0;
#X connect 7 0 6 0;
#X connect 9 0 8 0;
#X connect 10 0 9 1;
#X connect 11 0 12 0;
#X connect 13 0 4 1;
#X connect 13 1 9 0;
