#N canvas 9 41 1431 800 10;
#X obj 315 132 * -1;
#X obj 315 109 + 1;
#X obj 94 728 outlet~;
#X obj 315 87 * 2;
#X obj 318 65 hsl 128 15 0 1 0 0 empty empty empty -2 -8 0 10 -262144
-1 -1 0 1;
#X floatatom 315 43 5 0 0 0 - - -, f 5;
#X obj 95 113 inlet~;
#X obj 315 15 r currentPosition;
#X msg 16 319 offset 45;
#X obj 16 295 loadbang;
#X msg 17 349 offset 0;
#X obj 96 372 *~ 1;
#X obj 169 378 *~ 1;
#X obj 242 371 *~ 1;
#X obj 315 377 *~ 1;
#X obj 96 590 +~;
#X obj 96 218 hoa.2d.encoder~ 1 -------------------;
#X obj 96 263 hoa.2d.optim~ 1 inPhase -------------;
#X obj 96 327 hoa.2d.decoder~ 1 regular 4 ---------;
#X msg 315 176 \$1 30;
#X obj 315 154 * 3.14159;
#X obj 315 198 vline~;
#X text 358 200 Azimuth;
#X obj 156 590 +~;
#X obj 216 590 +~;
#X obj 276 590 +~;
#X obj 375 275 hoa.2d.process~ 1 hoa.fx.freeverb~ harmonics @wet 1
@dry 0 @roomsize 0.75 @ damp 0.5 @diff 0.75, f 54;
#X obj 594 47 * 1000;
#X obj 594 69 mod 1000;
#X obj 594 91 * 0.001;
#X obj 594 25 + 0.5;
#X obj 594 158 * -1;
#X obj 594 135 + 1;
#X obj 594 113 * 2;
#X obj 375 244 hoa.2d.encoder~ 1 -------------------;
#X msg 594 202 \$1 30;
#X obj 594 180 * 3.14159;
#X obj 594 224 vline~;
#X obj 375 348 hoa.2d.decoder~ 1 regular 4 ---------;
#X obj 96 679 gain~ 20;
#X obj 105 636 sel 1;
#X msg 105 658 1;
#X msg 138 658 0;
#X obj 186 679 gain~ 20;
#X msg 195 658 1;
#X msg 228 658 0;
#X obj 266 679 gain~ 20;
#X msg 275 658 1;
#X msg 308 658 0;
#X obj 347 679 gain~ 20;
#X msg 356 658 1;
#X msg 389 658 0;
#X obj 195 636 sel 2;
#X obj 275 636 sel 3;
#X obj 356 636 sel 4;
#X obj 332 553 loadbang;
#X obj 332 575 f \$1;
#X obj 332 597 t f f f f;
#X obj 511 371 *~ 0.7;
#X obj 581 371 *~ 0.7;
#X obj 441 371 *~ 0.7;
#X obj 375 370 *~ 0.7;
#X connect 0 0 20 0;
#X connect 1 0 0 0;
#X connect 3 0 1 0;
#X connect 4 0 3 0;
#X connect 5 0 4 0;
#X connect 6 0 16 0;
#X connect 6 0 34 0;
#X connect 7 0 5 0;
#X connect 7 0 30 0;
#X connect 8 0 18 0;
#X connect 9 0 8 0;
#X connect 10 0 18 0;
#X connect 11 0 15 0;
#X connect 12 0 24 0;
#X connect 13 0 25 0;
#X connect 14 0 23 0;
#X connect 15 0 39 0;
#X connect 16 0 17 0;
#X connect 16 1 17 1;
#X connect 16 2 17 2;
#X connect 17 0 18 0;
#X connect 17 1 18 1;
#X connect 17 2 18 2;
#X connect 18 0 11 0;
#X connect 18 1 12 0;
#X connect 18 2 13 0;
#X connect 18 3 14 0;
#X connect 19 0 21 0;
#X connect 20 0 19 0;
#X connect 21 0 16 1;
#X connect 23 0 43 0;
#X connect 24 0 46 0;
#X connect 25 0 49 0;
#X connect 26 0 38 0;
#X connect 26 1 38 1;
#X connect 26 2 38 2;
#X connect 27 0 28 0;
#X connect 28 0 29 0;
#X connect 29 0 33 0;
#X connect 30 0 27 0;
#X connect 31 0 36 0;
#X connect 32 0 31 0;
#X connect 33 0 32 0;
#X connect 34 0 26 0;
#X connect 34 1 26 1;
#X connect 34 2 26 2;
#X connect 35 0 37 0;
#X connect 36 0 35 0;
#X connect 37 0 34 1;
#X connect 38 0 61 0;
#X connect 38 1 60 0;
#X connect 38 2 58 0;
#X connect 38 3 59 0;
#X connect 39 0 2 0;
#X connect 40 0 41 0;
#X connect 40 1 42 0;
#X connect 41 0 39 1;
#X connect 42 0 39 1;
#X connect 43 0 2 0;
#X connect 44 0 43 1;
#X connect 45 0 43 1;
#X connect 46 0 2 0;
#X connect 47 0 46 1;
#X connect 48 0 46 1;
#X connect 49 0 2 0;
#X connect 50 0 49 1;
#X connect 51 0 49 1;
#X connect 52 0 44 0;
#X connect 52 1 45 0;
#X connect 53 0 47 0;
#X connect 53 1 48 0;
#X connect 54 0 50 0;
#X connect 54 1 51 0;
#X connect 55 0 56 0;
#X connect 56 0 57 0;
#X connect 57 0 40 0;
#X connect 57 1 52 0;
#X connect 57 2 53 0;
#X connect 57 3 54 0;
#X connect 58 0 25 1;
#X connect 59 0 23 1;
#X connect 60 0 24 1;
#X connect 61 0 15 1;
