#N canvas 987 361 298 245 10;
#X declare -path ../audio;
#X obj 135 32 inlet;
#X obj 11 120 ../spat/airAbsorbtion;
#X obj 5 7 declare -path ../audio;
#X obj 11 55 catch~ spat-\$1;
#X obj 11 211 outlet~;
#X obj 135 79 t f f;
#X obj 11 151 delayy \$1, f 28;
#X obj 200 93 s distance-\$1;
#X obj 135 54 t f f;
#X obj 11 185 ambisonic \$1;
#N canvas 0 22 526 288 rec 0;
#X obj 184 63 inlet~;
#X msg 103 161 start;
#X msg 167 160 stop;
#X obj 114 83 r rec;
#X obj 114 105 sel 1 0;
#X obj 252 138 r namerec;
#X obj 107 135 t b b;
#X obj 221 178 f;
#X obj 424 173 f \$1;
#X obj 221 200 pack f f;
#X obj 426 130 loadbang;
#X obj 91 255 writesf~ 1;
#X msg 208 235 open ../recording/rec_\$1-spat-\$2;
#X connect 0 0 11 0;
#X connect 1 0 11 0;
#X connect 2 0 11 0;
#X connect 3 0 4 0;
#X connect 4 0 6 0;
#X connect 4 1 2 0;
#X connect 5 0 7 1;
#X connect 6 0 1 0;
#X connect 6 1 7 0;
#X connect 7 0 9 0;
#X connect 8 0 9 1;
#X connect 9 0 12 0;
#X connect 10 0 8 0;
#X connect 12 0 11 0;
#X restore 70 214 pd rec;
#X connect 0 0 8 0;
#X connect 1 0 6 0;
#X connect 3 0 1 0;
#X connect 5 0 1 1;
#X connect 5 1 6 1;
#X connect 6 0 9 0;
#X connect 8 0 5 0;
#X connect 8 1 7 0;
#X connect 9 0 4 0;
#X connect 9 0 10 0;
