#N canvas 694 371 583 300 10;
#X floatatom 35 55 5 0 0 0 - - -, f 5;
#X obj 35 149 t f f;
#X obj 35 235 pack 0 0;
#X obj 35 18 inlet;
#X obj 35 263 outlet;
#X obj 92 102 expr 6.28318530717959/$f1;
#X obj 92 18 inlet;
#X obj 92 42 t b f;
#X obj 92 77 \$1;
#X obj 162 45 loadbang;
#X obj 35 128 * 0.785398;
#X text 383 13 \$1 = Number of classes;
#X text 383 23 \$2 = Cartesian Plan Width;
#X text 383 33 \$3 = Cartesian Plan Height;
#X obj 268 22 inlet;
#X obj 35 174 expr (sin($f1)+1)*($f2*0.5);
#X obj 62 198 expr (cos($f1)+1)*($f2*0.5);
#X text 382 53 \$4 = Room x;
#X text 383 63 \$5 = Room y;
#X obj 308 22 inlet;
#X obj 35 74 - 1;
#X connect 0 0 20 0;
#X connect 1 0 15 0;
#X connect 1 1 16 0;
#X connect 2 0 4 0;
#X connect 3 0 0 0;
#X connect 5 0 10 1;
#X connect 6 0 7 0;
#X connect 7 0 8 0;
#X connect 7 1 8 1;
#X connect 8 0 5 0;
#X connect 9 0 8 0;
#X connect 10 0 1 0;
#X connect 14 0 15 1;
#X connect 15 0 2 0;
#X connect 16 0 2 1;
#X connect 19 0 16 1;
#X connect 20 0 10 0;
