#N canvas 120 22 518 712 10;
#X obj 194 48 inlet;
#X obj 194 122 * 3;
#X text 191 28 distance;
#X obj 366 238 sel 3;
#X obj 393 293 sel 1 2;
#X obj 444 56 inlet;
#X text 438 34 int-bang;
#X obj 393 325 t b b b;
#X obj 454 325 t b b b;
#X obj 179 611 *~;
#X obj 297 610 *~;
#X msg 312 564 1 15;
#X obj 334 194 +;
#X msg 334 119 1;
#X obj 334 142 t i b;
#X obj 349 167 i;
#X msg 444 187 0;
#X obj 37 76 delwrite~ voice 90;
#X obj 179 530 delread~ voice 90;
#X obj 297 529 delread~ voice 90;
#X text 252 683 Balandino Di Donato - 2015;
#X obj 194 98 max 1;
#X msg 179 453 \$1 20;
#X obj 179 477 line~ 10 20;
#X msg 297 452 \$1 20;
#X obj 297 476 line~ 10 20;
#X msg 194 565 1 20;
#X msg 234 565 0 20;
#X msg 352 564 0 20;
#X obj 312 588 line~ 10 20;
#X obj 194 589 line~ 10 20;
#X obj 194 160 t f f;
#X obj 179 424 f;
#X obj 297 423 f;
#X obj 393 267 t f f;
#X obj 194 72 t f b;
#X obj 179 647 outlet~;
#X obj 37 47 inlet~;
#X connect 0 0 35 0;
#X connect 1 0 31 0;
#X connect 3 0 16 0;
#X connect 3 1 34 0;
#X connect 4 0 7 0;
#X connect 4 1 8 0;
#X connect 5 0 16 0;
#X connect 7 0 26 0;
#X connect 7 1 28 0;
#X connect 7 2 32 0;
#X connect 8 0 11 0;
#X connect 8 1 27 0;
#X connect 8 2 33 0;
#X connect 9 0 36 0;
#X connect 10 0 36 0;
#X connect 11 0 29 0;
#X connect 12 0 15 1;
#X connect 12 0 3 0;
#X connect 13 0 14 0;
#X connect 14 0 12 0;
#X connect 14 1 15 0;
#X connect 15 0 12 1;
#X connect 16 0 15 1;
#X connect 18 0 9 0;
#X connect 19 0 10 0;
#X connect 21 0 1 0;
#X connect 22 0 23 0;
#X connect 23 0 18 0;
#X connect 24 0 25 0;
#X connect 25 0 19 0;
#X connect 26 0 30 0;
#X connect 27 0 30 0;
#X connect 28 0 29 0;
#X connect 29 0 10 1;
#X connect 30 0 9 1;
#X connect 31 0 32 1;
#X connect 31 1 33 1;
#X connect 32 0 22 0;
#X connect 33 0 24 0;
#X connect 34 0 4 0;
#X connect 35 0 21 0;
#X connect 35 1 13 0;
#X connect 37 0 17 0;
