#N canvas 738 381 522 315 10;
#X obj 15 203 expr sqrt(pow($f1 \, 2)+pow($f2 \, 2));
#X obj 15 236 outlet;
#X obj 15 81 inlet;
#X obj 55 81 loadbang;
#X text 378 102 \$3 = ref x;
#X text 378 112 \$4 = ref y;
#X text 378 82 \$1 = input x;
#X text 378 92 \$2 = input y;
#X obj 15 120 unpack f f;
#X obj 15 148 - \$1;
#X obj 216 143 - \$2;
#X obj 114 80 f \$1;
#X obj 114 29 loadbang;
#X obj 237 77 f \$2;
#X obj 114 122 *;
#X obj 175 29 r roomX;
#X obj 237 119 *;
#X obj 248 29 r roomY;
#X obj 175 51 t b f;
#X obj 248 51 t b f;
#X obj 114 51 t b b;
#X connect 0 0 1 0;
#X connect 2 0 8 0;
#X connect 3 0 8 0;
#X connect 8 0 9 0;
#X connect 8 1 10 0;
#X connect 9 0 0 0;
#X connect 10 0 0 1;
#X connect 11 0 14 0;
#X connect 12 0 20 0;
#X connect 13 0 16 0;
#X connect 14 0 9 1;
#X connect 15 0 18 0;
#X connect 16 0 10 1;
#X connect 17 0 19 0;
#X connect 18 0 11 0;
#X connect 18 1 14 1;
#X connect 19 0 13 0;
#X connect 19 1 16 1;
#X connect 20 0 11 0;
#X connect 20 1 13 0;
