#N canvas 836 390 250 164 10;
#X obj 22 13 inlet;
#X obj 22 35 - 1;
#X obj 22 57 abs;
#X obj 22 79 * 20;
#X obj 22 131 outlet;
#X obj 22 101 + 1;
#X connect 0 0 1 0;
#X connect 1 0 2 0;
#X connect 2 0 3 0;
#X connect 3 0 5 0;
#X connect 5 0 4 0;
