#N canvas 0 22 392 209 10;
#X obj 27 0 inlet~;
#X obj 81 1 inlet;
#X obj 27 111 *~;
#X msg 81 63 \$1 30;
#X obj 27 145 outlet~;
#X obj 81 42 \$1;
#X obj 126 2 loadbang;
#X obj 81 84 vline~;
#X text 207 4 \$1 = gain factor;
#X connect 0 0 2 0;
#X connect 1 0 5 0;
#X connect 2 0 4 0;
#X connect 3 0 7 0;
#X connect 5 0 3 0;
#X connect 6 0 5 0;
#X connect 7 0 2 1;
