#N canvas 155 55 411 394 10;
#X obj 144 52 inlet;
#X text 146 34 freq;
#X text 220 157 rcp;
#X obj 135 267 pack 0 0 0 0 0;
#X obj 123 192 expr ($f1-1)*$f2 \; $f2 \; $f2;
#X obj 144 130 expr $f1 \; 1/($f1+1);
#X text 119 157 l;
#X text 244 105 l;
#X text 26 17 low_pass_1p~ : low pass filter of first order (one pole)
;
#X obj 79 52 inlet~;
#X obj 78 309 biquad~;
#X obj 78 330 outlet~;
#X obj 144 105 f_transform \$1;
#X obj 225 58 loadbang;
#X connect 0 0 12 0;
#X connect 3 0 10 0;
#X connect 4 0 3 0;
#X connect 4 1 3 2;
#X connect 4 2 3 3;
#X connect 5 0 4 0;
#X connect 5 1 4 1;
#X connect 9 0 10 0;
#X connect 10 0 11 0;
#X connect 12 0 5 0;
#X connect 13 0 12 1;
