#N canvas 777 22 308 478 10;
#X declare -path abstraction/audio;
#X obj 18 266 hsl 128 15 0 1 0 0 empty empty empty -2 -8 0 10 -262144
-1 -1 0 1;
#X floatatom 15 297 5 0 0 0 - - -, f 5;
#X text 55 280 1;
#X text 98 280 2;
#X text 138 280 4;
#X text 18 280 3;
#X msg 48 156 0;
#X obj 15 179 spigot;
#X msg 79 155 1;
#N canvas 347 156 451 351 pressor 0;
#X obj 26 55 inlet;
#X obj 26 174 outlet;
#X obj 26 149 clip 0 1;
#X obj 26 94 datapressor05;
#X obj 26 125 datapressor05;
#X connect 0 0 3 0;
#X connect 2 0 1 0;
#X connect 3 0 4 0;
#X connect 4 0 2 0;
#X restore 15 205 pd pressor;
#X obj 111 61 r endThrow;
#X obj 121 81 loadbang;
#X obj 15 61 r yaw;
#X obj 57 61 r throw;
#X obj 135 127 r trajectory;
#X obj 135 179 spigot;
#X msg 168 156 1;
#X msg 197 156 0;
#X obj 57 83 t b b;
#X obj 111 103 t b b;
#X obj 51 296 s currentPosition;
#N canvas 0 22 638 308 distanceCalculation 0;
#X obj 92 29 inlet;
#X obj 92 119 - 0.5;
#X msg 92 74 \$1 1;
#X obj 92 96 -;
#X obj 95 51 hsl 128 15 0 1 0 0 empty empty empty -2 -8 0 10 -262144
-1 -1 0 1;
#X obj 92 157 classToCart 1;
#X obj 137 122 r roomX;
#X obj 187 122 r roomY;
#X floatatom 92 238 5 0 0 0 CH_4 - -, f 5;
#X floatatom 274 238 5 0 0 0 CH_2 - -, f 5;
#X obj 92 179 t a a a a, f 46;
#X floatatom 229 151 5 0 0 0 - - -, f 5;
#X floatatom 189 151 5 0 0 0 - - -, f 5;
#X obj 92 257 outlet;
#X obj 274 257 outlet;
#X obj 92 216 distance1 1 0;
#X floatatom 365 238 5 0 0 0 CH_3 - -, f 5;
#X obj 365 257 outlet;
#X floatatom 184 239 5 0 0 0 CH_1 - -, f 5;
#X obj 184 258 outlet;
#X obj 274 216 distance1 1 1;
#X obj 365 217 distance1 0 0;
#X obj 183 217 distance1 0 1;
#X connect 0 0 4 0;
#X connect 1 0 5 0;
#X connect 2 0 3 0;
#X connect 3 0 1 0;
#X connect 4 0 2 0;
#X connect 5 0 10 0;
#X connect 6 0 5 2;
#X connect 6 0 12 0;
#X connect 7 0 5 3;
#X connect 7 0 11 0;
#X connect 8 0 13 0;
#X connect 9 0 14 0;
#X connect 10 0 15 0;
#X connect 10 1 22 0;
#X connect 10 2 20 0;
#X connect 10 3 21 0;
#X connect 15 0 8 0;
#X connect 16 0 17 0;
#X connect 18 0 19 0;
#X connect 20 0 9 0;
#X connect 21 0 16 0;
#X connect 22 0 18 0;
#X restore 15 322 pd distanceCalculation;
#X obj 12 12 declare -path abstraction/audio;
#X obj 15 456 throw~ out-3;
#X obj 58 433 throw~ out-1;
#X obj 101 403 throw~ out-2;
#X obj 144 374 throw~ out-4;
#X obj 15 429 ch 3;
#X obj 144 347 ch 4;
#X obj 101 375 ch 2;
#X obj 58 404 ch 1;
#X connect 0 0 1 0;
#X connect 0 0 20 0;
#X connect 1 0 21 0;
#X connect 6 0 7 1;
#X connect 7 0 9 0;
#X connect 8 0 7 1;
#X connect 9 0 0 0;
#X connect 10 0 19 0;
#X connect 11 0 19 0;
#X connect 12 0 7 0;
#X connect 13 0 18 0;
#X connect 14 0 15 0;
#X connect 15 0 9 0;
#X connect 16 0 15 1;
#X connect 17 0 15 1;
#X connect 18 0 16 0;
#X connect 18 1 6 0;
#X connect 19 0 8 0;
#X connect 19 1 17 0;
#X connect 21 0 27 0;
#X connect 21 1 30 0;
#X connect 21 2 29 0;
#X connect 21 3 28 0;
#X connect 27 0 23 0;
#X connect 28 0 26 0;
#X connect 29 0 25 0;
#X connect 30 0 24 0;
#X coords 0 -1 1 1 150 70 1 10 245;
