#N canvas 214 72 579 546 10;
#X declare -path abstraction/audio;
#X obj 18 285 hsl 128 15 0 1 0 0 empty empty empty -2 -8 0 10 -262144
-1 -1 2122 1;
#X floatatom 15 325 5 0 0 0 - - -, f 5;
#X text 55 299 1;
#X text 98 299 2;
#X text 138 299 4;
#X text 18 299 3;
#X msg 48 176 0;
#X obj 15 199 spigot;
#X msg 79 175 1;
#N canvas 347 156 451 351 pressor 0;
#X obj 26 55 inlet;
#X obj 26 174 outlet;
#X obj 26 149 clip 0 1;
#X obj 26 94 datapressor05;
#X obj 26 125 datapressor05;
#X connect 0 0 3 0;
#X connect 2 0 1 0;
#X connect 3 0 4 0;
#X connect 4 0 2 0;
#X restore 15 225 pd pressor;
#X obj 111 81 r endThrow;
#X obj 121 101 loadbang;
#X obj 15 81 r yaw;
#N canvas 0 22 155 203 dataAnalisis 0;
#X obj 24 72 s reset-1;
#X obj 41 92 s reset-2;
#X obj 58 112 s reset-3;
#X obj 75 132 s reset-4;
#X obj 24 46 t b b b b;
#X obj 24 19 inlet;
#X connect 4 0 0 0;
#X connect 4 1 1 0;
#X connect 4 2 2 0;
#X connect 4 3 3 0;
#X connect 5 0 4 0;
#X restore 444 198 pd dataAnalisis;
#X obj 444 173 bng 15 250 50 0 empty empty empty 17 7 0 10 -262144
-1 -1;
#X obj 57 81 r throw;
#X obj 135 147 r trajectory;
#X obj 135 199 spigot;
#X msg 168 176 1;
#X msg 197 176 0;
#X obj 57 103 t b b;
#X obj 111 123 t b b;
#X obj 184 319 s currentPosition;
#N canvas 0 22 638 308 distanceCalculation 0;
#X obj 92 29 inlet;
#X obj 92 119 - 0.5;
#X msg 92 74 \$1 1;
#X obj 92 96 -;
#X obj 95 51 hsl 128 15 0 1 0 0 empty empty empty -2 -8 0 10 -262144
-1 -1 2122 1;
#X obj 92 157 classToCart 1;
#X obj 137 122 r roomX;
#X obj 187 122 r roomY;
#X floatatom 92 238 5 0 0 0 CH_4 - -, f 5;
#X floatatom 274 238 5 0 0 0 CH_2 - -, f 5;
#X obj 92 179 t a a a a, f 46;
#X floatatom 229 151 5 0 0 0 - - -, f 5;
#X floatatom 189 151 5 0 0 0 - - -, f 5;
#X obj 92 257 outlet;
#X obj 274 257 outlet;
#X obj 92 216 distance1 1 0;
#X floatatom 365 238 5 0 0 0 CH_3 - -, f 5;
#X obj 365 257 outlet;
#X floatatom 184 239 5 0 0 0 CH_1 - -, f 5;
#X obj 184 258 outlet;
#X obj 274 216 distance1 1 1;
#X obj 365 217 distance1 0 0;
#X obj 183 217 distance1 0 1;
#X connect 0 0 4 0;
#X connect 1 0 5 0;
#X connect 2 0 3 0;
#X connect 3 0 1 0;
#X connect 4 0 2 0;
#X connect 5 0 10 0;
#X connect 6 0 5 2;
#X connect 6 0 12 0;
#X connect 7 0 5 3;
#X connect 7 0 11 0;
#X connect 8 0 13 0;
#X connect 9 0 14 0;
#X connect 10 0 15 0;
#X connect 10 1 22 0;
#X connect 10 2 20 0;
#X connect 10 3 21 0;
#X connect 15 0 8 0;
#X connect 16 0 17 0;
#X connect 18 0 19 0;
#X connect 20 0 9 0;
#X connect 21 0 16 0;
#X connect 22 0 18 0;
#X restore 15 354 pd distanceCalculation;
#X obj 232 208 hsl 128 15 0 1 0 0 empty empty empty -2 -8 0 10 -262144
-1 -1 0 1;
#X text 269 222 1;
#X text 312 222 2;
#X text 352 222 4;
#X text 232 222 3;
#X obj 12 12 declare -path abstraction/audio;
#X msg 17 125 1 \$1;
#X obj 17 147 -;
#X obj 15 488 throw~ out-3;
#X obj 58 465 throw~ out-1;
#X obj 101 435 throw~ out-2;
#X obj 144 406 throw~ out-4;
#X obj 15 461 ch 3;
#X obj 144 379 ch 4;
#X obj 101 407 ch 2;
#X obj 58 436 ch 1;
#X connect 0 0 1 0;
#X connect 0 0 22 0;
#X connect 1 0 23 0;
#X connect 6 0 7 1;
#X connect 7 0 9 0;
#X connect 8 0 7 1;
#X connect 9 0 0 0;
#X connect 10 0 21 0;
#X connect 11 0 21 0;
#X connect 12 0 30 0;
#X connect 12 0 7 0;
#X connect 14 0 13 0;
#X connect 15 0 20 0;
#X connect 16 0 17 0;
#X connect 17 0 9 0;
#X connect 18 0 17 1;
#X connect 19 0 17 1;
#X connect 20 0 18 0;
#X connect 20 1 6 0;
#X connect 21 0 8 0;
#X connect 21 1 19 0;
#X connect 23 0 36 0;
#X connect 23 1 39 0;
#X connect 23 2 38 0;
#X connect 23 3 37 0;
#X connect 24 0 9 0;
#X connect 30 0 31 0;
#X connect 36 0 32 0;
#X connect 37 0 35 0;
#X connect 38 0 34 0;
#X connect 39 0 33 0;
#X coords 0 -1 1 1 150 70 1 10 245;
