#N canvas 0 22 450 300 10;
#X obj 17 45 i;
#X obj 17 67 clip 0 255;
#X obj 17 89 change;
#X obj 17 22 inlet;
#X obj 17 111 outlet;
#X connect 0 0 1 0;
#X connect 1 0 2 0;
#X connect 2 0 4 0;
#X connect 3 0 0 0;
