#N canvas 149 451 452 355 10;
#X obj 50 54 inlet~;
#X obj 50 86 lop~ 250;
#X obj 111 85 bp~ 500;
#X obj 173 85 hip~ 1000;
#X obj 50 108 env~;
#X obj 111 107 env~;
#X obj 173 107 env~;
#X obj 50 130 dbtorms;
#X obj 111 130 dbtorms;
#X obj 173 130 dbtorms;
#X obj 50 152 * 255;
#X obj 50 174 int;
#X obj 111 152 * 255;
#X obj 111 174 int;
#X obj 173 152 * 255;
#X obj 173 174 int;
#X floatatom 50 196 5 0 0 0 - - -, f 5;
#X floatatom 111 196 5 0 0 0 - - -, f 5;
#X floatatom 173 196 5 0 0 0 - - -, f 5;
#X obj 50 238 list prepend led\$1;
#X obj 50 260 list trim;
#X obj 50 282 s LEDs;
#X obj 50 216 pack f f f f, f 21;
#X obj 255 86 env~;
#X obj 255 131 dbtorms;
#X obj 255 153 * 255;
#X obj 255 175 int;
#X floatatom 255 197 5 0 0 0 - - -, f 5;
#X connect 0 0 1 0;
#X connect 0 0 2 0;
#X connect 0 0 3 0;
#X connect 0 0 23 0;
#X connect 1 0 4 0;
#X connect 2 0 5 0;
#X connect 3 0 6 0;
#X connect 4 0 7 0;
#X connect 5 0 8 0;
#X connect 6 0 9 0;
#X connect 7 0 10 0;
#X connect 8 0 12 0;
#X connect 9 0 14 0;
#X connect 10 0 11 0;
#X connect 11 0 16 0;
#X connect 12 0 13 0;
#X connect 13 0 17 0;
#X connect 14 0 15 0;
#X connect 15 0 18 0;
#X connect 16 0 22 0;
#X connect 17 0 22 1;
#X connect 18 0 22 2;
#X connect 19 0 20 0;
#X connect 20 0 21 0;
#X connect 22 0 19 0;
#X connect 23 0 24 0;
#X connect 24 0 25 0;
#X connect 25 0 26 0;
#X connect 26 0 27 0;
#X connect 27 0 22 3;
