#N canvas 464 139 245 247 10;
#X declare -path abstraction/generics;
#X obj 17 10 declare -path abstraction/generics;
#X obj 18 174 s \$2-br;
#X obj 18 45 r distance-\$1;
#N canvas 0 23 291 451 distanceBrMapping 0;
#X msg 98 136 1 \$1;
#X floatatom 71 87 5 0 0 0 - - -, f 5;
#X obj 98 158 /;
#X floatatom 98 180 5 0 0 0 - - -, f 5;
#X obj 98 199 * 255;
#X floatatom 98 221 5 0 0 0 - - -, f 5;
#X obj 44 35 t f f;
#X obj 44 256 *;
#X obj 71 106 t f f;
#X obj 44 190 abs;
#X obj 44 300 clip 0 255;
#X obj 44 322 i;
#X floatatom 44 344 5 0 0 0 - - -, f 5;
#X obj 44 370 outlet;
#X obj 44 13 inlet;
#X obj 44 149 -;
#X obj 71 65 findmax;
#X obj 44 278 + 40;
#X connect 0 0 2 0;
#X connect 1 0 8 0;
#X connect 2 0 3 0;
#X connect 3 0 4 0;
#X connect 4 0 5 0;
#X connect 5 0 7 1;
#X connect 6 0 15 0;
#X connect 6 1 16 0;
#X connect 7 0 17 0;
#X connect 8 0 15 1;
#X connect 8 1 0 0;
#X connect 9 0 7 0;
#X connect 10 0 11 0;
#X connect 11 0 12 0;
#X connect 12 0 13 0;
#X connect 14 0 6 0;
#X connect 15 0 9 0;
#X connect 16 0 1 0;
#X connect 17 0 10 0;
#X restore 18 68 pd distanceBrMapping;
#N canvas 0 22 243 231 strobo 0;
#X obj 118 6 r stroboIntesity\$1;
#X obj 12 8 inlet;
#X obj 12 165 +;
#X floatatom 12 187 5 0 0 0 - - -, f 5;
#X obj 12 206 outlet;
#X obj 12 33 normalizer 2 180;
#X obj 118 33 normalizer 2 75;
#X obj 118 55 i;
#X obj 118 107 random;
#X obj 118 77 t b f;
#X floatatom 118 129 5 0 0 0 - - -, f 5;
#X connect 0 0 6 0;
#X connect 1 0 5 0;
#X connect 2 0 3 0;
#X connect 3 0 4 0;
#X connect 5 0 2 0;
#X connect 6 0 7 0;
#X connect 7 0 9 0;
#X connect 8 0 10 0;
#X connect 9 0 8 0;
#X connect 9 1 8 1;
#X connect 10 0 2 1;
#X restore 18 99 pd strobo;
#N canvas 0 22 164 189 delay 0;
#X obj 17 93 pack f f, f 9;
#X floatatom 68 48 5 0 0 0 - - -, f 5;
#X obj 68 26 r br-t-\$1;
#X obj 17 32 inlet;
#X obj 17 115 line 0 0;
#X obj 17 137 outlet;
#X obj 68 67 * 2.5;
#X connect 0 0 4 0;
#X connect 1 0 6 0;
#X connect 2 0 1 0;
#X connect 3 0 0 0;
#X connect 4 0 5 0;
#X connect 6 0 0 1;
#X restore 18 125 pd delay;
#N canvas 0 22 714 377 lightsOnOff 0;
#X obj 24 60 inlet;
#X obj 220 93 sel 1 0;
#X obj 23 201 spigot;
#X obj 260 176 f;
#X obj 216 133 t b b;
#X msg 216 187 1;
#X obj 377 89 t b b;
#X obj 375 166 f;
#X msg 411 111 0;
#X obj 292 132 t f f;
#X obj 220 28 r lightOnOff;
#X obj 216 155 delay 500;
#X obj 23 269 outlet;
#X msg 260 222 0 \, \$1 500;
#X msg 376 212 \$1 \, 0 500;
#X floatatom 272 268 5 0 0 0 - - -, f 5;
#X obj 260 244 line 0 0;
#X obj 375 234 line 0 0;
#X obj 24 82 t f f;
#X connect 0 0 18 0;
#X connect 1 0 4 0;
#X connect 1 1 6 0;
#X connect 2 0 12 0;
#X connect 3 0 13 0;
#X connect 4 0 11 0;
#X connect 4 1 3 0;
#X connect 5 0 2 1;
#X connect 6 0 7 0;
#X connect 6 1 8 0;
#X connect 7 0 14 0;
#X connect 8 0 2 1;
#X connect 9 0 3 1;
#X connect 9 1 7 1;
#X connect 10 0 1 0;
#X connect 11 0 5 0;
#X connect 13 0 16 0;
#X connect 14 0 17 0;
#X connect 16 0 12 0;
#X connect 16 0 15 0;
#X connect 17 0 12 0;
#X connect 17 0 15 0;
#X connect 18 0 2 0;
#X connect 18 1 9 0;
#X restore 18 154 pd lightsOnOff;
#X connect 2 0 3 0;
#X connect 3 0 4 0;
#X connect 4 0 5 0;
#X connect 5 0 6 0;
#X connect 6 0 1 0;
