#N canvas 151 318 337 447 10;
#X obj 19 235 +;
#X obj 19 257 f;
#X obj 19 279 t f f;
#X obj 62 150 bng 15 250 50 0 empty empty wipe 17 7 0 10 -262144 -1
-1;
#X obj 62 194 t f f f;
#X obj 19 193 f 1;
#X obj 19 150 bng 15 250 50 0 empty empty cut 17 7 0 10 -262144 -1
-1;
#X obj 62 172 f 0;
#X obj 19 301 clip 1 4;
#X floatatom 19 323 5 0 0 1 slices - -, f 5;
#N canvas 125 243 431 367 twoSlices 0;
#X obj 291 65 inlet;
#N canvas 24 23 338 482 switch 0;
#X obj 29 55 random 16;
#X obj 29 31 bng 15 250 50 0 empty empty empty 17 7 0 10 -262144 -1
-1;
#X obj 29 77 sel 0 1 2 3 4 5 6 7 8 9 10 11 12 13 14 15;
#X msg 29 99 1 2 3 4;
#X msg 89 179 1 2 3 4;
#X msg 104 199 2 1 3 4;
#X msg 120 219 1 3 2 4;
#X msg 135 239 1 4 3 2;
#X msg 44 119 2 1 3 4;
#X msg 59 139 3 2 1 4;
#X msg 74 159 4 2 3 1;
#X msg 180 299 1 2 3 4;
#X msg 150 259 3 2 1 4;
#X msg 165 279 1 3 2 4;
#X msg 196 320 1 2 4 3;
#X msg 256 399 1 2 3 4;
#X msg 211 339 4 2 3 1;
#X msg 226 359 1 4 3 2;
#X msg 241 379 1 2 4 3;
#X obj 29 452 outlet;
#X obj 29 7 inlet;
#X connect 0 0 2 0;
#X connect 1 0 0 0;
#X connect 2 0 3 0;
#X connect 2 1 8 0;
#X connect 2 2 9 0;
#X connect 2 3 10 0;
#X connect 2 4 4 0;
#X connect 2 5 5 0;
#X connect 2 6 6 0;
#X connect 2 7 7 0;
#X connect 2 8 12 0;
#X connect 2 9 13 0;
#X connect 2 10 11 0;
#X connect 2 11 14 0;
#X connect 2 12 16 0;
#X connect 2 13 17 0;
#X connect 2 14 18 0;
#X connect 2 15 15 0;
#X connect 3 0 19 0;
#X connect 4 0 19 0;
#X connect 5 0 19 0;
#X connect 6 0 19 0;
#X connect 7 0 19 0;
#X connect 8 0 19 0;
#X connect 9 0 19 0;
#X connect 10 0 19 0;
#X connect 11 0 19 0;
#X connect 12 0 19 0;
#X connect 13 0 19 0;
#X connect 14 0 19 0;
#X connect 15 0 19 0;
#X connect 16 0 19 0;
#X connect 17 0 19 0;
#X connect 18 0 19 0;
#X connect 20 0 1 0;
#X restore 291 128 pd switch;
#X obj 291 152 unpack f f f f;
#X text 28 13 when the sound it's cut in two slices the sound is divided
bewteen the low and high spectrum.;
#X msg 136 117 0;
#X msg 167 117 5;
#X obj 136 139 ../generics/through;
#X obj 291 87 sel 0 5 2;
#X obj 136 161 t f f f f;
#X obj 17 199 selChLow 200;
#X obj 197 199 selChHigh 300;
#X obj 297 199 selChHigh 300;
#X obj 107 199 selChLow 200;
#X connect 0 0 7 0;
#X connect 1 0 2 0;
#X connect 2 0 9 0;
#X connect 2 1 12 0;
#X connect 2 2 10 0;
#X connect 2 3 11 0;
#X connect 4 0 6 0;
#X connect 5 0 6 0;
#X connect 6 0 8 0;
#X connect 7 0 4 0;
#X connect 7 1 5 0;
#X connect 7 2 1 0;
#X connect 8 0 9 0;
#X connect 8 1 12 0;
#X connect 8 2 10 0;
#X connect 8 3 11 0;
#X restore 19 407 pd twoSlices;
#N canvas 26 61 431 367 threeSlices 0;
#X obj 264 45 inlet;
#N canvas 24 23 338 482 switch 0;
#X obj 29 55 random 16;
#X obj 29 31 bng 15 250 50 0 empty empty empty 17 7 0 10 -262144 -1
-1;
#X obj 29 77 sel 0 1 2 3 4 5 6 7 8 9 10 11 12 13 14 15;
#X msg 29 99 1 2 3 4;
#X msg 89 179 1 2 3 4;
#X msg 104 199 2 1 3 4;
#X msg 120 219 1 3 2 4;
#X msg 135 239 1 4 3 2;
#X msg 44 119 2 1 3 4;
#X msg 59 139 3 2 1 4;
#X msg 74 159 4 2 3 1;
#X msg 180 299 1 2 3 4;
#X msg 150 259 3 2 1 4;
#X msg 165 279 1 3 2 4;
#X msg 196 320 1 2 4 3;
#X msg 256 399 1 2 3 4;
#X msg 211 339 4 2 3 1;
#X msg 226 359 1 4 3 2;
#X msg 241 379 1 2 4 3;
#X obj 29 452 outlet;
#X obj 29 7 inlet;
#X connect 0 0 2 0;
#X connect 1 0 0 0;
#X connect 2 0 3 0;
#X connect 2 1 8 0;
#X connect 2 2 9 0;
#X connect 2 3 10 0;
#X connect 2 4 4 0;
#X connect 2 5 5 0;
#X connect 2 6 6 0;
#X connect 2 7 7 0;
#X connect 2 8 12 0;
#X connect 2 9 13 0;
#X connect 2 10 11 0;
#X connect 2 11 14 0;
#X connect 2 12 16 0;
#X connect 2 13 17 0;
#X connect 2 14 18 0;
#X connect 2 15 15 0;
#X connect 3 0 19 0;
#X connect 4 0 19 0;
#X connect 5 0 19 0;
#X connect 6 0 19 0;
#X connect 7 0 19 0;
#X connect 8 0 19 0;
#X connect 9 0 19 0;
#X connect 10 0 19 0;
#X connect 11 0 19 0;
#X connect 12 0 19 0;
#X connect 13 0 19 0;
#X connect 14 0 19 0;
#X connect 15 0 19 0;
#X connect 16 0 19 0;
#X connect 17 0 19 0;
#X connect 18 0 19 0;
#X connect 20 0 1 0;
#X restore 291 128 pd switch;
#X obj 291 152 unpack f f f f;
#X text 18 26 when the sound it's cut in two slices the sound is divided
bewteen the low and high spectrum.;
#X msg 136 112 0;
#X msg 167 112 5;
#X obj 136 134 ../generics/through;
#X obj 264 67 sel 0 5 3;
#X obj 136 156 t f f f f;
#X obj 297 199 selChHigh 1000;
#X obj 197 199 selChMid 500;
#X obj 107 199 selChMid 500;
#X obj 17 199 selChLow 200;
#X connect 0 0 7 0;
#X connect 1 0 2 0;
#X connect 2 0 12 0;
#X connect 2 1 11 0;
#X connect 2 2 10 0;
#X connect 2 3 9 0;
#X connect 4 0 6 0;
#X connect 5 0 6 0;
#X connect 6 0 8 0;
#X connect 7 0 4 0;
#X connect 7 1 5 0;
#X connect 7 2 1 0;
#X connect 8 0 12 0;
#X connect 8 1 11 0;
#X connect 8 2 10 0;
#X connect 8 3 9 0;
#X restore 110 407 pd threeSlices;
#N canvas 26 61 431 367 fourSlices 0;
#X obj 234 45 inlet;
#N canvas 24 23 338 482 switch 0;
#X obj 29 55 random 16;
#X obj 29 31 bng 15 250 50 0 empty empty empty 17 7 0 10 -262144 -1
-1;
#X obj 29 77 sel 0 1 2 3 4 5 6 7 8 9 10 11 12 13 14 15;
#X msg 29 99 1 2 3 4;
#X msg 89 179 1 2 3 4;
#X msg 104 199 2 1 3 4;
#X msg 120 219 1 3 2 4;
#X msg 135 239 1 4 3 2;
#X msg 44 119 2 1 3 4;
#X msg 59 139 3 2 1 4;
#X msg 74 159 4 2 3 1;
#X msg 180 299 1 2 3 4;
#X msg 150 259 3 2 1 4;
#X msg 165 279 1 3 2 4;
#X msg 196 320 1 2 4 3;
#X msg 256 399 1 2 3 4;
#X msg 211 339 4 2 3 1;
#X msg 226 359 1 4 3 2;
#X msg 241 379 1 2 4 3;
#X obj 29 452 outlet;
#X obj 29 7 inlet;
#X connect 0 0 2 0;
#X connect 1 0 0 0;
#X connect 2 0 3 0;
#X connect 2 1 8 0;
#X connect 2 2 9 0;
#X connect 2 3 10 0;
#X connect 2 4 4 0;
#X connect 2 5 5 0;
#X connect 2 6 6 0;
#X connect 2 7 7 0;
#X connect 2 8 12 0;
#X connect 2 9 13 0;
#X connect 2 10 11 0;
#X connect 2 11 14 0;
#X connect 2 12 16 0;
#X connect 2 13 17 0;
#X connect 2 14 18 0;
#X connect 2 15 15 0;
#X connect 3 0 19 0;
#X connect 4 0 19 0;
#X connect 5 0 19 0;
#X connect 6 0 19 0;
#X connect 7 0 19 0;
#X connect 8 0 19 0;
#X connect 9 0 19 0;
#X connect 10 0 19 0;
#X connect 11 0 19 0;
#X connect 12 0 19 0;
#X connect 13 0 19 0;
#X connect 14 0 19 0;
#X connect 15 0 19 0;
#X connect 16 0 19 0;
#X connect 17 0 19 0;
#X connect 18 0 19 0;
#X connect 20 0 1 0;
#X restore 291 128 pd switch;
#X obj 291 152 unpack f f f f;
#X text 12 9 when the sound it's cut in two slices the sound is divided
bewteen the low and high spectrum.;
#X obj 234 67 sel 0 5 4;
#X msg 166 107 0;
#X msg 197 107 5;
#X obj 166 129 ../generics/through;
#X obj 166 151 t f f f f;
#X obj 297 199 selChHigh 2000;
#X obj 107 199 selChMid 500;
#X obj 197 199 selChMid 1000;
#X obj 17 199 selChLow 200;
#X connect 0 0 4 0;
#X connect 1 0 2 0;
#X connect 2 0 12 0;
#X connect 2 1 10 0;
#X connect 2 2 11 0;
#X connect 2 3 9 0;
#X connect 4 0 5 0;
#X connect 4 1 6 0;
#X connect 4 2 1 0;
#X connect 5 0 7 0;
#X connect 6 0 7 0;
#X connect 7 0 8 0;
#X connect 8 0 12 0;
#X connect 8 1 10 0;
#X connect 8 2 11 0;
#X connect 8 3 9 0;
#X restore 210 407 pd fourSlices;
#X obj 188 261 switch~;
#X obj 188 182 sel 1 0;
#X obj 225 205 delay 20;
#X obj 92 12 loadbang;
#X obj 19 342 t f f f;
#X obj 138 309 ../generics/through;
#X obj 138 331 t f f f;
#X obj 19 86 t b b;
#X obj 62 89 t b b;
#X obj 62 124 delay 25;
#X obj 188 142 f 1;
#X obj 215 142 f 0;
#X obj 225 228 f 0;
#X obj 188 226 f 1;
#X obj 138 288 f 0;
#X obj 168 288 f 5;
#X obj 92 34 f 7;
#X obj 19 64 sel 3 7 0;
#X obj 19 12 r gesture;
#X connect 0 0 1 0;
#X connect 1 0 2 0;
#X connect 2 0 8 0;
#X connect 2 1 0 1;
#X connect 3 0 7 0;
#X connect 4 0 0 0;
#X connect 4 1 0 1;
#X connect 4 2 1 1;
#X connect 5 0 0 0;
#X connect 6 0 5 0;
#X connect 7 0 4 0;
#X connect 8 0 9 0;
#X connect 9 0 17 0;
#X connect 14 0 26 0;
#X connect 14 0 27 0;
#X connect 14 1 15 0;
#X connect 14 1 28 0;
#X connect 15 0 25 0;
#X connect 16 0 29 0;
#X connect 17 0 10 0;
#X connect 17 1 11 0;
#X connect 17 2 12 0;
#X connect 18 0 19 0;
#X connect 19 0 10 0;
#X connect 19 1 11 0;
#X connect 19 2 12 0;
#X connect 20 0 6 0;
#X connect 20 1 23 0;
#X connect 21 0 22 0;
#X connect 21 1 24 0;
#X connect 22 0 3 0;
#X connect 23 0 14 0;
#X connect 24 0 14 0;
#X connect 25 0 13 0;
#X connect 26 0 13 0;
#X connect 27 0 18 0;
#X connect 28 0 18 0;
#X connect 29 0 30 0;
#X connect 30 0 20 0;
#X connect 30 1 21 0;
#X connect 30 2 21 0;
#X connect 31 0 30 0;
