#N canvas 0 22 594 297 10;
#X floatatom 173 66 5 0 0 0 - - -, f 5;
#X obj 173 85 t f f f f;
#X msg 173 148 1;
#X msg 203 149 0;
#X msg 253 148 1;
#X msg 283 149 0;
#X msg 333 148 1;
#X msg 363 149 0;
#X msg 413 148 1;
#X msg 443 149 0;
#X obj 173 43 inlet;
#X obj 173 126 sel 1;
#X obj 253 126 sel 2;
#X obj 333 126 sel 3;
#X obj 413 126 sel 4;
#X obj 15 147 cyclone/reson~ 1 \$1 20;
#X obj 14 186 gain~ 500;
#X obj 154 186 gain~ 500;
#X obj 284 186 gain~ 500;
#X obj 424 186 gain~ 500;
#X obj 14 208 throw~ crumble-1;
#X obj 154 208 throw~ crumble-2;
#X obj 284 208 throw~ crumble-3;
#X obj 424 208 throw~ crumble-4;
#X obj 15 122 receive~ cut;
#X connect 0 0 1 0;
#X connect 1 0 11 0;
#X connect 1 1 12 0;
#X connect 1 2 13 0;
#X connect 1 3 14 0;
#X connect 2 0 16 1;
#X connect 3 0 16 1;
#X connect 4 0 17 1;
#X connect 5 0 17 1;
#X connect 6 0 18 1;
#X connect 7 0 18 1;
#X connect 8 0 19 1;
#X connect 9 0 19 1;
#X connect 10 0 0 0;
#X connect 11 0 2 0;
#X connect 11 1 3 0;
#X connect 12 0 4 0;
#X connect 12 1 5 0;
#X connect 13 0 6 0;
#X connect 13 1 7 0;
#X connect 14 0 8 0;
#X connect 14 1 9 0;
#X connect 15 0 16 0;
#X connect 15 0 17 0;
#X connect 15 0 18 0;
#X connect 15 0 19 0;
#X connect 16 0 20 0;
#X connect 17 0 21 0;
#X connect 18 0 22 0;
#X connect 19 0 23 0;
#X connect 24 0 15 0;
