#N canvas -1265 -713 845 771 10;
#X obj 157 14 inlet;
#X obj 164 138 spigot;
#X msg 224 133 1 \$1;
#X obj 191 180 spigot;
#X obj 197 98 t f f;
#X obj 157 36 t f f f;
#X floatatom 164 160 5 0 0 0 - - -, f 5;
#X obj 224 155 -;
#X obj 197 76 < 0.5;
#X obj 253 246 + 1;
#X obj 253 268 log;
#X obj 253 290 + 1;
#X obj 253 312 log;
#X obj 253 340 + 1;
#X obj 253 362 log;
#X obj 253 386 + 1;
#X obj 253 408 log;
#X obj 253 429 + 1;
#X obj 253 451 log;
#X obj 253 471 + 1;
#X obj 253 493 log;
#X obj 253 515 * 8.6053;
#X obj 253 537 - 1.27208;
#X obj 164 224 + 1;
#X obj 164 246 log;
#X obj 164 268 + 1;
#X obj 164 290 log;
#X obj 164 318 + 1;
#X obj 164 340 log;
#X obj 164 364 + 1;
#X obj 164 386 log;
#X obj 164 407 + 1;
#X obj 164 429 log;
#X obj 164 449 + 1;
#X obj 164 471 log;
#X obj 164 493 * 8.6053;
#X obj 164 515 - 1.27208;
#X obj 164 180 - 1;
#X obj 164 202 abs;
#X obj 164 538 expr 1-$f1;
#X obj 164 560 outlet;
#X connect 0 0 5 0;
#X connect 1 0 6 0;
#X connect 2 0 7 0;
#X connect 3 0 9 0;
#X connect 4 0 1 1;
#X connect 4 1 2 0;
#X connect 5 0 1 0;
#X connect 5 1 3 0;
#X connect 5 2 8 0;
#X connect 6 0 37 0;
#X connect 7 0 3 1;
#X connect 8 0 4 0;
#X connect 9 0 10 0;
#X connect 10 0 11 0;
#X connect 11 0 12 0;
#X connect 12 0 13 0;
#X connect 13 0 14 0;
#X connect 14 0 15 0;
#X connect 15 0 16 0;
#X connect 16 0 17 0;
#X connect 17 0 18 0;
#X connect 18 0 19 0;
#X connect 19 0 20 0;
#X connect 20 0 21 0;
#X connect 21 0 22 0;
#X connect 22 0 40 0;
#X connect 23 0 24 0;
#X connect 24 0 25 0;
#X connect 25 0 26 0;
#X connect 26 0 27 0;
#X connect 27 0 28 0;
#X connect 28 0 29 0;
#X connect 29 0 30 0;
#X connect 30 0 31 0;
#X connect 31 0 32 0;
#X connect 32 0 33 0;
#X connect 33 0 34 0;
#X connect 34 0 35 0;
#X connect 35 0 36 0;
#X connect 36 0 39 0;
#X connect 37 0 38 0;
#X connect 38 0 23 0;
#X connect 39 0 40 0;
