#N canvas 287 455 1122 331 10;
#N canvas 262 203 1101 488 map 0;
#X obj 236 400 list trim;
#X text 197 40 Data to Wekinator for gesture recognition;
#X obj 236 378 list prepend map;
#X obj 236 423 s hmm;
#X obj 70 93 t f f;
#X obj 97 113 sel 1;
#X obj 35 203 f;
#X obj 35 175 delay 100;
#X msg 124 162 0;
#X obj 97 135 t b b;
#X obj 70 71 r getMap;
#X obj 124 184 s setRec;
#X msg 21 150 0;
#X obj 35 225 t f f;
#X obj 35 247 metro 30;
#X obj 236 186 spigot;
#X obj 236 164 r data;
#X obj 236 252 t f f;
#X obj 274 252 t f f;
#X obj 236 208 route /rIoT/scaled /myo, f 52;
#X obj 392 299 unpack f f f f f f f f f f f f f f f f f f f f, f 67
;
#X obj 236 230 unpack f f f f, f 20;
#X obj 311 252 t f f;
#X obj 351 252 t f f;
#X obj 236 352 pack f f f f f f f f f f f f f f f f f f f f f f f f
f f f f, f 93;
#X obj 234 295 f;
#N canvas 0 22 411 345 wl 0;
#X obj 38 73 inlet;
#X obj 38 117 outlet;
#X obj 108 123 inlet;
#X obj 108 167 outlet;
#X obj 168 173 inlet;
#X obj 168 217 outlet, f 7;
#X obj 238 223 inlet;
#X obj 238 267 outlet, f 7;
#X obj 38 95 ../generics/deviation;
#X obj 108 145 ../generics/deviation;
#X obj 168 195 ../generics/deviation;
#X obj 238 245 ../generics/deviation;
#X connect 0 0 8 0;
#X connect 2 0 9 0;
#X connect 4 0 10 0;
#X connect 6 0 11 0;
#X connect 8 0 1 0;
#X connect 9 0 3 0;
#X connect 10 0 5 0;
#X connect 11 0 7 0;
#X restore 329 298 pd wl __;
#X connect 0 0 3 0;
#X connect 2 0 0 0;
#X connect 4 0 6 1;
#X connect 4 1 5 0;
#X connect 5 0 9 0;
#X connect 5 1 12 0;
#X connect 6 0 13 0;
#X connect 7 0 6 0;
#X connect 8 0 11 0;
#X connect 9 0 7 0;
#X connect 9 1 8 0;
#X connect 10 0 4 0;
#X connect 12 0 6 0;
#X connect 13 0 14 0;
#X connect 13 1 15 1;
#X connect 14 0 25 0;
#X connect 15 0 19 0;
#X connect 16 0 15 0;
#X connect 17 0 25 1;
#X connect 17 1 26 0;
#X connect 18 0 24 1;
#X connect 18 1 26 1;
#X connect 19 0 21 0;
#X connect 19 1 20 0;
#X connect 20 0 24 8;
#X connect 20 1 24 9;
#X connect 20 2 24 10;
#X connect 20 3 24 11;
#X connect 20 4 24 12;
#X connect 20 5 24 13;
#X connect 20 6 24 14;
#X connect 20 7 24 15;
#X connect 20 8 24 16;
#X connect 20 9 24 17;
#X connect 20 10 24 18;
#X connect 20 11 24 19;
#X connect 20 12 24 20;
#X connect 20 13 24 21;
#X connect 20 14 24 22;
#X connect 20 15 24 23;
#X connect 20 16 24 24;
#X connect 20 17 24 25;
#X connect 20 18 24 26;
#X connect 20 19 24 27;
#X connect 21 0 17 0;
#X connect 21 1 18 0;
#X connect 21 2 22 0;
#X connect 21 3 23 0;
#X connect 22 0 24 2;
#X connect 22 1 26 2;
#X connect 23 0 24 3;
#X connect 23 1 26 3;
#X connect 24 0 2 0;
#X connect 25 0 24 0;
#X connect 26 0 24 4;
#X connect 26 1 24 5;
#X connect 26 2 24 6;
#X connect 26 3 24 7;
#X restore 461 76 pd map;
#X obj 56 272 print 1;
#X obj 88 242 print 2;
#X obj 331 59 bng 20 250 50 0 \$0-saveModel empty Save_model 25 12
1 14 -99865 -4032 -1;
#X obj 12 15 bng 20 250 50 0 \$0-clearModel empty Clear_model 25 12
1 14 -99865 -4032 -1;
#X obj 331 28 bng 20 250 50 0 \$0-loadModel \$0-init Load_model 25
12 1 14 -99865 -4032 -1;
#N canvas 535 444 503 243 model-man 0;
#X obj 13 22 r \$0-loadModel;
#X obj 116 23 r \$0-saveModel;
#X obj 233 21 r \$0-clearModel;
#X obj 116 45 f \$1;
#X obj 13 55 f \$1;
#X msg 233 49 clear;
#X obj 13 211 s hmm;
#X msg 13 93 read /Users/balandinodidonato/PhD/Software/MyoSpat/pd/abstraction/ml/models/dtw-test-3
;
#X msg 116 146 write /Users/balandinodidonato/PhD/Software/MyoSpat/pd/abstraction/ml/models/dtw-test-3
;
#X connect 0 0 4 0;
#X connect 1 0 3 0;
#X connect 2 0 5 0;
#X connect 3 0 8 0;
#X connect 4 0 7 0;
#X connect 5 0 6 0;
#X connect 7 0 6 0;
#X connect 8 0 6 0;
#X restore 460 30 pd model-man;
#X msg 32 100 help;
#N canvas 227 139 947 658 train 0;
#X obj 20 533 list trim;
#X obj 42 288 r data;
#X obj 20 256 f;
#X floatatom 35 237 5 0 0 1 gToRecord gToTrain -, f 5;
#X obj 20 511 list prepend add;
#X obj 20 555 s hmm;
#X obj 55 32 t f f;
#X obj 82 52 sel 1;
#X obj 20 142 f;
#X obj 30 114 delay 100;
#X msg 109 101 0;
#X obj 82 74 t b b;
#X obj 55 10 r getRec;
#X obj 109 123 s setMap;
#X msg 20 84 0;
#X obj 251 22 r getRec;
#X obj 324 150 s hmm;
#X msg 324 69 record \$1;
#X obj 251 70 sel 0;
#X obj 251 44 t f f;
#X obj 251 92 delay 200;
#X msg 251 114 train;
#X obj 20 214 spigot;
#X obj 42 310 spigot;
#X obj 20 164 t f f f, f 11;
#X obj 20 192 metro 25;
#X obj 42 356 unpack f f f f;
#X obj 20 407 pack f f f f f f f f f f f f f f f f f f f f f f f f
f, f 85;
#X obj 130 378 unpack f f f f f f f f f f f f f f f f f f f f, f 67
;
#X obj 42 333 route /rIoT/raw /myo, f 30;
#X obj 637 254 spigot;
#X obj 637 232 r data;
#X obj 637 320 t f f;
#X obj 675 320 t f f;
#X obj 637 276 route /rIoT/scaled /myo, f 52;
#X obj 793 367 unpack f f f f f f f f f f f f f f f f f f f f, f 67
;
#X obj 637 298 unpack f f f f, f 20;
#X obj 712 320 t f f;
#X obj 752 320 t f f;
#N canvas 0 22 411 345 wl 0;
#X obj 38 73 inlet;
#X obj 38 117 outlet;
#X obj 108 123 inlet;
#X obj 108 167 outlet;
#X obj 168 173 inlet;
#X obj 168 217 outlet, f 7;
#X obj 238 223 inlet;
#X obj 238 267 outlet, f 7;
#X obj 38 95 ../generics/deviation;
#X obj 108 145 ../generics/deviation;
#X obj 168 195 ../generics/deviation;
#X obj 238 245 ../generics/deviation;
#X connect 0 0 8 0;
#X connect 2 0 9 0;
#X connect 4 0 10 0;
#X connect 6 0 11 0;
#X connect 8 0 1 0;
#X connect 9 0 3 0;
#X connect 10 0 5 0;
#X connect 11 0 7 0;
#X restore 734 367 pd wl __;
#X obj 637 420 pack f f f f f f f f f f f f f f f f f f f f f f f f
f f f f, f 93;
#X floatatom 706 454 5 0 0 1 gToRecord gToTrain -, f 5;
#X obj 637 517 list trim;
#X obj 637 495 list prepend add;
#X obj 637 539 s hmm;
#X obj 637 475 list prepend;
#X obj 689 546 print;
#X connect 0 0 5 0;
#X connect 1 0 23 0;
#X connect 2 0 27 0;
#X connect 3 0 2 1;
#X connect 4 0 0 0;
#X connect 6 0 8 1;
#X connect 6 1 7 0;
#X connect 7 0 11 0;
#X connect 7 1 14 0;
#X connect 8 0 24 0;
#X connect 9 0 8 0;
#X connect 10 0 13 0;
#X connect 11 0 9 0;
#X connect 11 1 10 0;
#X connect 12 0 6 0;
#X connect 14 0 8 0;
#X connect 15 0 19 0;
#X connect 17 0 16 0;
#X connect 18 0 20 0;
#X connect 19 0 18 0;
#X connect 19 1 17 0;
#X connect 20 0 21 0;
#X connect 21 0 16 0;
#X connect 22 0 2 0;
#X connect 23 0 29 0;
#X connect 24 0 25 0;
#X connect 24 1 22 1;
#X connect 24 2 23 1;
#X connect 24 2 30 1;
#X connect 25 0 22 0;
#X connect 26 0 27 1;
#X connect 26 1 27 2;
#X connect 26 2 27 3;
#X connect 26 3 27 4;
#X connect 28 0 27 5;
#X connect 28 1 27 6;
#X connect 28 2 27 7;
#X connect 28 3 27 8;
#X connect 28 4 27 9;
#X connect 28 5 27 10;
#X connect 28 6 27 11;
#X connect 28 7 27 12;
#X connect 28 8 27 13;
#X connect 28 9 27 14;
#X connect 28 10 27 15;
#X connect 28 11 27 16;
#X connect 28 12 27 17;
#X connect 28 13 27 18;
#X connect 28 14 27 19;
#X connect 28 15 27 20;
#X connect 28 16 27 21;
#X connect 28 17 27 22;
#X connect 28 18 27 23;
#X connect 28 19 27 24;
#X connect 29 0 26 0;
#X connect 29 1 28 0;
#X connect 30 0 34 0;
#X connect 31 0 30 0;
#X connect 32 0 40 0;
#X connect 32 1 39 0;
#X connect 33 0 40 1;
#X connect 33 1 39 1;
#X connect 34 0 36 0;
#X connect 34 1 35 0;
#X connect 35 0 40 8;
#X connect 35 1 40 9;
#X connect 35 2 40 10;
#X connect 35 3 40 11;
#X connect 35 4 40 12;
#X connect 35 5 40 13;
#X connect 35 6 40 14;
#X connect 35 7 40 15;
#X connect 35 8 40 16;
#X connect 35 9 40 17;
#X connect 35 10 40 18;
#X connect 35 11 40 19;
#X connect 35 12 40 20;
#X connect 35 13 40 21;
#X connect 35 14 40 22;
#X connect 35 15 40 23;
#X connect 35 16 40 24;
#X connect 35 17 40 25;
#X connect 35 18 40 26;
#X connect 35 19 40 27;
#X connect 36 0 32 0;
#X connect 36 1 33 0;
#X connect 36 2 37 0;
#X connect 36 3 38 0;
#X connect 37 0 40 2;
#X connect 37 1 39 2;
#X connect 38 0 40 3;
#X connect 38 1 39 3;
#X connect 39 0 40 4;
#X connect 39 1 40 5;
#X connect 39 2 40 6;
#X connect 39 3 40 7;
#X connect 40 0 45 0;
#X connect 41 0 45 1;
#X connect 42 0 44 0;
#X connect 42 0 46 0;
#X connect 43 0 42 0;
#X connect 45 0 43 0;
#X restore 461 54 pd train;
#X obj 91 84 loadbang;
#X obj 917 37 bng 80 250 50 0 calibrate empty CALIBRATE_rIoT -20 -15
0 15 -261234 -261234 -1;
#N canvas 0 22 492 297 osc-rIoT 0;
#X msg 9 64 port 8888;
#X obj 9 109 mrpeach/unpackOSC;
#X obj 9 136 mrpeach/pipelist;
#X obj 9 162 mrpeach/routeOSC /0/raw /0/quat /0/euler /0/analog;
#X obj 9 86 iemnet/udpreceive 8888;
#X obj 9 43 loadbang;
#X obj 157 240 s data;
#X obj 157 210 list trim;
#X text 13 14 Incoming data from rIoT board.;
#X obj 157 188 list prepend /rIoT/raw;
#X connect 0 0 4 0;
#X connect 1 0 2 0;
#X connect 1 1 2 1;
#X connect 2 0 3 0;
#X connect 3 2 9 0;
#X connect 4 0 1 0;
#X connect 5 0 0 0;
#X connect 7 0 6 0;
#X connect 9 0 7 0;
#X restore 917 123 pd osc-rIoT;
#N canvas 0 22 552 459 scale-rIoT 0;
#X obj 215 160 + 180;
#X obj 215 274 + 0, f 4;
#X obj 215 318 mod 360;
#X obj 236 206 f;
#X obj 236 252 -;
#X obj 236 182 r calibrate;
#X obj 215 136 i;
#X msg 236 230 360 \$1;
#X obj 115 160 + 180;
#X obj 115 274 + 0, f 4;
#X obj 136 206 f;
#X obj 136 252 -;
#X obj 136 182 r calibrate;
#X obj 115 136 i;
#X msg 136 230 360 \$1;
#X obj 15 160 + 180;
#X obj 36 206 f;
#X obj 36 252 -;
#X obj 36 182 r calibrate;
#X obj 15 136 i;
#X msg 36 230 360 \$1;
#X obj 215 296 - 180;
#X obj 215 340 / 360;
#X obj 115 318 mod 360;
#X obj 115 296 - 180;
#X obj 115 340 / 360;
#X obj 15 318 mod 360;
#X obj 15 296 - 180;
#X obj 15 340 / 360;
#X obj 15 273 + 0, f 4;
#X obj 15 416 s data;
#X obj 15 58 r data;
#X text 16 28 Scale from raw to 0-1.;
#X floatatom 280 328 5 0 0 0 - - -, f 5;
#X obj 15 80 route /rIoT/raw;
#X obj 15 108 unpack f f f f;
#X obj 335 160 + 180;
#X obj 335 274 + 0, f 4;
#X obj 335 318 mod 360;
#X obj 356 206 f;
#X obj 356 252 -;
#X obj 356 182 r calibrate;
#X obj 335 136 i;
#X msg 356 230 360 \$1;
#X obj 335 296 - 180;
#X obj 335 340 / 360;
#X obj 15 369 pack f f f f;
#X msg 15 395 /rIoT/scaled \$1 \$2 \$3 \$4;
#X connect 0 0 1 0;
#X connect 0 0 3 1;
#X connect 1 0 21 0;
#X connect 2 0 22 0;
#X connect 3 0 7 0;
#X connect 4 0 1 1;
#X connect 5 0 3 0;
#X connect 6 0 0 0;
#X connect 7 0 4 0;
#X connect 8 0 9 0;
#X connect 8 0 10 1;
#X connect 9 0 24 0;
#X connect 10 0 14 0;
#X connect 11 0 9 1;
#X connect 12 0 10 0;
#X connect 13 0 8 0;
#X connect 14 0 11 0;
#X connect 15 0 16 1;
#X connect 15 0 29 0;
#X connect 16 0 20 0;
#X connect 17 0 29 1;
#X connect 18 0 16 0;
#X connect 19 0 15 0;
#X connect 20 0 17 0;
#X connect 21 0 2 0;
#X connect 22 0 46 2;
#X connect 23 0 25 0;
#X connect 24 0 23 0;
#X connect 25 0 46 1;
#X connect 26 0 28 0;
#X connect 27 0 26 0;
#X connect 28 0 46 0;
#X connect 29 0 27 0;
#X connect 31 0 34 0;
#X connect 33 0 46 0;
#X connect 34 0 35 0;
#X connect 35 0 19 0;
#X connect 35 1 13 0;
#X connect 35 2 6 0;
#X connect 35 3 42 0;
#X connect 36 0 37 0;
#X connect 36 0 39 1;
#X connect 37 0 44 0;
#X connect 38 0 45 0;
#X connect 39 0 43 0;
#X connect 40 0 37 1;
#X connect 41 0 39 0;
#X connect 42 0 36 0;
#X connect 43 0 40 0;
#X connect 44 0 38 0;
#X connect 45 0 46 3;
#X connect 46 0 47 0;
#X connect 47 0 30 0;
#X restore 917 144 pd scale-rIoT;
#N canvas 0 22 492 297 Myo 0;
#X obj 9 109 mrpeach/unpackOSC;
#X obj 9 136 mrpeach/pipelist;
#X obj 9 43 loadbang;
#X obj 9 231 s data;
#X obj 9 208 list trim;
#X text 13 14 Incoming data from rIoT board.;
#X msg 9 64 port 5432;
#X obj 9 86 iemnet/udpreceive 5432;
#X obj 9 161 mrpeach/routeOSC /myo1/all;
#X obj 9 186 list prepend /myo;
#X connect 0 0 1 0;
#X connect 0 1 1 1;
#X connect 1 0 8 0;
#X connect 2 0 6 0;
#X connect 4 0 3 0;
#X connect 6 0 7 0;
#X connect 7 0 0 0;
#X connect 8 0 9 0;
#X connect 9 0 4 0;
#X restore 917 165 pd Myo;
#X obj 710 34 tgl 50 0 getRec setRec Rec_Gesture -5 -12 0 12 -258113
-262144 -1 0 1;
#X floatatom 711 92 5 0 0 1 Gesture_to_record - gToTrain, f 5;
#X obj 638 34 tgl 50 0 getMap setMap Map 15 -12 0 12 -4034 -262144
-1 0 1;
#X obj 91 191 r hmm;
#X msg 91 106 max_num_iterations 1000;
#X obj 643 145 r data;
#X obj 643 189 bng 15 250 50 0 empty empty empty 17 7 0 10 -262144
-1 -1;
#X obj 689 189 bng 15 250 50 0 empty empty empty 17 7 0 10 -262144
-1 -1;
#X obj 643 167 route /rIoT/raw /myo;
#X msg 87 141 num_states 2;
#X msg 87 161 delat 2;
#X obj 56 216 ml.dtw;
#X floatatom 159 270 5 0 0 0 - - -, f 5;
#X connect 7 0 25 0;
#X connect 9 0 18 0;
#X connect 9 0 23 0;
#X connect 17 0 25 0;
#X connect 18 0 25 0;
#X connect 19 0 22 0;
#X connect 22 0 20 0;
#X connect 22 1 21 0;
#X connect 23 0 25 0;
#X connect 24 0 25 0;
#X connect 25 0 1 0;
#X connect 25 0 26 0;
#X connect 25 1 2 0;
