#N canvas 740 117 450 300 10;
#X obj 212 147 <;
#X obj 212 173 sel 1;
#X obj 212 195 f \$1;
#X obj 210 113 r g-\$1;
#X obj 270 114 r gThreshold;
#X obj 212 239 outlet;
#X floatatom 259 233 5 0 0 0 - - -, f 5;
#X floatatom 275 174 5 0 0 0 - - -, f 5;
#X connect 0 0 1 0;
#X connect 1 0 2 0;
#X connect 2 0 5 0;
#X connect 2 0 6 0;
#X connect 3 0 0 0;
#X connect 3 0 7 0;
#X connect 4 0 0 1;
