#N canvas 1064 267 323 295 10;
#X declare -path ../generics;
#N canvas 187 22 531 519 scale-rIoT 0;
#X obj 215 160 + 180;
#X obj 215 274 + 0, f 4;
#X obj 215 318 mod 360;
#X obj 236 206 f;
#X obj 236 252 -;
#X obj 236 182 r calibrate;
#X obj 215 136 i;
#X msg 236 230 360 \$1;
#X obj 115 160 + 180;
#X obj 115 274 + 0, f 4;
#X obj 136 206 f;
#X obj 136 252 -;
#X obj 136 182 r calibrate;
#X obj 115 136 i;
#X msg 136 230 360 \$1;
#X obj 15 160 + 180;
#X obj 36 206 f;
#X obj 36 252 -;
#X obj 36 182 r calibrate;
#X obj 15 136 i;
#X msg 36 230 360 \$1;
#X obj 215 296 - 180;
#X obj 215 340 / 360;
#X obj 115 318 mod 360;
#X obj 115 296 - 180;
#X obj 115 340 / 360;
#X obj 15 318 mod 360;
#X obj 15 296 - 180;
#X obj 15 340 / 360;
#X obj 15 273 + 0, f 4;
#X obj 15 419 s data;
#X obj 15 58 r data;
#X obj 15 80 route /rIoT/raw;
#X obj 15 108 unpack f f f f;
#X obj 315 160 + 180;
#X obj 315 274 + 0, f 4;
#X obj 315 318 mod 360;
#X obj 336 206 f;
#X obj 336 252 -;
#X obj 336 182 r calibrate;
#X obj 315 136 i;
#X msg 336 230 360 \$1;
#X obj 315 296 - 180;
#X obj 315 340 / 360;
#X obj 15 369 pack f f f f;
#X msg 15 395 /rIoT/scaled \$1 \$2 \$3 \$4;
#X obj 216 416 bng 20 250 50 0 calibrate empty CALIBRATE -13 -10 0
10 -262144 -1 -1;
#X text 16 18 Clilbrate current rIoT device data to 0.5 \, and rescale
all data accordingly.;
#X connect 0 0 1 0;
#X connect 0 0 3 1;
#X connect 1 0 21 0;
#X connect 2 0 22 0;
#X connect 3 0 7 0;
#X connect 4 0 1 1;
#X connect 5 0 3 0;
#X connect 6 0 0 0;
#X connect 7 0 4 0;
#X connect 8 0 9 0;
#X connect 8 0 10 1;
#X connect 9 0 24 0;
#X connect 10 0 14 0;
#X connect 11 0 9 1;
#X connect 12 0 10 0;
#X connect 13 0 8 0;
#X connect 14 0 11 0;
#X connect 15 0 16 1;
#X connect 15 0 29 0;
#X connect 16 0 20 0;
#X connect 17 0 29 1;
#X connect 18 0 16 0;
#X connect 19 0 15 0;
#X connect 20 0 17 0;
#X connect 21 0 2 0;
#X connect 22 0 44 2;
#X connect 23 0 25 0;
#X connect 24 0 23 0;
#X connect 25 0 44 1;
#X connect 26 0 28 0;
#X connect 27 0 26 0;
#X connect 28 0 44 0;
#X connect 29 0 27 0;
#X connect 31 0 32 0;
#X connect 32 0 33 0;
#X connect 33 0 19 0;
#X connect 33 1 13 0;
#X connect 33 2 6 0;
#X connect 33 3 40 0;
#X connect 34 0 35 0;
#X connect 34 0 37 1;
#X connect 35 0 42 0;
#X connect 36 0 43 0;
#X connect 37 0 41 0;
#X connect 38 0 35 1;
#X connect 39 0 37 0;
#X connect 40 0 34 0;
#X connect 41 0 38 0;
#X connect 42 0 36 0;
#X connect 43 0 44 3;
#X connect 44 0 45 0;
#X connect 45 0 30 0;
#X coords 0 -1 1 1 60 65 1 200 380;
#X restore 31 153 pd scale-rIoT;
#N canvas 464 23 544 388 Myo 0;
#X obj 9 344 s data;
#X obj 9 321 list trim;
#N canvas 640 165 572 600 toPatch 0;
#X obj 82 286 unpack 0 0 0;
#X obj 162 374 min 1;
#X obj 162 352 max 0;
#X obj 122 374 min 1;
#X obj 122 352 max 0;
#X obj 82 374 min 1;
#X obj 82 352 max 0;
#X obj 122 310 * 2;
#X obj 122 332 - 0.5;
#X obj 82 398 pack f f f;
#X obj 24 16 inlet;
#X obj 326 152 s data;
#X obj 80 472 s data;
#X msg 243 89 myoGyro \$1 \$2 \$3;
#X msg 326 125 emg \$1 \$2 \$3 \$4 \$5 \$6 \$7 \$8;
#X msg 24 471 mav \$1;
#X obj 24 494 s data;
#X obj 24 60 route mav;
#X obj 92 59 route scaled;
#X obj 183 59 route raw;
#X obj 243 59 route raw;
#X obj 24 38 route EMGs orientation acceleration gyro EMG, f 62;
#X obj 326 63 route scaled;
#X msg 167 419 orientation \$1 \$2 \$3;
#X msg 141 244 myoAcc \$1 \$2 \$3;
#X obj 141 265 s data;
#X obj 243 110 s data;
#X msg 80 444 yaw \$1;
#X msg 130 444 pitch \$1;
#X connect 0 0 27 0;
#X connect 0 1 7 0;
#X connect 0 2 2 0;
#X connect 1 0 9 2;
#X connect 2 0 1 0;
#X connect 3 0 9 1;
#X connect 3 0 28 0;
#X connect 4 0 3 0;
#X connect 5 0 9 0;
#X connect 5 0 27 0;
#X connect 6 0 5 0;
#X connect 7 0 8 0;
#X connect 8 0 4 0;
#X connect 9 0 23 0;
#X connect 10 0 21 0;
#X connect 14 0 11 0;
#X connect 15 0 16 0;
#X connect 17 0 15 0;
#X connect 18 0 0 0;
#X connect 19 0 24 0;
#X connect 20 0 13 0;
#X connect 21 0 17 0;
#X connect 21 1 18 0;
#X connect 21 2 19 0;
#X connect 21 3 20 0;
#X connect 21 4 22 0;
#X connect 22 0 14 0;
#X connect 27 0 12 0;
#X connect 28 0 12 0;
#X restore 95 275 pd toPatch;
#X text 13 14 Incoming data from Myo board.;
#X text 178 72 Myo Mapper sends data at the port 5432 \, which then
are sent to Wekinator for gesture recognition and to the internal patch
for sound spatialisation elaboration.;
#X obj 9 299 list prepend myo;
#X obj 9 276 route allEMG;
#X obj 42 167 tgl 15 0 empty gesturalDataIn Gestural_Data 17 7 0 10
-262144 -1 -1 1 1;
#X obj 9 93 loadbang;
#X obj 9 209 oscparse;
#X obj 9 231 list trim;
#X obj 9 254 route myo1;
#X obj 9 188 spigot;
#X msg 9 114 listen 5432;
#X obj 9 136 netreceive -u -b 5432;
#X connect 1 0 0 0;
#X connect 5 0 1 0;
#X connect 6 0 5 0;
#X connect 6 1 2 0;
#X connect 7 0 12 1;
#X connect 8 0 13 0;
#X connect 9 0 10 0;
#X connect 10 0 11 0;
#X connect 11 0 6 0;
#X connect 12 0 9 0;
#X connect 13 0 14 0;
#X connect 14 0 12 0;
#X restore 35 60 pd Myo;
#X obj 118 172 tgl 15 0 gesturalDataIn empty Gestural_Data 17 7 0 10
-262144 -1 -1 1 1;
#X obj 117 191 tgl 15 0 wekinatorConnection empty Wekinator 17 7 0
10 -262144 -1 -1 0 1;
#N canvas 308 303 802 481 gestures 0;
#X obj 27 36 cnv 15 100 20 empty canvas Static_1 20 12 0 14 -262144
-355 0;
#X obj 217 12 loadbang;
#X msg 217 64 \; canvas color 0 0 28 \;;
#X obj 385 442 s canvas;
#X obj 385 420 list trim;
#X obj 385 398 list prepend label;
#X msg 204 218 0;
#X msg 21 235 1;
#X obj 204 240 t f f;
#X msg 360 51 1;
#X obj 204 270 s gestureMapping;
#X obj 217 34 t b b;
#X msg 472 373 PANIC;
#X obj 21 306 through;
#X msg 67 234 2;
#X msg 112 234 3;
#X msg 157 234 4;
#X msg 398 271 Lower_2;
#X msg 412 292 Extend_3;
#X msg 440 332 Cut_5;
#X msg 454 352 Wipe_6;
#X obj 385 224 sel 1 2 3 4 5 6;
#X obj 360 78 s gesture;
#X msg 385 250 Static_1;
#X msg 426 312 Throw_4;
#X obj 21 385 s data;
#X obj 21 329 list prepend gesture;
#X obj 21 141 oscparse;
#X obj 21 163 list trim;
#X obj 21 185 route static lower extend throw;
#X obj 21 207 bng 15 250 50 0 empty empty empty 17 7 0 10 -262144 -1
-1;
#X obj 67 208 bng 15 250 50 0 empty empty empty 17 7 0 10 -262144 -1
-1;
#X obj 112 207 bng 15 250 50 0 empty empty empty 17 7 0 10 -262144
-1 -1;
#X obj 157 208 bng 15 250 50 0 empty empty empty 17 7 0 10 -262144
-1 -1;
#X obj 21 117 netreceive -u -b;
#X msg 21 92 listen 12000;
#X obj 22 63 loadbang;
#X obj 21 351 list trim;
#X obj 576 200 oscparse;
#X obj 576 222 list trim;
#X obj 576 176 netreceive -u -b;
#X msg 576 151 listen 15000;
#X obj 576 244 route svm;
#X obj 576 266 unpack f f;
#X obj 576 288 clip 0 1;
#X obj 644 288 clip 0 1;
#X floatatom 576 310 5 0 0 0 - - -, f 5;
#X floatatom 644 310 5 0 0 0 - - -, f 5;
#X msg 576 329 lower2 \$1;
#X obj 576 351 s data;
#X msg 644 329 extend2 \$1;
#X obj 644 351 s data;
#X obj 576 122 loadbang;
#X connect 1 0 11 0;
#X connect 4 0 3 0;
#X connect 5 0 4 0;
#X connect 6 0 8 0;
#X connect 7 0 13 0;
#X connect 8 0 10 0;
#X connect 8 1 13 0;
#X connect 9 0 22 0;
#X connect 11 0 2 0;
#X connect 11 1 9 0;
#X connect 12 0 5 0;
#X connect 13 0 26 0;
#X connect 13 0 21 0;
#X connect 14 0 13 0;
#X connect 15 0 13 0;
#X connect 16 0 13 0;
#X connect 17 0 5 0;
#X connect 18 0 5 0;
#X connect 19 0 5 0;
#X connect 20 0 5 0;
#X connect 21 0 23 0;
#X connect 21 1 17 0;
#X connect 21 2 18 0;
#X connect 21 3 24 0;
#X connect 21 4 19 0;
#X connect 21 5 20 0;
#X connect 21 6 12 0;
#X connect 23 0 5 0;
#X connect 24 0 5 0;
#X connect 26 0 37 0;
#X connect 27 0 28 0;
#X connect 28 0 29 0;
#X connect 29 0 30 0;
#X connect 29 1 31 0;
#X connect 29 2 32 0;
#X connect 29 3 33 0;
#X connect 30 0 7 0;
#X connect 31 0 14 0;
#X connect 32 0 15 0;
#X connect 33 0 16 0;
#X connect 34 0 27 0;
#X connect 35 0 34 0;
#X connect 36 0 35 0;
#X connect 37 0 25 0;
#X connect 38 0 39 0;
#X connect 39 0 42 0;
#X connect 40 0 38 0;
#X connect 41 0 40 0;
#X connect 42 0 43 0;
#X connect 43 0 44 0;
#X connect 43 1 45 0;
#X connect 44 0 46 0;
#X connect 45 0 47 0;
#X connect 46 0 48 0;
#X connect 47 0 50 0;
#X connect 48 0 49 0;
#X connect 50 0 51 0;
#X connect 52 0 41 0;
#X coords 0 -1 1 1 110 40 1 20 20;
#X restore 31 225 pd gestures;
#N canvas 0 23 511 325 rIoT 0;
#X obj 10 296 s data;
#X obj 10 266 list trim;
#X text 13 14 Incoming data from rIoT board.;
#X obj 9 144 oscparse;
#X obj 10 192 list trim;
#X obj 9 167 list split 1;
#X obj 10 219 route euler;
#X obj 10 244 list prepend /rIoT/raw;
#X msg 8 92 listen 8888;
#X obj 9 64 loadbang;
#X obj 8 117 netreceive -u -b 8888;
#X connect 1 0 0 0;
#X connect 3 0 5 0;
#X connect 4 0 6 0;
#X connect 5 1 4 0;
#X connect 6 0 7 0;
#X connect 7 0 1 0;
#X connect 8 0 10 0;
#X connect 9 0 8 0;
#X connect 10 0 3 0;
#X restore 35 38 pd rIoT;
#X obj 35 12 declare -path ../generics;
#X obj 35 80 packData;
#N canvas 0 24 753 311 send-to-wek 0;
#X msg 71 173 connect 127.0.0.1 6448;
#X msg 354 134 disconnect;
#X obj 285 46 tgl 15 0 empty wekinatorConnection Connect_to_Wekinator
17 7 0 10 -262144 -1 -1 0 1;
#X obj 268 94 sel 1 0;
#X obj 23 105 oscformat wek inputs;
#X obj 23 149 list trim;
#X obj 23 127 list prepend send;
#X text 475 99 test connection status;
#X text 507 119 if test is validated then try to connect every second
;
#X obj 23 200 net/udpsend;
#X obj 23 67 spigot;
#X obj 285 66 t f f;
#X obj 23 23 r data;
#X obj 23 45 route model;
#X msg 215 208 connect 127.0.0.1 7000;
#X obj 23 171 t a a;
#X obj 268 116 t b b;
#X obj 354 156 t a a;
#X connect 0 0 9 0;
#X connect 1 0 17 0;
#X connect 2 0 11 0;
#X connect 3 0 16 0;
#X connect 3 1 1 0;
#X connect 4 0 6 0;
#X connect 5 0 15 0;
#X connect 6 0 5 0;
#X connect 10 0 4 0;
#X connect 11 0 10 1;
#X connect 11 1 3 0;
#X connect 12 0 13 0;
#X connect 13 0 10 0;
#X connect 15 0 9 0;
#X connect 16 0 0 0;
#X connect 16 1 14 0;
#X connect 17 0 9 0;
#X restore 35 102 pd send-to-wek;
#N canvas 500 22 791 277 visualise-GesturalData 0;
#X obj 607 105 vsl 15 128 0 1 0 0 empty empty empty 0 -9 0 10 -4034
-1 -1 0 1;
#X obj 562 105 vsl 15 128 0 1 0 0 empty empty empty 0 -9 0 10 -257985
-1 -1 0 1;
#X obj 580 105 vsl 15 128 0 1 0 0 empty empty empty 0 -9 0 10 -262130
-1 -1 0 1;
#X obj 495 104 vsl 15 128 0 1 0 0 empty empty empty 0 -9 0 10 -261682
-1 -1 0 1;
#X obj 515 104 vsl 15 128 0 1 0 0 empty empty empty 0 -9 0 10 -261682
-1 -1 0 1;
#X obj 535 104 vsl 15 128 0 1 0 0 empty empty empty 0 -9 0 10 -261682
-1 -1 0 1;
#X obj 435 104 vsl 15 128 0 1 0 0 empty empty empty 0 -9 0 10 -260097
-1 -1 0 1;
#X obj 455 104 vsl 15 128 0 1 0 0 empty empty empty 0 -9 0 10 -260097
-1 -1 0 1;
#X obj 475 104 vsl 15 128 0 1 0 0 empty empty empty 0 -9 0 10 -260097
-1 -1 0 1;
#X obj 370 104 vsl 15 128 0 1 0 0 empty empty empty 0 -9 0 10 -261234
-1 -1 0 1;
#X obj 390 104 vsl 15 128 0 1 0 0 empty empty empty 0 -9 0 10 -261234
-1 -1 0 1;
#X obj 410 104 vsl 15 128 0 1 0 0 empty empty empty 0 -9 0 10 -261234
-1 -1 0 1;
#X obj 310 104 vsl 15 128 0 1 0 0 empty empty empty 0 -9 0 10 -258113
-1 -1 0 1;
#X obj 330 104 vsl 15 128 0 1 0 0 empty empty empty 0 -9 0 10 -258113
-1 -1 0 1;
#X obj 350 104 vsl 15 128 0 1 0 0 empty empty empty 0 -9 0 10 -258113
-1 -1 0 1;
#X obj 244 104 vsl 15 128 0 1 0 0 empty empty empty 0 -9 0 10 -228856
-1 -1 0 1;
#X obj 264 104 vsl 15 128 0 1 0 0 empty empty empty 0 -9 0 10 -228856
-1 -1 0 1;
#X obj 284 104 vsl 15 128 0 1 0 0 empty empty empty 0 -9 0 10 -228856
-1 -1 0 1;
#X obj 184 104 vsl 15 128 0 1 0 0 empty empty empty 0 -9 0 10 -128992
-262144 -1 0 1;
#X obj 204 104 vsl 15 128 0 1 0 0 empty empty empty 0 -9 0 10 -128992
-262144 -1 0 1;
#X obj 224 104 vsl 15 128 0 1 0 0 empty empty empty 0 -9 0 10 -128992
-262144 -1 0 1;
#X text 554 236 MAV;
#X text 175 236 orientation;
#X text 326 235 gyro;
#X text 451 234 acc;
#X obj 627 105 vsl 15 128 0 1 0 0 empty empty empty 0 -9 0 10 -4034
-1 -1 0 1;
#X obj 647 105 vsl 15 128 0 1 0 0 empty empty empty 0 -9 0 10 -4034
-1 -1 0 1;
#X obj 667 105 vsl 15 128 0 1 0 0 empty empty empty 0 -9 0 10 -4034
-1 -1 0 1;
#X obj 687 105 vsl 15 128 0 1 0 0 empty empty empty 0 -9 0 10 -4034
-1 -1 0 1;
#X obj 707 105 vsl 15 128 0 1 0 0 empty empty empty 0 -9 0 10 -4034
-1 -1 0 1;
#X obj 727 105 vsl 15 128 0 1 0 0 empty empty empty 0 -9 0 10 -4034
-1 -1 0 1;
#X obj 747 105 vsl 15 128 0 1 0 0 empty empty empty 0 -9 0 10 -4034
-1 -1 0 1;
#X text 258 235 wlf;
#X text 395 235 wlf;
#X text 511 235 wlf;
#X text 577 235 wlf;
#X obj 18 104 vsl 15 128 0 1 0 0 empty empty empty 0 -9 0 10 -4032
-262144 -1 0 1;
#X obj 38 104 vsl 15 128 0 1 0 0 empty empty empty 0 -9 0 10 -4032
-262144 -1 0 1;
#X obj 58 104 vsl 15 128 0 1 0 0 empty empty empty 0 -9 0 10 -4032
-262144 -1 0 1;
#X obj 78 104 vsl 15 128 0 1 0 0 empty empty empty 0 -9 0 10 -4032
-262144 -1 0 1;
#X obj 98 104 vsl 15 128 0 1 0 0 empty empty empty 0 -9 0 10 -204800
-262144 -1 0 1;
#X obj 118 104 vsl 15 128 0 1 0 0 empty empty empty 0 -9 0 10 -204800
-262144 -1 0 1;
#X obj 138 104 vsl 15 128 0 1 0 0 empty empty empty 0 -9 0 10 -204800
-262144 -1 0 1;
#X obj 158 104 vsl 15 128 0 1 0 0 empty empty empty 0 -9 0 10 -204800
-262144 -1 0 1;
#X text 20 237 rIoT oriet;
#X text 118 238 wlf;
#X text 663 236 EMG abs;
#X obj 18 77 unpack f f f f f f f f f f f f f f f f f f f f f f f f
f f f f f f f f f f f f, f 122;
#X obj 18 8 r data;
#X obj 18 51 list trim;
#X obj 18 29 route all;
#X connect 47 0 36 0;
#X connect 47 1 37 0;
#X connect 47 2 38 0;
#X connect 47 3 39 0;
#X connect 47 4 40 0;
#X connect 47 5 41 0;
#X connect 47 6 42 0;
#X connect 47 7 43 0;
#X connect 47 8 18 0;
#X connect 47 9 19 0;
#X connect 47 10 20 0;
#X connect 47 11 15 0;
#X connect 47 12 16 0;
#X connect 47 13 17 0;
#X connect 47 14 12 0;
#X connect 47 15 13 0;
#X connect 47 16 14 0;
#X connect 47 17 9 0;
#X connect 47 18 10 0;
#X connect 47 19 11 0;
#X connect 47 20 6 0;
#X connect 47 21 7 0;
#X connect 47 22 8 0;
#X connect 47 23 3 0;
#X connect 47 24 4 0;
#X connect 47 25 5 0;
#X connect 47 26 1 0;
#X connect 47 27 2 0;
#X connect 47 28 0 0;
#X connect 47 29 25 0;
#X connect 47 30 26 0;
#X connect 47 31 27 0;
#X connect 47 32 28 0;
#X connect 47 33 29 0;
#X connect 47 34 30 0;
#X connect 47 35 31 0;
#X connect 48 0 50 0;
#X connect 49 0 47 0;
#X connect 50 0 49 0;
#X restore 35 124 pd visualise-GesturalData;
#N canvas 254 433 501 345 toAudio 0;
#X msg 304 213 disconnect;
#X obj 261 148 tgl 15 0 empty wekinatorConnection Connect_to_Wekinator
17 7 0 10 -262144 -1 -1 0 1;
#X obj 285 191 sel 1 0;
#X obj 23 239 list trim;
#X obj 23 217 list prepend send;
#X text 58 281 test connection status;
#X text 90 301 if test is validated then try to connect every second
;
#X obj 23 260 net/udpsend;
#X obj 261 168 t f f;
#X msg 160 213 connect 127.0.0.1 6000;
#X obj 28 1 r data;
#X obj 23 195 oscformat data;
#X obj 29 139 list;
#X obj 25 171 spigot;
#X msg 28 115 yaw \$1;
#X msg 64 91 emg \$1 \$2 \$3 \$4 \$5 \$6 \$7 \$8;
#X msg 94 64 mav \$1;
#X msg 150 63 gesture \$1;
#X obj 28 33 route yaw emg mav gesture;
#X obj 292 70 print;
#X obj 297 39 list trim;
#X connect 0 0 7 0;
#X connect 1 0 8 0;
#X connect 2 0 9 0;
#X connect 2 1 0 0;
#X connect 3 0 7 0;
#X connect 4 0 3 0;
#X connect 8 0 13 1;
#X connect 8 1 2 0;
#X connect 9 0 7 0;
#X connect 10 0 18 0;
#X connect 11 0 4 0;
#X connect 12 0 13 0;
#X connect 13 0 11 0;
#X connect 14 0 12 0;
#X connect 15 0 12 0;
#X connect 16 0 12 0;
#X connect 17 0 12 0;
#X connect 17 0 19 0;
#X connect 18 0 14 0;
#X connect 18 1 15 0;
#X connect 18 2 16 0;
#X connect 18 3 17 0;
#X connect 20 0 19 0;
#X restore 200 12 pd toAudio;
