#N canvas 777 347 597 298 10;
#X obj 206 117 bng 30 250 50 0 \$0-model-save empty Save_model 0 -10
1 14 -99865 -4032 -1;
#X obj 204 168 bng 30 250 50 0 \$0-svm empty Clear_model 0 -10 1 14
-99865 -4032 -1;
#X obj 206 67 bng 30 250 50 0 \$0-model-load \$0-loadModel-r Load_model
0 -10 1 14 -99865 -4032 -1;
#N canvas 447 580 782 276 train 0;
#X obj 15 214 list trim;
#X obj 15 192 list prepend;
#X obj 15 238 s \$0-svm;
#X obj 48 41 r mode;
#X msg 48 85 1;
#X msg 111 85 0;
#X obj 48 107 tgl 15 0 empty empty empty 17 7 0 10 -262144 -1 -1 0
1;
#X obj 48 63 route train;
#X obj 15 130 spigot;
#X obj 15 18 r YawPitch;
#X msg 155 157 add \$1;
#X text 163 194 Claean = 1;
#X text 163 207 Extend = 2;
#X text 163 220 Lower = 3;
#X floatatom 155 138 5 0 0 0 g._numb. - -, f 5;
#X obj 74 240 print;
#X obj 439 170 +;
#X floatatom 439 192 5 0 0 0 s.1 - -, f 5;
#X msg 439 148 1;
#X obj 439 125 spigot;
#X obj 515 15 sel 1 2 3;
#X msg 454 92 0;
#X msg 487 92 1;
#X obj 513 171 +;
#X floatatom 513 193 5 0 0 0 s.2 - -, f 5;
#X msg 513 149 1;
#X obj 513 126 spigot;
#X msg 528 93 0;
#X msg 561 93 1;
#X obj 583 173 +;
#X floatatom 583 195 5 0 0 0 s.3 - -, f 5;
#X msg 583 151 1;
#X obj 583 128 spigot;
#X msg 598 95 0;
#X msg 631 95 1;
#X obj 15 160 t a b;
#X obj 375 88 t b b b;
#X obj 665 98 r clear;
#X msg 665 120 0;
#X obj 665 142 t f f f f f f;
#X floatatom 224 125 5 0 0 0 s.1 - -, f 5;
#X floatatom 224 143 5 0 0 0 s.2 - -, f 5;
#X floatatom 224 160 5 0 0 0 s.3 - -, f 5;
#X floatatom 167 60 5 0 0 0 - - -, f 5;
#X connect 0 0 2 0;
#X connect 0 0 15 0;
#X connect 1 0 0 0;
#X connect 3 0 7 0;
#X connect 4 0 6 0;
#X connect 5 0 6 0;
#X connect 6 0 8 1;
#X connect 7 0 4 0;
#X connect 7 1 5 0;
#X connect 8 0 35 0;
#X connect 9 0 8 0;
#X connect 10 0 1 1;
#X connect 14 0 10 0;
#X connect 14 0 20 0;
#X connect 16 0 17 0;
#X connect 17 0 16 1;
#X connect 17 0 40 0;
#X connect 18 0 16 0;
#X connect 19 0 18 0;
#X connect 20 0 22 0;
#X connect 20 0 27 0;
#X connect 20 0 33 0;
#X connect 20 1 28 0;
#X connect 20 1 21 0;
#X connect 20 1 33 0;
#X connect 20 2 34 0;
#X connect 20 2 27 0;
#X connect 20 2 21 0;
#X connect 21 0 19 1;
#X connect 22 0 19 1;
#X connect 23 0 24 0;
#X connect 24 0 23 1;
#X connect 24 0 41 0;
#X connect 25 0 23 0;
#X connect 26 0 25 0;
#X connect 27 0 26 1;
#X connect 28 0 26 1;
#X connect 29 0 30 0;
#X connect 30 0 29 1;
#X connect 30 0 42 0;
#X connect 31 0 29 0;
#X connect 32 0 31 0;
#X connect 33 0 32 1;
#X connect 34 0 32 1;
#X connect 35 0 1 0;
#X connect 35 1 36 0;
#X connect 36 0 19 0;
#X connect 36 1 26 0;
#X connect 36 2 32 0;
#X connect 37 0 38 0;
#X connect 38 0 39 0;
#X connect 39 0 16 0;
#X connect 39 1 16 1;
#X connect 39 2 23 0;
#X connect 39 3 23 1;
#X connect 39 4 29 0;
#X connect 39 5 29 1;
#X connect 43 0 14 0;
#X coords 0 -1 1 1 160 80 1 100 100;
#X restore 22 21 pd train;
#N canvas 157 182 234 205 map 0;
#X obj 12 144 list trim;
#X obj 12 168 s \$0-svm;
#X obj 110 10 r mode;
#X msg 110 54 1;
#X msg 161 54 0;
#X obj 110 76 tgl 15 0 empty empty empty 17 7 0 10 -262144 -1 -1 1
1;
#X obj 12 100 spigot;
#X obj 110 32 route map;
#X obj 12 122 list prepend map;
#X obj 12 48 r YawPitch;
#X connect 0 0 1 0;
#X connect 2 0 7 0;
#X connect 3 0 5 0;
#X connect 4 0 5 0;
#X connect 5 0 6 1;
#X connect 6 0 8 0;
#X connect 7 0 3 0;
#X connect 7 1 4 0;
#X connect 8 0 0 0;
#X connect 9 0 6 0;
#X restore 22 110 pd map;
#X obj 310 271 s mode;
#X msg 310 246 map;
#X obj 452 61 tgl 30 0 empty empty Train 4 -10 0 12 -262144 -1 -1 0
1;
#X msg 531 142 train;
#X obj 531 164 s mode;
#X obj 452 224 s \$0-svm;
#X msg 452 202 train;
#X obj 452 178 delay 500;
#N canvas 582 525 488 243 model 0;
#X obj 175 25 r \$0-model-save;
#X obj 307 23 r \$0-model-clear;
#X obj 12 29 r \$0-model-load;
#X obj 12 206 s \$0-svm;
#X obj 12 165 list trim;
#X msg 175 59 write;
#X msg 12 59 read;
#X msg 307 58 clean;
#X obj 12 99 list append /Users/balandinodidonato/PhD/Software/MyoSpat/pd/abstraction/ml/testSVM2
;
#X connect 0 0 5 0;
#X connect 1 0 7 0;
#X connect 2 0 6 0;
#X connect 4 0 3 0;
#X connect 5 0 8 0;
#X connect 6 0 8 0;
#X connect 7 0 8 0;
#X connect 8 0 4 0;
#X restore 21 132 pd model _____;
#X obj 310 13 loadbang;
#X obj 310 73 tgl 30 0 empty empty Map 4 -10 0 12 -262144 -1 -1 1 1
;
#X obj 335 165 s mode;
#X msg 377 221 train;
#X obj 377 243 s \$0-svm;
#X obj 452 96 sel 0 1;
#X obj 452 118 t b b;
#X msg 484 141 null;
#X msg 335 143 null;
#X obj 310 108 sel 1 0;
#X obj 206 27 loadbang;
#N canvas 627 449 747 408 ml 1;
#X msg 366 103 help;
#X msg 357 25 cross_validation;
#X obj 302 74 r \$0-svm;
#X obj 386 168 list split 1;
#X obj 420 200 unpack f f f f f f;
#X obj 434 231 clip 0 1;
#X floatatom 434 253 5 0 0 0 - - -, f 5;
#X obj 524 231 clip 0 1;
#X floatatom 524 253 5 0 0 0 - - -, f 5;
#X obj 624 231 clip 0 1;
#X floatatom 624 253 5 0 0 0 - - -, f 5;
#X msg 386 70 clear;
#X msg 513 109 num_hidden 1;
#X msg 465 66 probs 1;
#X obj 471 35 loadbang;
#X obj 434 352 s clean;
#X obj 524 352 s extend;
#X obj 624 352 s lower;
#X floatatom 353 147 5 0 0 0 - - -, f 5;
#X obj 108 123 vsl 15 70 0 1 0 0 empty empty empty 0 -9 0 10 -262144
-1 -1 0 1;
#X obj 128 123 vsl 15 70 0 1 0 0 empty empty empty 0 -9 0 10 -262144
-1 -1 0 1;
#X obj 148 123 vsl 15 70 0 1 0 0 empty empty empty 0 -9 0 10 -262144
-1 -1 0 1;
#X obj 388 45 r clear;
#X obj 353 125 ml.svm;
#X obj 434 326 line 0 0;
#X obj 524 326 line 0 0;
#X obj 624 326 line 0 0;
#X msg 434 304 \$1 20;
#X msg 524 304 \$1 20;
#X msg 624 304 \$1 20;
#X obj 435 278 zexy/mavg 15;
#X obj 524 278 zexy/mavg 15;
#X obj 624 278 zexy/mavg 15;
#X obj 85 52 r clean;
#X obj 138 51 r extend;
#X obj 197 51 r lower;
#X connect 0 0 23 0;
#X connect 1 0 23 0;
#X connect 2 0 23 0;
#X connect 3 1 4 0;
#X connect 4 1 5 0;
#X connect 4 3 7 0;
#X connect 4 5 9 0;
#X connect 5 0 6 0;
#X connect 6 0 30 0;
#X connect 7 0 8 0;
#X connect 8 0 31 0;
#X connect 9 0 10 0;
#X connect 10 0 32 0;
#X connect 11 0 23 0;
#X connect 12 0 23 0;
#X connect 13 0 23 0;
#X connect 14 0 13 0;
#X connect 22 0 11 0;
#X connect 23 0 18 0;
#X connect 23 1 3 0;
#X connect 24 0 15 0;
#X connect 25 0 16 0;
#X connect 26 0 17 0;
#X connect 27 0 24 0;
#X connect 28 0 25 0;
#X connect 29 0 26 0;
#X connect 30 0 27 0;
#X connect 31 0 28 0;
#X connect 32 0 29 0;
#X connect 33 0 19 0;
#X connect 34 0 20 0;
#X connect 35 0 21 0;
#X coords 0 -1 1 1 100 100 1 100 100;
#X restore 24 177 pd ml;
#X msg 178 218 clear;
#X obj 180 243 s clear;
#X obj 310 35 t b b;
#X connect 6 0 5 0;
#X connect 7 0 19 0;
#X connect 8 0 9 0;
#X connect 11 0 10 0;
#X connect 12 0 11 0;
#X connect 14 0 28 0;
#X connect 15 0 23 0;
#X connect 17 0 18 0;
#X connect 19 0 20 0;
#X connect 19 1 8 0;
#X connect 20 0 12 0;
#X connect 20 1 21 0;
#X connect 21 0 9 0;
#X connect 22 0 16 0;
#X connect 23 0 6 0;
#X connect 23 1 22 0;
#X connect 24 0 2 0;
#X connect 26 0 27 0;
#X connect 28 0 15 0;
#X connect 28 1 2 0;
#X coords 0 -1 1 1 20 20 1 0 0;
