#N canvas 160 399 1059 370 10;
#X obj 237 116 unpack f f f f f f f f f f f f f f f f f f f f f f f
f f f f f, f 116;
#X obj 31 151 t f f;
#X obj 69 151 t f f;
#X obj 31 129 unpack f f f f, f 20;
#X obj 106 151 t f f;
#X obj 146 151 t f f;
#N canvas 190 311 977 470 wl 0;
#X obj 11 17 inlet;
#X obj 11 160 outlet;
#X obj 101 18 inlet;
#X obj 101 158 outlet;
#X obj 191 21 inlet;
#X obj 281 21 inlet;
#X obj 281 158 outlet, f 7;
#X obj 191 158 outlet, f 7;
#X obj 11 39 deviation;
#X obj 101 40 deviation;
#X obj 191 43 deviation;
#X obj 281 42 deviation;
#X obj 11 138 min 1;
#X obj 101 138 min 1;
#X obj 191 138 min 1;
#X obj 281 138 min 1;
#X obj 101 65 * 8;
#X obj 11 64 * 8;
#X obj 11 116 ramp 10 150;
#X obj 101 116 ramp 10 150;
#X obj 191 116 ramp 10 150;
#X obj 281 116 ramp 10 150;
#X obj 191 64 * 8;
#X obj 281 64 * 8;
#X obj 11 90 datapressor01;
#X obj 101 90 datapressor01;
#X obj 191 90 datapressor01;
#X obj 281 91 datapressor01;
#X obj 390 184 unpack f f f f;
#X obj 395 152 pack f f f f;
#X obj 20 228 dataVisualiser 0;
#X obj 259 227 dataVisualiser 1;
#X obj 492 226 dataVisualiser 2;
#X obj 727 225 dataVisualiser 3;
#X connect 0 0 8 0;
#X connect 2 0 9 0;
#X connect 4 0 10 0;
#X connect 5 0 11 0;
#X connect 8 0 17 0;
#X connect 9 0 16 0;
#X connect 10 0 22 0;
#X connect 11 0 23 0;
#X connect 12 0 1 0;
#X connect 12 0 29 0;
#X connect 13 0 3 0;
#X connect 13 0 29 1;
#X connect 14 0 7 0;
#X connect 14 0 29 2;
#X connect 15 0 6 0;
#X connect 15 0 29 3;
#X connect 16 0 25 0;
#X connect 17 0 24 0;
#X connect 18 0 12 0;
#X connect 19 0 13 0;
#X connect 20 0 14 0;
#X connect 21 0 15 0;
#X connect 22 0 26 0;
#X connect 23 0 27 0;
#X connect 24 0 18 0;
#X connect 25 0 19 0;
#X connect 26 0 20 0;
#X connect 27 0 21 0;
#X connect 28 0 30 0;
#X connect 28 1 31 0;
#X connect 28 2 32 0;
#X connect 28 3 33 0;
#X restore 138 180 pd wl _____;
#X obj 31 209 pack f f f f f f f f f f f f f f f f f f f f f f f f
f f f f f f f f f f f f, f 150;
#X obj 31 254 list trim;
#X obj 31 276 s data;
#X obj 31 13 r data;
#N canvas 91 104 495 168 wlfOri 0;
#X obj 21 114 outlet;
#X obj 111 112 outlet;
#X obj 201 112 outlet, f 7;
#X obj 21 20 inlet;
#X obj 111 20 inlet;
#X obj 201 20 inlet;
#X obj 201 48 datapressor01;
#X obj 111 48 datapressor01;
#X obj 21 48 datapressor01;
#X obj 201 78 ramp 10 150;
#X obj 111 78 ramp 10 150;
#X obj 21 78 ramp 10 150;
#X connect 3 0 8 0;
#X connect 4 0 7 0;
#X connect 5 0 6 0;
#X connect 6 0 9 0;
#X connect 7 0 10 0;
#X connect 8 0 11 0;
#X connect 9 0 2 0;
#X connect 10 0 1 0;
#X connect 11 0 0 0;
#X restore 314 159 pd wlfOri;
#N canvas 86 556 473 218 gyro__ 0;
#X obj 28 144 outlet;
#X obj 123 146 outlet;
#X obj 213 146 outlet;
#X obj 28 -3 inlet;
#X obj 123 1 inlet;
#X obj 213 1 inlet;
#X obj 28 75 dataPressor05;
#X obj 213 118 biRamp 10 150;
#X obj 123 118 biRamp 10 150;
#X obj 28 118 biRamp 10 150;
#X floatatom 345 53 5 0 0 0 - - -, f 5;
#X obj 123 75 dataPressor05;
#X obj 213 75 dataPressor05;
#X connect 3 0 10 0;
#X connect 3 0 6 0;
#X connect 4 0 11 0;
#X connect 5 0 12 0;
#X connect 6 0 9 0;
#X connect 7 0 2 0;
#X connect 8 0 1 0;
#X connect 9 0 0 0;
#X connect 11 0 8 0;
#X connect 12 0 7 0;
#X restore 392 157 pd gyro__;
#N canvas 0 22 473 187 gyrWlf 0;
#X obj 11 21 inlet;
#X obj 11 126 outlet;
#X obj 106 21 inlet;
#X obj 106 126 outlet;
#X obj 201 21 inlet;
#X obj 201 118 outlet;
#X obj 201 96 ramp 10 100;
#X obj 106 103 ramp 10 100;
#X obj 11 103 ramp 10 100;
#X obj 201 43 * 0.09;
#X obj 106 43 * 0.09;
#X obj 11 43 * 0.09;
#X obj 310 24 hsl 128 15 0 1 0 0 empty empty empty -2 -8 0 10 -262144
-1 -1 0 1;
#X obj 310 64 hsl 128 15 0 1 0 0 empty empty empty -2 -8 0 10 -262144
-1 -1 0 1;
#X obj 307 44 datapressor01;
#X obj 11 75 datapressor01;
#X obj 106 75 datapressor01;
#X obj 201 68 datapressor01;
#X connect 0 0 11 0;
#X connect 2 0 10 0;
#X connect 4 0 9 0;
#X connect 6 0 5 0;
#X connect 7 0 3 0;
#X connect 8 0 1 0;
#X connect 9 0 17 0;
#X connect 10 0 16 0;
#X connect 11 0 15 0;
#X connect 12 0 14 0;
#X connect 14 0 13 0;
#X connect 15 0 8 0;
#X connect 16 0 7 0;
#X connect 17 0 6 0;
#X restore 469 158 pd gyrWlf;
#N canvas 522 253 660 214 Acc___ 0;
#X obj 17 146 outlet;
#X obj 107 146 outlet;
#X obj 197 146 outlet;
#X obj 17 15 inlet;
#X obj 107 15 inlet;
#X obj 197 15 inlet;
#X obj 17 37 * 0.0005;
#X obj 17 59 + 1;
#X obj 17 81 * 0.5;
#X obj 107 37 * 0.0005;
#X obj 107 59 + 1;
#X obj 107 81 * 0.5;
#X obj 197 59 + 1;
#X obj 197 81 * 0.5;
#X obj 197 124 biramp 10 100;
#X obj 107 123 biramp 10 100;
#X obj 17 125 biramp 10 100;
#X obj 197 37 * 0.0005;
#X obj 17 103 dataPressor05;
#X obj 107 103 dataPressor05;
#X obj 197 103 dataPressor05;
#X connect 3 0 6 0;
#X connect 4 0 9 0;
#X connect 5 0 17 0;
#X connect 6 0 7 0;
#X connect 7 0 8 0;
#X connect 8 0 18 0;
#X connect 9 0 10 0;
#X connect 10 0 11 0;
#X connect 11 0 19 0;
#X connect 12 0 13 0;
#X connect 13 0 20 0;
#X connect 14 0 2 0;
#X connect 15 0 1 0;
#X connect 16 0 0 0;
#X connect 17 0 12 0;
#X connect 18 0 16 0;
#X connect 19 0 15 0;
#X connect 20 0 14 0;
#X restore 547 156 pd Acc___;
#N canvas 414 551 876 280 accWlf 0;
#X obj 116 35 inlet;
#X obj 211 38 inlet;
#X obj 116 169 outlet;
#X obj 211 172 outlet;
#X obj 116 89 dataPressor01;
#X obj 301 38 inlet;
#X obj 301 172 outlet;
#X obj 116 116 ramp 10 150;
#X obj 211 116 ramp 10 150;
#X obj 301 116 ramp 10 150;
#X obj 301 93 dataPressor01;
#X obj 116 138 clip 0 1;
#X obj 301 138 clip 0 1;
#X obj 116 65 * 0.0009;
#X obj 211 65 * 0.0009;
#X obj 301 65 * 0.0009;
#X obj 211 140 clip 0 1;
#X obj 211 93 dataPressor01;
#X connect 0 0 13 0;
#X connect 1 0 14 0;
#X connect 4 0 7 0;
#X connect 5 0 15 0;
#X connect 7 0 11 0;
#X connect 8 0 16 0;
#X connect 9 0 12 0;
#X connect 10 0 9 0;
#X connect 11 0 2 0;
#X connect 12 0 6 0;
#X connect 13 0 4 0;
#X connect 14 0 17 0;
#X connect 15 0 10 0;
#X connect 16 0 3 0;
#X connect 17 0 8 0;
#X restore 622 155 pd accWlf;
#N canvas 247 283 367 251 mav 0;
#X obj 116 45 inlet;
#X obj 211 48 inlet;
#X obj 116 169 outlet;
#X obj 211 172 outlet;
#X obj 116 148 clip 0 1;
#X obj 211 148 clip 0 1;
#X obj 211 70 * 0.34;
#X obj 211 93 dataPressorExp;
#X obj 116 89 dataPressorExp;
#X obj 116 126 ramp 20 200;
#X obj 211 126 ramp 20 200;
#X connect 0 0 8 0;
#X connect 1 0 6 0;
#X connect 4 0 2 0;
#X connect 5 0 3 0;
#X connect 6 0 7 0;
#X connect 7 0 10 0;
#X connect 8 0 9 0;
#X connect 9 0 4 0;
#X connect 10 0 5 0;
#X restore 699 155 pd mav;
#X obj 31 233 list prepend all;
#X obj 31 86 route /rIoT/scaled myo;
#X obj 117 313 list trim;
#X obj 117 335 s data;
#X obj 117 266 pack f f f f f f f f f f f f f f f f f f f f f f f f
f f f f, f 74;
#X obj 753 156 scaleEMG 20 250 ______________;
#X obj 117 291 list prepend model;
#X obj 31 63 list trim;
#X connect 0 0 7 8;
#X connect 0 0 21 8;
#X connect 0 1 7 9;
#X connect 0 1 21 9;
#X connect 0 2 7 10;
#X connect 0 2 21 10;
#X connect 0 3 11 0;
#X connect 0 4 11 1;
#X connect 0 5 11 2;
#X connect 0 6 12 0;
#X connect 0 7 12 1;
#X connect 0 8 12 2;
#X connect 0 9 13 0;
#X connect 0 10 13 1;
#X connect 0 11 13 2;
#X connect 0 12 14 0;
#X connect 0 13 14 1;
#X connect 0 14 14 2;
#X connect 0 15 15 0;
#X connect 0 16 15 1;
#X connect 0 17 15 2;
#X connect 0 18 16 0;
#X connect 0 19 16 1;
#X connect 0 20 22 0;
#X connect 0 21 22 1;
#X connect 0 22 22 2;
#X connect 0 23 22 3;
#X connect 0 24 22 4;
#X connect 0 25 22 5;
#X connect 0 26 22 6;
#X connect 0 27 22 7;
#X connect 1 0 7 0;
#X connect 1 0 21 0;
#X connect 1 1 6 0;
#X connect 2 0 7 1;
#X connect 2 0 21 1;
#X connect 2 1 6 1;
#X connect 3 0 1 0;
#X connect 3 1 2 0;
#X connect 3 2 4 0;
#X connect 3 3 5 0;
#X connect 4 0 7 2;
#X connect 4 0 21 2;
#X connect 4 1 6 2;
#X connect 5 0 7 3;
#X connect 5 0 21 3;
#X connect 5 1 6 3;
#X connect 6 0 7 4;
#X connect 6 0 21 4;
#X connect 6 1 7 5;
#X connect 6 1 21 5;
#X connect 6 2 7 6;
#X connect 6 2 21 6;
#X connect 6 3 7 7;
#X connect 6 3 21 7;
#X connect 7 0 17 0;
#X connect 8 0 9 0;
#X connect 10 0 24 0;
#X connect 11 0 7 11;
#X connect 11 0 21 11;
#X connect 11 1 7 12;
#X connect 11 1 21 12;
#X connect 11 2 7 13;
#X connect 11 2 21 13;
#X connect 12 0 7 14;
#X connect 12 0 21 14;
#X connect 12 1 7 15;
#X connect 12 1 21 15;
#X connect 12 2 7 16;
#X connect 12 2 21 16;
#X connect 13 0 7 17;
#X connect 13 0 21 17;
#X connect 13 1 7 18;
#X connect 13 1 21 18;
#X connect 13 2 7 19;
#X connect 13 2 21 19;
#X connect 14 0 7 20;
#X connect 14 0 21 20;
#X connect 14 1 7 21;
#X connect 14 1 21 21;
#X connect 14 2 7 22;
#X connect 14 2 21 22;
#X connect 15 0 7 23;
#X connect 15 0 21 23;
#X connect 15 1 7 24;
#X connect 15 1 21 24;
#X connect 15 2 7 25;
#X connect 15 2 21 25;
#X connect 16 0 7 26;
#X connect 16 0 21 26;
#X connect 16 1 7 27;
#X connect 16 1 21 27;
#X connect 17 0 8 0;
#X connect 18 0 3 0;
#X connect 18 1 0 0;
#X connect 19 0 20 0;
#X connect 21 0 23 0;
#X connect 22 0 7 28;
#X connect 22 1 7 29;
#X connect 22 2 7 30;
#X connect 22 3 7 31;
#X connect 22 4 7 32;
#X connect 22 5 7 33;
#X connect 22 6 7 34;
#X connect 22 7 7 35;
#X connect 23 0 19 0;
#X connect 24 0 18 0;
