#N canvas 224 36 207 316 10;
#X declare -path ../abstraction/ml;
#X declare -path ../abstraction/rIoT;
#X obj 10 9 bng 80 250 50 0 calibrate empty CALIBRATE 0 40 0 15 -258113
-261234 -1;
#N canvas 188 284 1079 493 gestures-recognition 0;
#X obj 8 279 mrpeach/packOSC;
#X obj 8 349 mrpeach/udpsend 12000;
#X msg 20 322 connect 127.0.0.1 6448;
#X obj 20 301 loadbang;
#X obj 8 60 r data;
#X text 7 40 Data to Wekinator for gesture recognition;
#X obj 8 254 print;
#X obj 8 210 list prepend send;
#X obj 8 190 list prepend /wek/inputs;
#X obj 8 232 list trim;
#X obj 8 104 unpack f f f;
#X obj 8 82 route /orientation/scaled /myo;
#X obj 96 104 unpack f f f f f f f f f f f f f f f f f f f f, f 67
;
#X obj 8 156 pack f f f f f f f f f f f f f f f f f f f f f f f, f
81;
#N canvas 807 205 571 599 map 0;
#X obj 105 83 bng 15 250 50 0 empty empty empty 17 7 0 10 -262144 -1
-1;
#X obj 104 221 random 1000;
#X obj 104 243 * 0.001;
#X obj 184 221 random 1000;
#X obj 184 243 * 0.001;
#X obj 104 361 pack f f f;
#X msg 104 383 \$1 \, \$2 \$3;
#X obj 104 405 line;
#X floatatom 104 427 5 0 0 0 - - -, f 5;
#X obj 104 466 pack f f;
#X obj 188 361 pack f f f;
#X msg 188 383 \$1 \, \$2 \$3;
#X obj 188 405 line;
#X obj 270 271 * 0.001;
#X obj 364 268 * 0.001;
#X obj 270 293 + 0.5;
#X obj 270 219 random 300;
#X obj 364 223 random 300;
#X obj 270 241 - 150;
#X obj 364 247 - 150;
#X obj 364 296 + 0.5;
#X obj 247 91 delay;
#X obj 223 65 spigot;
#X obj 450 296 t f f f;
#X obj 104 543 outlet;
#X obj 274 63 + 2000;
#X msg 379 56 1;
#X obj 379 78 +;
#X floatatom 379 100 5 0 0 0 - - -, f 5;
#X obj 379 119 < 20;
#X msg 418 34 0;
#X obj 418 56 t f f;
#X obj 379 141 tgl 15 0 empty empty empty 17 7 0 10 -262144 -1 -1 1
1;
#X obj 418 8 loadbang;
#X obj 104 488 list prepend map;
#X obj 104 510 list trim;
#X obj 243 534 + 1;
#X floatatom 243 556 5 0 0 0 - - -, f 5;
#X obj 451 222 random 500;
#X obj 451 244 + 1000;
#X obj 243 512 <;
#X obj 104 107 t b b b b b b, f 15;
#X connect 0 0 41 0;
#X connect 0 0 22 0;
#X connect 1 0 2 0;
#X connect 1 0 40 0;
#X connect 2 0 5 0;
#X connect 3 0 4 0;
#X connect 3 0 40 1;
#X connect 4 0 5 1;
#X connect 5 0 6 0;
#X connect 6 0 7 0;
#X connect 7 0 8 0;
#X connect 8 0 9 0;
#X connect 9 0 34 0;
#X connect 10 0 11 0;
#X connect 11 0 12 0;
#X connect 12 0 9 1;
#X connect 13 0 15 0;
#X connect 14 0 20 0;
#X connect 15 0 10 0;
#X connect 16 0 18 0;
#X connect 17 0 19 0;
#X connect 18 0 13 0;
#X connect 19 0 14 0;
#X connect 20 0 10 1;
#X connect 21 0 0 0;
#X connect 22 0 21 0;
#X connect 23 0 5 2;
#X connect 23 1 10 2;
#X connect 23 2 25 0;
#X connect 25 0 21 1;
#X connect 26 0 27 0;
#X connect 27 0 28 0;
#X connect 28 0 27 1;
#X connect 28 0 29 0;
#X connect 29 0 32 0;
#X connect 30 0 31 0;
#X connect 31 0 27 0;
#X connect 31 1 27 1;
#X connect 32 0 22 1;
#X connect 33 0 30 0;
#X connect 34 0 35 0;
#X connect 35 0 24 0;
#X connect 36 0 37 0;
#X connect 38 0 39 0;
#X connect 39 0 23 0;
#X connect 40 0 36 0;
#X connect 41 0 1 0;
#X connect 41 1 16 0;
#X connect 41 2 3 0;
#X connect 41 3 17 0;
#X connect 41 4 38 0;
#X connect 41 5 26 0;
#X restore 670 257 pd map;
#X obj 600 340 print 1;
#X obj 632 310 print 2;
#X obj 446 307 bng 20 250 50 0 \$0-saveModel empty Save_model 25 12
1 14 -99865 -4032 -1;
#X obj 446 336 bng 20 250 50 0 \$0-clearModel empty Clear_model 25
12 1 14 -99865 -4032 -1;
#X obj 446 276 bng 20 250 50 0 \$0-loadModel \$0-init Load_model 25
12 1 14 -99865 -4032 -1;
#N canvas 535 444 503 243 model-man 0;
#X obj 13 22 r \$0-loadModel;
#X obj 116 23 r \$0-saveModel;
#X obj 233 21 r \$0-clearModel;
#X obj 116 45 f \$1;
#X obj 13 55 f \$1;
#X msg 233 49 clear;
#X obj 13 211 outlet;
#X msg 13 93 read /Users/balandinodidonato/PhD/Software/System-3/pd/abstraction/ml/models/hmm-test-3
;
#X msg 116 146 write /Users/balandinodidonato/PhD/Software/System-3/pd/abstraction/ml/models/hmm-test-3
;
#X connect 0 0 4 0;
#X connect 1 0 3 0;
#X connect 2 0 5 0;
#X connect 3 0 8 0;
#X connect 4 0 7 0;
#X connect 5 0 6 0;
#X connect 7 0 6 0;
#X connect 8 0 6 0;
#X restore 444 253 pd model-man;
#X msg 740 258 help;
#N canvas 142 466 1281 335 test 0;
#X msg 518 176 add 1 \$1;
#X msg 518 127 0 \, 1 1000;
#X obj 518 149 line;
#X obj 596 147 line;
#X msg 596 174 add 2 \$1;
#X msg 596 125 1 \, 0 1000;
#X msg 351 175 record \$1;
#X obj 352 139 tgl 15 0 empty empty empty 17 7 0 10 -262144 -1 -1 0
1;
#X msg 791 126 0 \, 1 1000;
#X obj 791 148 line;
#X obj 899 144 line;
#X msg 899 122 1 \, 0 1000;
#X msg 791 175 map \$1;
#X msg 899 171 map \$1;
#X msg 704 175 train;
#X msg 274 173 clear;
#X obj 435 247 outlet;
#X text 270 145 0;
#X text 514 105 2 add I set;
#X text 598 104 3 add II set;
#X text 667 155 4 train the model;
#X text 354 97 1 start recording;
#X text 355 115 5 stop recording;
#X text 763 103 6 test the state 1;
#X text 895 102 7 test the state 2;
#X connect 0 0 16 0;
#X connect 1 0 2 0;
#X connect 2 0 0 0;
#X connect 3 0 4 0;
#X connect 4 0 16 0;
#X connect 5 0 3 0;
#X connect 6 0 16 0;
#X connect 7 0 6 0;
#X connect 8 0 9 0;
#X connect 9 0 12 0;
#X connect 10 0 13 0;
#X connect 11 0 10 0;
#X connect 12 0 16 0;
#X connect 13 0 16 0;
#X connect 14 0 16 0;
#X connect 15 0 16 0;
#X restore 711 286 pd test;
#X obj 711 320 print;
#N canvas 25 23 634 596 train 0;
#X obj 53 22 bng 15 250 50 0 empty empty empty 17 7 0 10 -262144 -1
-1;
#X obj 53 248 random 1000;
#X obj 53 310 * 0.001;
#X obj 133 248 random 1000;
#X obj 133 310 * 0.001;
#X obj 266 295 * 0.001;
#X obj 53 270 t f f;
#X obj 133 270 t f f;
#X msg 38 456 \$1 \, \$2 \$3;
#X obj 38 478 line;
#X obj 38 404 f;
#X obj 200 330 sel 1;
#X obj 38 426 pack f f f, f 32;
#X msg 251 456 \$1 \, \$2 \$3;
#X obj 251 478 line;
#X obj 251 404 f;
#X obj 251 426 pack f f f, f 33;
#X obj 38 501 pack f f, f 36;
#X obj 53 207 t b b b b b, f 61;
#X obj 266 319 + 0.5;
#X obj 346 291 * 0.001;
#X floatatom 380 361 5 0 0 0 - - -, f 5;
#X obj 348 319 + 0.5;
#X obj 266 247 random 300;
#X obj 346 247 random 300;
#X obj 266 269 - 150;
#X obj 346 269 - 150;
#X obj 416 275 + 1000;
#X obj 416 248 random 500;
#X obj 80 128 delay;
#X obj 107 106 + 200;
#X obj 80 170 spigot;
#X msg 183 61 1;
#X obj 183 83 +;
#X floatatom 183 105 5 0 0 0 - - -, f 5;
#X msg 229 52 0;
#X obj 229 74 t f f;
#X obj 486 457 delay;
#X obj 513 347 + 50;
#X obj 416 300 t f f f f, f 16;
#X obj 200 352 t b b b b;
#X obj 486 433 t b b, f 14;
#X msg 531 544 record \$1;
#X obj 531 526 tgl 15 0 empty empty empty 17 7 0 10 -262144 -1 -1 0
1;
#X msg 531 504 0;
#X msg 567 504 1;
#X obj 53 44 t b b;
#X obj 38 545 outlet;
#X obj 486 479 t b b, f 8;
#X msg 486 506 train;
#X obj 183 123 < 900;
#X obj 200 308 >;
#X msg 38 523 add 1 \$1 \$2;
#X connect 0 0 46 0;
#X connect 1 0 6 0;
#X connect 2 0 10 1;
#X connect 3 0 7 0;
#X connect 4 0 12 1;
#X connect 5 0 19 0;
#X connect 6 0 2 0;
#X connect 6 1 51 0;
#X connect 7 0 4 0;
#X connect 7 1 51 1;
#X connect 8 0 9 0;
#X connect 9 0 17 0;
#X connect 10 0 12 0;
#X connect 11 0 40 0;
#X connect 12 0 8 0;
#X connect 13 0 14 0;
#X connect 14 0 17 1;
#X connect 15 0 16 0;
#X connect 16 0 13 0;
#X connect 17 0 52 0;
#X connect 18 0 1 0;
#X connect 18 1 3 0;
#X connect 18 2 23 0;
#X connect 18 3 24 0;
#X connect 18 4 28 0;
#X connect 19 0 15 1;
#X connect 20 0 22 0;
#X connect 22 0 16 1;
#X connect 22 0 21 0;
#X connect 23 0 25 0;
#X connect 24 0 26 0;
#X connect 25 0 5 0;
#X connect 26 0 20 0;
#X connect 27 0 39 0;
#X connect 28 0 27 0;
#X connect 29 0 31 0;
#X connect 30 0 29 1;
#X connect 31 0 0 0;
#X connect 32 0 33 0;
#X connect 33 0 34 0;
#X connect 34 0 33 1;
#X connect 34 0 50 0;
#X connect 35 0 36 0;
#X connect 36 0 33 0;
#X connect 36 1 33 1;
#X connect 37 0 48 0;
#X connect 38 0 37 1;
#X connect 39 0 12 2;
#X connect 39 1 16 2;
#X connect 39 2 30 0;
#X connect 39 3 38 0;
#X connect 40 0 10 0;
#X connect 40 1 15 0;
#X connect 40 2 41 0;
#X connect 40 3 32 0;
#X connect 41 0 37 0;
#X connect 41 1 45 0;
#X connect 42 0 47 0;
#X connect 43 0 42 0;
#X connect 44 0 43 0;
#X connect 45 0 43 0;
#X connect 46 0 18 0;
#X connect 46 1 29 0;
#X connect 48 0 49 0;
#X connect 48 1 44 0;
#X connect 49 0 47 0;
#X connect 50 0 31 1;
#X connect 51 0 11 0;
#X connect 52 0 47 0;
#X restore 589 256 pd train;
#X obj 799 242 loadbang;
#X msg 799 264 max_num_iterations 4000;
#X obj 607 25 declare -path ../abstraction/ml;
#X obj 607 45 declare -path ../abstraction/rIoT;
#X obj 600 284 ml.hmm;
#X connect 0 0 1 0;
#X connect 2 0 1 0;
#X connect 3 0 2 0;
#X connect 4 0 11 0;
#X connect 7 0 9 0;
#X connect 8 0 7 0;
#X connect 9 0 6 0;
#X connect 10 0 13 0;
#X connect 10 1 13 1;
#X connect 10 2 13 2;
#X connect 11 0 10 0;
#X connect 11 1 12 0;
#X connect 12 0 13 3;
#X connect 12 1 13 4;
#X connect 12 2 13 5;
#X connect 12 3 13 6;
#X connect 12 4 13 7;
#X connect 12 5 13 8;
#X connect 12 6 13 9;
#X connect 12 7 13 10;
#X connect 12 8 13 11;
#X connect 12 9 13 12;
#X connect 12 10 13 13;
#X connect 12 11 13 14;
#X connect 12 12 13 15;
#X connect 12 13 13 16;
#X connect 12 14 13 17;
#X connect 12 15 13 18;
#X connect 12 16 13 19;
#X connect 12 17 13 20;
#X connect 12 18 13 21;
#X connect 12 19 13 22;
#X connect 13 0 8 0;
#X connect 14 0 29 0;
#X connect 20 0 29 0;
#X connect 21 0 29 0;
#X connect 22 0 29 0;
#X connect 24 0 23 0;
#X connect 24 0 29 0;
#X connect 25 0 26 0;
#X connect 26 0 29 0;
#X connect 29 0 15 0;
#X connect 29 1 16 0;
#X coords 0 493 1 492 90 40 0;
#X restore 9 149 pd gestures-recognition;
#N canvas 0 22 492 297 osc-rIoT 0;
#X msg 9 64 port 8888;
#X obj 9 109 mrpeach/unpackOSC;
#X obj 9 136 mrpeach/pipelist;
#X obj 9 161 mrpeach/routeOSC /0/raw /0/quat /0/euler /0/analog;
#X obj 9 86 iemnet/udpreceive 8888;
#X obj 9 43 loadbang;
#X obj 157 240 s data;
#X obj 157 188 list prepend /orientation/raw;
#X obj 157 210 list trim;
#X text 13 14 Incoming data from rIoT board.;
#X connect 0 0 4 0;
#X connect 1 0 2 0;
#X connect 1 1 2 1;
#X connect 2 0 3 0;
#X connect 3 2 7 0;
#X connect 4 0 1 0;
#X connect 5 0 0 0;
#X connect 7 0 8 0;
#X connect 8 0 6 0;
#X restore 10 95 pd osc-rIoT;
#N canvas 0 22 352 452 scale-rIoT 0;
#X obj 15 108 unpack f f f;
#X obj 215 160 + 180;
#X obj 215 274 + 0, f 4;
#X obj 215 318 mod 360;
#X obj 236 206 f;
#X obj 236 252 -;
#X obj 236 182 r calibrate;
#X obj 215 136 i;
#X msg 236 230 360 \$1;
#X obj 115 160 + 180;
#X obj 115 274 + 0, f 4;
#X obj 136 206 f;
#X obj 136 252 -;
#X obj 136 182 r calibrate;
#X obj 115 136 i;
#X msg 136 230 360 \$1;
#X obj 15 160 + 180;
#X obj 36 206 f;
#X obj 36 252 -;
#X obj 36 182 r calibrate;
#X obj 15 136 i;
#X msg 36 230 360 \$1;
#X obj 215 296 - 180;
#X obj 215 340 / 360;
#X obj 115 318 mod 360;
#X obj 115 296 - 180;
#X obj 115 340 / 360;
#X obj 15 318 mod 360;
#X obj 15 296 - 180;
#X obj 15 340 / 360;
#X obj 15 273 + 0, f 4;
#X obj 15 369 pack f f f;
#X obj 15 416 s data;
#X obj 15 58 r data;
#X msg 15 395 /orientation/scaled \$1 \$2 \$3;
#X floatatom 217 395 5 0 0 0 - - -, f 5;
#X obj 15 80 route /orientation/raw;
#X text 16 28 Scale from raw to 0-1.;
#X floatatom 280 328 5 0 0 0 - - -, f 5;
#X connect 0 0 20 0;
#X connect 0 1 14 0;
#X connect 0 2 7 0;
#X connect 1 0 2 0;
#X connect 1 0 4 1;
#X connect 2 0 22 0;
#X connect 3 0 23 0;
#X connect 4 0 8 0;
#X connect 5 0 2 1;
#X connect 6 0 4 0;
#X connect 7 0 1 0;
#X connect 8 0 5 0;
#X connect 9 0 10 0;
#X connect 9 0 11 1;
#X connect 10 0 25 0;
#X connect 11 0 15 0;
#X connect 12 0 10 1;
#X connect 13 0 11 0;
#X connect 14 0 9 0;
#X connect 15 0 12 0;
#X connect 16 0 17 1;
#X connect 16 0 30 0;
#X connect 17 0 21 0;
#X connect 18 0 30 1;
#X connect 19 0 17 0;
#X connect 20 0 16 0;
#X connect 21 0 18 0;
#X connect 22 0 3 0;
#X connect 23 0 31 2;
#X connect 23 0 35 0;
#X connect 24 0 26 0;
#X connect 25 0 24 0;
#X connect 26 0 31 1;
#X connect 27 0 29 0;
#X connect 28 0 27 0;
#X connect 29 0 31 0;
#X connect 30 0 28 0;
#X connect 31 0 34 0;
#X connect 33 0 36 0;
#X connect 34 0 32 0;
#X connect 36 0 0 0;
#X connect 38 0 31 0;
#X restore 10 120 pd scale-rIoT;
#N canvas 0 22 492 297 osc-rIoT 0;
#X obj 9 109 mrpeach/unpackOSC;
#X obj 9 136 mrpeach/pipelist;
#X obj 9 43 loadbang;
#X obj 9 231 s data;
#X obj 9 208 list trim;
#X text 13 14 Incoming data from rIoT board.;
#X msg 9 64 port 5432;
#X obj 9 86 iemnet/udpreceive 5432;
#X obj 9 161 mrpeach/routeOSC /myo1/all;
#X obj 9 186 list prepend /myo;
#X connect 0 0 1 0;
#X connect 0 1 1 1;
#X connect 1 0 8 0;
#X connect 2 0 6 0;
#X connect 4 0 3 0;
#X connect 6 0 7 0;
#X connect 7 0 0 0;
#X connect 8 0 9 0;
#X connect 9 0 4 0;
#X restore 91 96 pd osc-rIoT;
