#N canvas 0 22 984 323 10;
#X obj 21 45 inlet;
#X obj 21 113 outlet;
#X obj 121 45 inlet;
#X obj 121 113 outlet;
#X obj 211 45 inlet;
#X obj 211 113 outlet;
#X obj 301 45 inlet;
#X obj 301 113 outlet;
#X obj 391 45 inlet;
#X obj 391 113 outlet;
#X obj 481 45 inlet;
#X obj 481 113 outlet;
#X obj 571 45 inlet;
#X obj 571 113 outlet;
#X obj 661 45 inlet;
#X obj 661 113 outlet;
#X obj 571 90 ramp \$1 \$2;
#X obj 661 90 ramp \$1 \$2;
#X obj 481 90 ramp \$1 \$2;
#X obj 391 90 ramp \$1 \$2;
#X obj 301 90 ramp \$1 \$2;
#X obj 211 90 ramp \$1 \$2;
#X obj 121 90 ramp \$1 \$2;
#X obj 21 90 ramp \$1 \$2;
#X obj 21 68 dataPressorExp;
#X obj 121 68 dataPressorExp;
#X obj 211 68 dataPressorExp;
#X obj 301 68 dataPressorExp;
#X obj 391 68 dataPressorExp;
#X obj 481 69 dataPressorExp;
#X obj 661 67 dataPressorExp;
#X obj 571 69 dataPressorExp;
#X connect 0 0 24 0;
#X connect 2 0 25 0;
#X connect 4 0 26 0;
#X connect 6 0 27 0;
#X connect 8 0 28 0;
#X connect 10 0 29 0;
#X connect 12 0 31 0;
#X connect 14 0 30 0;
#X connect 16 0 13 0;
#X connect 17 0 15 0;
#X connect 18 0 11 0;
#X connect 19 0 9 0;
#X connect 20 0 7 0;
#X connect 21 0 5 0;
#X connect 22 0 3 0;
#X connect 23 0 1 0;
#X connect 24 0 23 0;
#X connect 25 0 22 0;
#X connect 26 0 21 0;
#X connect 27 0 20 0;
#X connect 28 0 19 0;
#X connect 29 0 18 0;
#X connect 30 0 17 0;
#X connect 31 0 16 0;
