#N canvas 632 82 637 395 10;
#X obj 31 25 inlet;
#X obj 31 52 abs;
#X obj 31 74 + 1;
#X obj 31 226 outlet;
#X obj 109 25 inlet;
#X obj 109 226 outlet;
#X obj 184 25 inlet;
#X obj 184 226 outlet;
#X obj 31 95 pow \$1;
#X obj 31 123 - 1;
#X obj 31 145 * 0.001;
#X obj 109 52 abs;
#X obj 109 74 + 1;
#X obj 109 95 pow \$1;
#X obj 109 123 - 1;
#X obj 109 145 * 0.001;
#X obj 184 52 abs;
#X obj 184 74 + 1;
#X obj 184 95 pow \$1;
#X obj 184 123 - 1;
#X obj 184 145 * 0.001;
#X obj 31 196 min 1;
#X obj 109 196 min 1;
#X obj 184 196 min 1;
#X obj 184 174 ramp 10 100;
#X obj 109 174 ramp 10 100;
#X obj 31 174 ramp 10 100;
#X connect 0 0 1 0;
#X connect 1 0 2 0;
#X connect 2 0 8 0;
#X connect 4 0 11 0;
#X connect 6 0 16 0;
#X connect 8 0 9 0;
#X connect 9 0 10 0;
#X connect 10 0 26 0;
#X connect 11 0 12 0;
#X connect 12 0 13 0;
#X connect 13 0 14 0;
#X connect 14 0 15 0;
#X connect 15 0 25 0;
#X connect 16 0 17 0;
#X connect 17 0 18 0;
#X connect 18 0 19 0;
#X connect 19 0 20 0;
#X connect 20 0 24 0;
#X connect 21 0 3 0;
#X connect 22 0 5 0;
#X connect 23 0 7 0;
#X connect 24 0 23 0;
#X connect 25 0 22 0;
#X connect 26 0 21 0;
