#N canvas 637 172 794 467 10;
#X floatatom 107 230 5 0 0 0 - - -;
#X obj 43 146 dsp;
#X text 145 231 % mean-cpu-load;
#X floatatom 106 205 5 0 0 0 - - -;
#X text 142 205 % peak-cpu-load;
#X obj 344 169 adc~ 1;
#X obj 240 130 vsl 30 128 0 1 0 0 empty empty Input 10 140 0 15 -262144
-1 -1 0 1;
#X obj 344 237 gain;
#X obj 239 16 loadbang;
#X obj 345 297 outlet~;
#X obj 271 130 vsl 30 128 0 98 0 0 empty empty empty 10 140 0 15 -262144
-1 -1 0 1;
#X obj 424 278 env~;
#X obj 240 61 \$1;
#X obj 105 152 tgl 40 0 empty dsp_tgl DSP_ON/OFF 0 -10 0 12 -191407
-4032 -33289 0 1;
#X connect 1 0 0 0;
#X connect 1 1 3 0;
#X connect 5 0 7 0;
#X connect 6 0 7 1;
#X connect 7 0 9 0;
#X connect 7 0 11 0;
#X connect 8 0 12 0;
#X connect 11 0 10 0;
#X connect 12 0 6 0;
#X connect 13 0 1 0;
#X coords 0 -1 1 1 220 180 1 100 100;
