#N canvas 420 243 655 616 10;
#X obj 31 71 inlet~;
#X obj 31 480 outlet~;
#X text 311 66 \$1 = delay time;
#X text 310 81 \$2 = feedback;
#X obj 172 420 inlet;
#X obj 172 464 vline~;
#X obj 157 488 *~;
#X obj 31 428 +~;
#X obj 109 36 inlet;
#X obj 31 113 *~ 0.8;
#X obj 142 523 +~;
#X obj 104 341 *~;
#X obj 119 320 vline~;
#X obj 104 218 sig~;
#X obj 93 176 t b b f b;
#X obj 295 383 *~;
#X obj 310 362 vline~;
#X obj 295 260 sig~;
#X obj 254 178 t b b f b;
#X obj 93 154 spigot;
#X obj 253 154 spigot;
#X obj 94 88 t f f b b;
#X obj 125 134 tgl 15 0 empty empty empty 17 7 0 10 -262144 -1 -1 0
1;
#X obj 286 136 tgl 15 0 empty empty empty 17 7 0 10 -262144 -1 -1 1
1;
#X obj 241 67 loadbang;
#X msg 241 110 0;
#X msg 284 111 1;
#X obj 31 41 metro 20;
#X obj 94 68 f;
#X msg 362 339 0 15;
#X msg 315 339 1 15;
#X msg 171 297 0 15;
#X msg 124 297 1 15;
#X obj 241 89 t b b b;
#X msg 29 15 1;
#X msg 193 58 bang;
#X obj 152 571 delwrite~ delay-\$0-2 \$1;
#X obj 104 254 delread4~ delay-\$0-1;
#X obj 295 296 delread4~ delay-\$0-2;
#X msg 172 442 \$1 20;
#X obj 142 551 delwrite~ delay-\$0-1 \$1;
#X connect 0 0 9 0;
#X connect 4 0 39 0;
#X connect 5 0 6 1;
#X connect 6 0 10 1;
#X connect 7 0 1 0;
#X connect 8 0 28 1;
#X connect 9 0 7 0;
#X connect 9 0 10 0;
#X connect 10 0 36 0;
#X connect 10 0 40 0;
#X connect 11 0 7 1;
#X connect 11 0 6 0;
#X connect 12 0 11 1;
#X connect 13 0 37 0;
#X connect 14 1 32 0;
#X connect 14 2 13 0;
#X connect 14 3 29 0;
#X connect 15 0 7 1;
#X connect 15 0 6 0;
#X connect 16 0 15 1;
#X connect 17 0 38 0;
#X connect 18 1 30 0;
#X connect 18 2 17 0;
#X connect 18 3 31 0;
#X connect 19 0 14 0;
#X connect 20 0 18 0;
#X connect 21 0 19 0;
#X connect 21 1 20 0;
#X connect 21 2 22 0;
#X connect 21 3 23 0;
#X connect 22 0 19 1;
#X connect 23 0 20 1;
#X connect 24 0 33 0;
#X connect 25 0 22 0;
#X connect 26 0 23 0;
#X connect 27 0 28 0;
#X connect 28 0 21 0;
#X connect 29 0 16 0;
#X connect 30 0 16 0;
#X connect 31 0 12 0;
#X connect 32 0 12 0;
#X connect 33 0 34 0;
#X connect 33 1 25 0;
#X connect 33 2 26 0;
#X connect 34 0 27 0;
#X connect 35 0 33 0;
#X connect 37 0 11 0;
#X connect 38 0 15 0;
#X connect 39 0 5 0;
