#N canvas 272 78 212 425 10;
#X declare -path ../audio;
#X obj 101 159 delayTime;
#X obj 17 10 declare -path ../audio;
#X obj 16 37 inlet~;
#X obj 101 133 inlet;
#X obj 18 130 loadbang;
#X obj 18 392 outlet~;
#X obj 18 367 delread4~ delay-\$0-\$1;
#X obj 128 205 s br-t-\$1;
#X msg 18 152 1;
#X obj 18 344 vline~;
#X obj 18 276 f;
#X floatatom 18 298 5 0 0 0 - - -, f 5;
#X obj 16 99 delwrite~ delay-\$0-\$1 1000;
#X obj 18 178 metro 80;
#X msg 18 320 \$1 80;
#X obj 101 227 * 0.5;
#X obj 101 181 t f f;
#X connect 0 0 16 0;
#X connect 2 0 12 0;
#X connect 3 0 0 0;
#X connect 4 0 8 0;
#X connect 6 0 5 0;
#X connect 8 0 13 0;
#X connect 9 0 6 0;
#X connect 10 0 11 0;
#X connect 11 0 14 0;
#X connect 13 0 10 0;
#X connect 14 0 9 0;
#X connect 15 0 10 1;
#X connect 16 0 15 0;
#X connect 16 1 7 0;
