#N canvas 195 153 600 435 10;
#X floatatom 138 92 5 0 0 1 temperature - -, f 5;
#X obj 138 172 /;
#X floatatom 138 132 10 0 0 1 speed_of_sound - -, f 10;
#X msg 138 151 1 \$1;
#X floatatom 138 194 5 0 0 1 t(s) - -, f 5;
#X obj 138 213 * 1000;
#X floatatom 138 235 10 0 0 1 t(ms) - -, f 10;
#X obj 26 400 outlet;
#X obj 138 34 r temp;
#X obj 26 40 inlet;
#X obj 138 110 expr 331.4*sqrt(1+(0.003661*$f1));
#X obj 26 105 spigot;
#X obj 59 84 != 0;
#X obj 138 56 t f f;
#X obj 26 307 * 2.91275;
#X obj 26 329 i;
#X connect 0 0 10 0;
#X connect 1 0 4 0;
#X connect 2 0 3 0;
#X connect 3 0 1 0;
#X connect 4 0 5 0;
#X connect 5 0 6 0;
#X connect 6 0 14 1;
#X connect 8 0 13 0;
#X connect 9 0 11 0;
#X connect 10 0 2 0;
#X connect 11 0 14 0;
#X connect 12 0 11 1;
#X connect 13 0 0 0;
#X connect 13 1 12 0;
#X connect 14 0 15 0;
#X connect 15 0 7 0;
