#N canvas 272 78 273 497 10;
#X declare -path ../audio;
#X obj 105 169 delayTime;
#X obj 17 10 declare -path ../audio;
#X obj 6 37 inlet~;
#X obj 105 143 inlet;
#N canvas 0 22 450 300 analysis 0;
#X msg 145 158 1;
#X obj 145 180 +;
#X floatatom 145 202 5 0 0 0 - - -, f 5;
#X floatatom 110 218 5 0 0 0 - - -, f 5;
#X obj 110 247 text set delay-\$1;
#X msg 74 157 0;
#X obj 74 46 r reset-\$1;
#X obj 144 137 spigot;
#X obj 169 116 tgl 15 0 empty empty empty 17 7 0 10 -262144 -1 -1 0
1;
#X obj 110 92 t f b b;
#X obj 208 59 loadbang;
#X obj 110 72 inlet;
#X obj 208 90 text define delay-\$1;
#X connect 0 0 1 0;
#X connect 1 0 2 0;
#X connect 2 0 1 1;
#X connect 2 0 4 1;
#X connect 3 0 4 0;
#X connect 5 0 3 0;
#X connect 5 0 2 0;
#X connect 6 0 5 0;
#X connect 7 0 0 0;
#X connect 8 0 7 1;
#X connect 9 0 3 0;
#X connect 9 1 7 0;
#X connect 9 2 8 0;
#X connect 10 0 12 0;
#X connect 11 0 9 0;
#X restore 150 437 pd analysis;
#X obj 150 410 spigot;
#X obj 183 382 tgl 15 0 empty empty empty 17 7 0 10 -262144 -1 -1 0
1;
#X obj 184 340 loadbang;
#X msg 184 360 1;
#X obj 22 140 loadbang;
#X obj 25 368 outlet~;
#X obj 25 337 delread4~ delay-\$0-\$1;
#X obj 132 215 s br-t-\$1;
#X msg 22 162 1;
#X obj 25 301 vline~;
#X obj 22 226 f;
#X floatatom 22 248 5 0 0 0 - - -, f 5;
#X obj 6 99 delwrite~ delay-\$0-\$1 1000;
#X obj 22 188 metro 80;
#X msg 23 277 \$1 80;
#X obj 81 207 * 0.5;
#X obj 105 191 t f f;
#X connect 0 0 21 0;
#X connect 2 0 17 0;
#X connect 3 0 0 0;
#X connect 5 0 4 0;
#X connect 6 0 5 1;
#X connect 7 0 8 0;
#X connect 9 0 13 0;
#X connect 11 0 10 0;
#X connect 13 0 18 0;
#X connect 14 0 11 0;
#X connect 15 0 16 0;
#X connect 16 0 19 0;
#X connect 18 0 15 0;
#X connect 19 0 14 0;
#X connect 20 0 15 1;
#X connect 21 0 20 0;
#X connect 21 1 12 0;
