#N canvas 0 22 450 300 10;
#N canvas 440 113 895 578 train 0;
#X obj 190 63 bng 15 250 50 0 empty empty empty 17 7 0 10 -262144 -1
-1;
#X obj 189 121 random 1000;
#X obj 189 143 * 0.001;
#X obj 269 121 random 1000;
#X obj 269 143 * 0.001;
#X obj 189 165 t f f;
#X obj 269 165 t f f;
#X obj 174 329 f;
#X obj 254 329 f;
#X obj 216 218 sel 1;
#X obj 339 329 f;
#X obj 174 361 pack f f f;
#X msg 174 383 \$1 \, \$2 \$3;
#X obj 174 405 line;
#X floatatom 174 427 5 0 0 0 - - -, f 5;
#X msg 300 256 record 1;
#X obj 54 383 delay;
#X msg 93 444 record 0;
#X obj 54 405 t b b;
#X msg 21 459 train;
#X obj 22 437 delay 200;
#X obj 174 466 pack f f;
#X obj 274 401 pack f f f;
#X msg 274 423 \$1 \, \$2 \$3;
#X obj 274 445 line;
#X obj 339 351 t f f;
#X msg 753 296 \$1 \, \$2 \$3;
#X obj 753 318 line;
#X floatatom 753 340 5 0 0 0 - - -, f 5;
#X obj 460 225 * 0.001;
#X obj 445 342 f;
#X obj 544 289 * 0.001;
#X obj 539 341 f;
#X obj 460 307 + 0.5;
#X obj 466 150 t b b;
#X obj 463 129 bng 15 250 50 0 empty empty empty 17 7 0 10 -262144
-1 -1;
#X obj 460 183 random 300;
#X obj 554 187 random 300;
#X obj 460 205 - 150;
#X obj 554 211 - 150;
#X obj 189 87 t b b b b b;
#X obj 544 317 + 0.5;
#X obj 216 240 t b b;
#X obj 94 370 + 100;
#X obj 332 71 delay;
#X obj 354 142 t f f f;
#X msg 388 488 clear;
#X msg 617 413 1;
#X obj 617 435 +;
#X floatatom 617 457 5 0 0 0 - - -, f 5;
#X floatatom 617 476 5 0 0 0 - - -, f 5;
#X obj 213 295 t b b b b b b b;
#X obj 354 120 random 2000;
#X obj 617 499 < 100;
#X msg 653 426 0;
#X obj 308 45 spigot;
#X obj 626 532 tgl 15 0 empty empty empty 17 7 0 10 -262144 -1 -1 1
1;
#X obj 656 394 loadbang;
#X obj 174 518 outlet;
#X obj 225 523 print;
#X obj 212 266 delay 300;
#X obj 359 43 + 500;
#X obj 216 196 >;
#X msg 174 496 add 2 \$1 \$2;
#X connect 0 0 40 0;
#X connect 1 0 2 0;
#X connect 2 0 5 0;
#X connect 3 0 4 0;
#X connect 4 0 6 0;
#X connect 5 0 7 1;
#X connect 5 1 62 0;
#X connect 6 0 8 1;
#X connect 6 1 62 1;
#X connect 7 0 11 0;
#X connect 8 0 11 1;
#X connect 9 0 42 0;
#X connect 10 0 25 0;
#X connect 11 0 12 0;
#X connect 12 0 13 0;
#X connect 13 0 14 0;
#X connect 14 0 21 0;
#X connect 15 0 58 0;
#X connect 16 0 18 0;
#X connect 17 0 58 0;
#X connect 18 0 20 0;
#X connect 18 1 17 0;
#X connect 19 0 58 0;
#X connect 20 0 19 0;
#X connect 21 0 63 0;
#X connect 22 0 23 0;
#X connect 23 0 24 0;
#X connect 24 0 21 1;
#X connect 25 0 11 2;
#X connect 25 1 22 2;
#X connect 26 0 27 0;
#X connect 27 0 28 0;
#X connect 29 0 33 0;
#X connect 30 0 22 0;
#X connect 31 0 41 0;
#X connect 32 0 22 1;
#X connect 33 0 30 1;
#X connect 34 0 36 0;
#X connect 34 1 37 0;
#X connect 35 0 34 0;
#X connect 36 0 38 0;
#X connect 37 0 39 0;
#X connect 38 0 29 0;
#X connect 39 0 31 0;
#X connect 40 0 55 0;
#X connect 40 1 1 0;
#X connect 40 2 3 0;
#X connect 40 3 52 0;
#X connect 40 4 35 0;
#X connect 41 0 32 1;
#X connect 42 0 60 0;
#X connect 42 1 15 0;
#X connect 43 0 16 1;
#X connect 44 0 0 0;
#X connect 45 0 10 1;
#X connect 45 1 43 0;
#X connect 45 2 61 0;
#X connect 46 0 54 0;
#X connect 46 0 58 0;
#X connect 47 0 48 0;
#X connect 48 0 49 0;
#X connect 49 0 48 1;
#X connect 49 0 50 0;
#X connect 50 0 53 0;
#X connect 51 0 16 0;
#X connect 51 1 7 0;
#X connect 51 2 30 0;
#X connect 51 3 8 0;
#X connect 51 4 10 0;
#X connect 51 5 32 0;
#X connect 51 6 47 0;
#X connect 52 0 45 0;
#X connect 53 0 55 1;
#X connect 53 0 56 0;
#X connect 54 0 48 1;
#X connect 54 0 49 0;
#X connect 54 0 48 0;
#X connect 55 0 44 0;
#X connect 57 0 54 0;
#X connect 60 0 51 0;
#X connect 61 0 44 1;
#X connect 62 0 9 0;
#X connect 63 0 58 0;
#X connect 63 0 59 0;
#X restore 170 26 pd train;
#N canvas 490 66 998 625 map 0;
#X obj 105 83 bng 15 250 50 0 empty empty empty 17 7 0 10 -262144 -1
-1;
#X obj 104 221 random 1000;
#X obj 104 243 * 0.001;
#X obj 184 221 random 1000;
#X obj 184 243 * 0.001;
#X obj 104 361 pack f f f;
#X msg 104 383 \$1 \, \$2 \$3;
#X obj 104 405 line;
#X floatatom 104 427 5 0 0 0 - - -, f 5;
#X obj 104 466 pack f f;
#X obj 188 361 pack f f f;
#X msg 188 383 \$1 \, \$2 \$3;
#X obj 188 405 line;
#X obj 270 271 * 0.001;
#X obj 364 268 * 0.001;
#X obj 270 293 + 0.5;
#X obj 270 219 random 300;
#X obj 364 223 random 300;
#X obj 270 241 - 150;
#X obj 364 247 - 150;
#X obj 364 296 + 0.5;
#X obj 247 91 delay;
#X obj 451 222 random 2000;
#X obj 223 65 spigot;
#X obj 450 296 t f f f;
#X msg 104 491 map \$1 \$2;
#X msg 206 490 map 1 1;
#X obj 104 513 outlet;
#X obj 274 63 + 2000;
#X obj 104 107 t b b b b b b, f 15;
#X msg 379 56 1;
#X obj 379 78 +;
#X floatatom 379 100 5 0 0 0 - - -, f 5;
#X obj 379 119 < 20;
#X msg 418 34 0;
#X obj 418 56 t f f;
#X obj 379 141 tgl 15 0 empty empty empty 17 7 0 10 -262144 -1 -1 1
1;
#X obj 418 8 loadbang;
#X connect 0 0 23 0;
#X connect 0 0 29 0;
#X connect 1 0 2 0;
#X connect 2 0 5 0;
#X connect 3 0 4 0;
#X connect 4 0 5 1;
#X connect 5 0 6 0;
#X connect 6 0 7 0;
#X connect 7 0 8 0;
#X connect 8 0 9 0;
#X connect 9 0 25 0;
#X connect 10 0 11 0;
#X connect 11 0 12 0;
#X connect 12 0 9 1;
#X connect 13 0 15 0;
#X connect 14 0 20 0;
#X connect 15 0 10 0;
#X connect 16 0 18 0;
#X connect 17 0 19 0;
#X connect 18 0 13 0;
#X connect 19 0 14 0;
#X connect 20 0 10 1;
#X connect 21 0 0 0;
#X connect 22 0 24 0;
#X connect 23 0 21 0;
#X connect 24 0 5 2;
#X connect 24 1 10 2;
#X connect 24 2 28 0;
#X connect 25 0 27 0;
#X connect 26 0 27 0;
#X connect 28 0 21 1;
#X connect 29 0 1 0;
#X connect 29 1 16 0;
#X connect 29 2 3 0;
#X connect 29 3 17 0;
#X connect 29 4 22 0;
#X connect 29 5 30 0;
#X connect 30 0 31 0;
#X connect 31 0 32 0;
#X connect 32 0 31 1;
#X connect 32 0 33 0;
#X connect 33 0 36 0;
#X connect 34 0 35 0;
#X connect 35 0 31 0;
#X connect 35 1 31 1;
#X connect 36 0 23 1;
#X connect 37 0 34 0;
#X restore 240 23 pd map;
#X obj 170 106 print 1;
#X obj 202 76 print 2;
#X obj 16 73 bng 20 250 50 0 \$0-saveModel empty Save_model 25 12 1
14 -99865 -4032 -1;
#X obj 16 102 bng 20 250 50 0 \$0-clearModel empty Clear_model 25 12
1 14 -99865 -4032 -1;
#X obj 16 42 bng 20 250 50 0 \$0-loadModel \$0-init Load_model 25 12
1 14 -99865 -4032 -1;
#N canvas 535 444 503 243 model-man 0;
#X obj 13 22 r \$0-loadModel;
#X obj 116 23 r \$0-saveModel;
#X obj 233 21 r \$0-clearModel;
#X obj 116 45 f \$1;
#X obj 13 55 f \$1;
#X msg 233 49 clear;
#X msg 13 93 read /Users/balandinodidonato/PhD/Software/System-3/pd/abstraction/ml/models/hmm-test
;
#X msg 116 146 write /Users/balandinodidonato/PhD/Software/System-3/pd/abstraction/ml/models/hmm-test
;
#X obj 13 211 outlet;
#X connect 0 0 4 0;
#X connect 1 0 3 0;
#X connect 2 0 5 0;
#X connect 3 0 7 0;
#X connect 4 0 6 0;
#X connect 5 0 8 0;
#X connect 6 0 8 0;
#X connect 7 0 8 0;
#X restore 14 19 pd model-man;
#X obj 170 50 ml.dtw;
#X connect 0 0 8 0;
#X connect 1 0 8 0;
#X connect 7 0 8 0;
#X connect 8 0 2 0;
#X connect 8 1 3 0;
