#N canvas 612 183 242 412 10;
#X obj 86 128 env~;
#X obj 86 181 vsl 28 128 0 1 0 0 empty empty empty 0 -9 0 10 -66577
-4034 -1 0 1;
#X floatatom 86 311 5 0 0 3 Level - -, f 5;
#X obj 124 181 vsl 28 128 0 2 0 0 empty empty empty 0 -9 0 10 -4032
-1 -1 6350 1;
#X floatatom 124 311 5 0 0 3 Gain - -, f 5;
#X msg 178 154 1;
#X obj 116 29 adc~ \$1;
#X obj 86 158 dbtorms;
#X obj 6 9 catch~ audioIn-\$1;
#X obj 6 103 gain~ 20;
#X obj 6 382 send~ input-\$1;
#X obj 138 159 tgl 15 0 \$0-mute empty empty 17 7 0 10 -262144 -1 -1
0 1;
#X obj 6 80 *~;
#X obj 116 51 hip~ 30;
#X obj 6 355 hip~ 50;
#N canvas 0 22 526 288 rec 0;
#X obj 184 63 inlet~;
#X msg 103 161 start;
#X msg 167 160 stop;
#X obj 114 83 r rec;
#X obj 114 105 sel 1 0;
#X obj 252 138 r namerec;
#X obj 107 135 t b b;
#X obj 221 178 f;
#X obj 424 173 f \$1;
#X obj 221 200 pack f f;
#X obj 426 130 loadbang;
#X obj 91 255 writesf~ 1;
#X msg 208 235 open ../recording/rec_\$1-input-\$2;
#X connect 0 0 11 0;
#X connect 1 0 11 0;
#X connect 2 0 11 0;
#X connect 3 0 4 0;
#X connect 4 0 6 0;
#X connect 4 1 2 0;
#X connect 5 0 7 1;
#X connect 6 0 1 0;
#X connect 6 1 7 0;
#X connect 7 0 9 0;
#X connect 8 0 9 1;
#X connect 9 0 12 0;
#X connect 10 0 8 0;
#X connect 12 0 11 0;
#X restore 100 381 pd rec;
#X obj 21 33 r \$0-mute;
#X obj 124 349 s \$0-gain;
#X obj 51 81 r \$0-gain;
#X obj 21 55 expr 1-\$1;
#X msg 206 153 0;
#X obj 178 107 loadbang;
#X obj 178 129 t b b;
#X connect 0 0 7 0;
#X connect 1 0 2 0;
#X connect 3 0 4 0;
#X connect 4 0 17 0;
#X connect 5 0 3 0;
#X connect 6 0 13 0;
#X connect 7 0 1 0;
#X connect 8 0 12 0;
#X connect 9 0 0 0;
#X connect 9 0 14 0;
#X connect 12 0 9 0;
#X connect 13 0 12 0;
#X connect 14 0 10 0;
#X connect 14 0 15 0;
#X connect 16 0 19 0;
#X connect 18 0 9 1;
#X connect 19 0 12 1;
#X connect 20 0 11 0;
#X connect 21 0 22 0;
#X connect 22 0 5 0;
#X connect 22 1 20 0;
#X coords 0 -1 1 1 80 190 1 80 150;
