#N canvas 117 227 749 432 10;
#X obj 86 84 env~;
#X obj 86 127 vsl 28 128 0 1 0 0 empty empty empty 0 -9 0 10 -66577
-4034 -1 10 1;
#X floatatom 86 257 5 0 0 3 Level - -, f 5;
#X obj 124 127 vsl 28 128 0 2 0 0 empty empty empty 0 -9 0 10 -4032
-1 -1 6150 1;
#X floatatom 124 257 5 0 0 3 Gain - -, f 5;
#X obj 180 77 loadbang;
#X msg 180 99 1;
#X obj 310 2 adc~ \$1;
#X obj 86 104 dbtorms;
#X obj 176 12 catch~ audioIn-\$1;
#X obj 6 62 gain~ 20;
#X obj 6 312 send~ input-\$1;
#X obj 138 105 tgl 15 0 empty empty empty 17 7 0 10 -262144 -1 -1 1
1;
#X obj 310 64 *~;
#X obj 350 91 +~;
#X obj 365 41 noise~;
#X obj 365 62 *~ 1e-14;
#X obj 310 24 hip~ 30;
#X obj 272 113 env~;
#X floatatom 272 135 5 0 0 0 - - -, f 5;
#X obj 6 285 hip~ 50;
#N canvas 0 22 526 288 rec 0;
#X obj 184 63 inlet~;
#X msg 103 161 start;
#X msg 167 160 stop;
#X obj 114 83 r rec;
#X obj 114 105 sel 1 0;
#X obj 252 138 r namerec;
#X obj 107 135 t b b;
#X obj 221 178 f;
#X obj 424 173 f \$1;
#X obj 221 200 pack f f;
#X obj 426 130 loadbang;
#X obj 91 255 writesf~ 1;
#X msg 208 235 open ../recording/rec_\$1-input-\$2;
#X connect 0 0 11 0;
#X connect 1 0 11 0;
#X connect 2 0 11 0;
#X connect 3 0 4 0;
#X connect 4 0 6 0;
#X connect 4 1 2 0;
#X connect 5 0 7 1;
#X connect 6 0 1 0;
#X connect 6 1 7 0;
#X connect 7 0 9 0;
#X connect 8 0 9 1;
#X connect 9 0 12 0;
#X connect 10 0 8 0;
#X connect 12 0 11 0;
#X restore 100 312 pd rec;
#X connect 0 0 8 0;
#X connect 1 0 2 0;
#X connect 3 0 4 0;
#X connect 4 0 10 1;
#X connect 5 0 6 0;
#X connect 6 0 3 0;
#X connect 7 0 17 0;
#X connect 8 0 1 0;
#X connect 9 0 18 0;
#X connect 9 0 13 0;
#X connect 10 0 0 0;
#X connect 10 0 20 0;
#X connect 12 0 13 1;
#X connect 13 0 14 0;
#X connect 14 0 10 0;
#X connect 15 0 16 0;
#X connect 16 0 14 1;
#X connect 17 0 13 0;
#X connect 18 0 19 0;
#X connect 20 0 11 0;
#X connect 20 0 21 0;
#X coords 0 -1 1 1 80 190 1 80 100;
