#N canvas 897 340 450 300 10;
#X declare -path ../audio;
#X obj 24 243 gain~ 25;
#X obj 276 11 declare -path ../audio;
#N canvas 0 22 450 300 analysis 0;
#X msg 145 158 1;
#X obj 145 180 +;
#X floatatom 145 202 5 0 0 0 - - -, f 5;
#X floatatom 110 218 5 0 0 0 - - -, f 5;
#X msg 74 157 0;
#X obj 74 46 r reset-\$1;
#X obj 144 137 spigot;
#X obj 169 116 tgl 15 0 empty empty empty 17 7 0 10 -262144 -1 -1 0
1;
#X obj 110 92 t f b b;
#X obj 208 90 text define gain-\$1;
#X obj 208 59 loadbang;
#X obj 110 72 inlet;
#X obj 110 247 text set gain-\$1;
#X connect 0 0 1 0;
#X connect 1 0 2 0;
#X connect 2 0 1 1;
#X connect 2 0 12 1;
#X connect 3 0 12 0;
#X connect 4 0 3 0;
#X connect 4 0 2 0;
#X connect 5 0 4 0;
#X connect 6 0 0 0;
#X connect 7 0 6 1;
#X connect 8 0 3 0;
#X connect 8 1 6 0;
#X connect 8 2 7 0;
#X connect 10 0 9 0;
#X connect 11 0 8 0;
#X restore 194 246 pd analysis;
#X obj 194 219 spigot;
#X obj 227 191 tgl 15 0 empty empty empty 17 7 0 10 -262144 -1 -1 0
1;
#X obj 228 99 loadbang;
#X msg 228 119 1;
#X obj 74 122 /;
#X msg 74 99 1 \$1;
#X floatatom 74 36 5 0 0 0 - - -, f 5;
#X floatatom 75 224 5 0 0 0 - - -, f 5;
#X obj 74 14 inlet;
#X obj 24 18 inlet~;
#X obj 129 13 r room;
#X obj 129 35 - 1;
#X obj 24 273 outlet~;
#X obj 75 194 t f f f;
#X obj 74 56 *;
#X obj 74 77 + 1;
#X floatatom 129 57 5 0 0 0 - - -, f 5;
#X obj 118 223 s br-\$1;
#X obj 102 269 outlet;
#X obj 74 144 * 0.7;
#X obj 74 166 + 0.3;
#X connect 0 0 15 0;
#X connect 3 0 2 0;
#X connect 4 0 3 1;
#X connect 5 0 6 0;
#X connect 7 0 22 0;
#X connect 8 0 7 0;
#X connect 9 0 17 0;
#X connect 10 0 0 1;
#X connect 10 0 21 0;
#X connect 11 0 9 0;
#X connect 12 0 0 0;
#X connect 13 0 14 0;
#X connect 14 0 17 1;
#X connect 14 0 19 0;
#X connect 16 0 10 0;
#X connect 16 1 20 0;
#X connect 16 2 3 0;
#X connect 17 0 18 0;
#X connect 18 0 8 0;
#X connect 22 0 23 0;
#X connect 23 0 16 0;
