#N canvas 238 101 333 628 10;
#X obj 15 15 inlet~;
#X obj 15 593 outlet~;
#X obj 15 568 +~;
#X obj 132 564 s stroboIntesity\$1;
#X msg 202 241 1 \$1;
#X obj 202 263 -;
#X obj 133 296 t f f;
#X obj 201 364 spigot;
#X obj 132 519 env~;
#X obj 132 541 dbtorms;
#X obj 234 341 r crumpled;
#X obj 208 448 ramp 10 1500;
#X obj 133 111 clip 0 0.9;
#X obj 202 221 clip 0 1;
#X obj 203 66 * 1000;
#X obj 203 110 * 0.001;
#X obj 203 88 biramp 10 1000;
#X obj 73 480 ../audio/delay~ 2000, f 23;
#X obj 203 132 zexy/mavg 20;
#X msg 203 154 \$1 20;
#X obj 203 176 line;
#X obj 203 198 * 5;
#X obj 202 285 * 2000;
#X obj 133 64 * 4;
#X obj 133 85 + 0.1;
#X obj 140 354 loadbang;
#X msg 140 376 1;
#X obj 140 398 metro 20;
#X obj 140 423 i;
#X obj 140 445 change;
#X obj 200 399 findmax 1 100;
#X obj 133 10 r am-\$1;
#X obj 133 32 t f f;
#X obj 201 307 + 150;
#X obj 88 323 gain~ 20;
#X obj 73 360 +~;
#X obj 73 387 *~ 0.6;
#X obj 15 524 *~ 0.7;
#X obj 73 526 *~ 0.7;
#X connect 0 0 34 0;
#X connect 0 0 35 0;
#X connect 0 0 37 0;
#X connect 2 0 1 0;
#X connect 4 0 5 0;
#X connect 5 0 22 0;
#X connect 6 0 34 1;
#X connect 6 1 11 0;
#X connect 7 0 30 0;
#X connect 8 0 9 0;
#X connect 9 0 3 0;
#X connect 10 0 7 1;
#X connect 11 0 17 2;
#X connect 12 0 6 0;
#X connect 13 0 4 0;
#X connect 14 0 16 0;
#X connect 15 0 18 0;
#X connect 16 0 15 0;
#X connect 17 0 8 0;
#X connect 17 0 38 0;
#X connect 18 0 19 0;
#X connect 19 0 20 0;
#X connect 20 0 21 0;
#X connect 21 0 13 0;
#X connect 22 0 33 0;
#X connect 23 0 24 0;
#X connect 24 0 12 0;
#X connect 25 0 26 0;
#X connect 26 0 27 0;
#X connect 27 0 28 0;
#X connect 28 0 29 0;
#X connect 29 0 17 1;
#X connect 30 0 28 1;
#X connect 31 0 32 0;
#X connect 32 0 23 0;
#X connect 32 1 14 0;
#X connect 33 0 7 0;
#X connect 34 0 35 1;
#X connect 35 0 36 0;
#X connect 36 0 17 0;
#X connect 37 0 2 0;
#X connect 38 0 2 1;
