#N canvas 357 306 343 458 10;
#X declare -path abstraction/LEDs;
#X obj 35 143 dac~ \$1;
#X obj 106 135 env~;
#X obj 106 181 vsl 28 128 0 1 0 0 empty empty empty 0 -9 0 10 -66577
-4034 -1 0 1;
#X floatatom 106 311 5 0 0 3 Level - -, f 5;
#X obj 144 181 vsl 28 128 0 2 0 0 empty empty empty 0 -9 0 10 -4034
-1 -1 6350 1;
#X floatatom 144 311 5 0 0 3 Gain - -, f 5;
#X obj 24 3 catch~ out-\$1;
#X obj 144 75 loadbang;
#X msg 144 123 1;
#X obj 217 326 r master;
#X obj 164 375 f;
#X obj 164 397 *;
#X obj 200 376 f;
#X obj 164 348 t b f b;
#X obj 217 348 t b b f;
#X obj 106 157 dbtorms;
#X obj 24 112 gain~ 20;
#X obj 146 3 declare -path abstraction/LEDs;
#X obj 157 158 tgl 15 0 \$0-mute empty empty 17 7 0 10 -262144 -1 -1
0 1;
#X obj 24 69 gain~ 20;
#N canvas 0 22 526 288 rec 0;
#X obj 184 63 inlet~;
#X msg 103 161 start;
#X msg 167 160 stop;
#X obj 114 83 r rec;
#X obj 114 105 sel 1 0;
#X obj 252 138 r namerec;
#X obj 107 135 t b b;
#X obj 221 178 f;
#X obj 424 173 f \$1;
#X obj 221 200 pack f f;
#X obj 426 130 loadbang;
#X obj 91 255 writesf~ 1;
#X msg 208 235 open ../recording/rec_\$1-output-\$2;
#X connect 0 0 11 0;
#X connect 1 0 11 0;
#X connect 2 0 11 0;
#X connect 3 0 4 0;
#X connect 4 0 6 0;
#X connect 4 1 2 0;
#X connect 5 0 7 1;
#X connect 6 0 1 0;
#X connect 6 1 7 0;
#X connect 7 0 9 0;
#X connect 8 0 9 1;
#X connect 9 0 12 0;
#X connect 10 0 8 0;
#X connect 12 0 11 0;
#X restore 24 166 pd rec;
#X obj 106 347 s env-\$1;
#X obj 69 24 r \$0-mute;
#X obj 69 46 expr 1-\$1;
#X obj 144 97 t b b;
#X msg 176 123 0;
#X obj 164 419 s \$0-gain;
#X obj 69 91 r \$0-gain;
#X connect 1 0 15 0;
#X connect 2 0 3 0;
#X connect 3 0 21 0;
#X connect 4 0 5 0;
#X connect 5 0 13 0;
#X connect 6 0 19 0;
#X connect 7 0 24 0;
#X connect 8 0 4 0;
#X connect 9 0 14 0;
#X connect 10 0 11 0;
#X connect 11 0 26 0;
#X connect 12 0 11 1;
#X connect 13 0 10 0;
#X connect 13 1 10 1;
#X connect 13 2 12 0;
#X connect 14 0 10 0;
#X connect 14 1 12 0;
#X connect 14 2 12 1;
#X connect 15 0 2 0;
#X connect 16 0 1 0;
#X connect 16 0 0 0;
#X connect 16 0 20 0;
#X connect 19 0 16 0;
#X connect 22 0 23 0;
#X connect 23 0 19 1;
#X connect 24 0 8 0;
#X connect 24 1 25 0;
#X connect 25 0 18 0;
#X connect 27 0 16 1;
#X coords 0 -1 1 1 80 190 1 100 150;
