#N canvas 357 306 657 425 10;
#X declare -path abstraction/LEDs;
#X obj 42 199 dac~ \$1;
#X obj 106 81 env~;
#X obj 106 127 vsl 28 128 0 1 0 0 empty empty empty 0 -9 0 10 -66577
-4034 -1 33 1;
#X floatatom 106 257 5 0 0 3 Level - -, f 5;
#X obj 144 127 vsl 28 128 0 2 0 0 empty empty empty 0 -9 0 10 -4034
-1 -1 6350 1;
#X floatatom 144 257 5 0 0 3 Gain - -, f 5;
#X obj 28 5 catch~ out-\$1;
#X obj 200 77 loadbang;
#X msg 200 99 1;
#X obj 217 284 r master;
#X obj 144 333 f;
#X obj 144 355 *;
#X obj 180 334 f;
#X obj 144 306 t b f b;
#X obj 217 306 t b b f;
#X obj 106 103 dbtorms;
#X obj 24 88 gain~ 20;
#X obj 309 6 declare -path abstraction/LEDs;
#X obj 67 329 s env-\$1;
#X obj 73 44 +~;
#X obj 162 11 noise~;
#X obj 162 32 *~ 1e-14;
#X obj 213 182 env~;
#X floatatom 213 204 5 0 0 0 - - -, f 5;
#X obj 37 118 outlet~;
#X obj 157 104 tgl 15 0 empty empty empty 17 7 0 10 -262144 -1 -1 1
1;
#X obj 42 65 gain~ 20;
#X obj 157 70 loadbang;
#N canvas 0 22 526 288 rec 0;
#X obj 184 63 inlet~;
#X msg 103 161 start;
#X msg 167 160 stop;
#X obj 114 83 r rec;
#X obj 114 105 sel 1 0;
#X obj 252 138 r namerec;
#X obj 107 135 t b b;
#X obj 221 178 f;
#X obj 424 173 f \$1;
#X obj 221 200 pack f f;
#X obj 426 130 loadbang;
#X obj 91 255 writesf~ 1;
#X msg 208 235 open ../recording/rec_\$1-output-\$2;
#X connect 0 0 11 0;
#X connect 1 0 11 0;
#X connect 2 0 11 0;
#X connect 3 0 4 0;
#X connect 4 0 6 0;
#X connect 4 1 2 0;
#X connect 5 0 7 1;
#X connect 6 0 1 0;
#X connect 6 1 7 0;
#X connect 7 0 9 0;
#X connect 8 0 9 1;
#X connect 9 0 12 0;
#X connect 10 0 8 0;
#X connect 12 0 11 0;
#X restore 21 272 pd rec;
#X connect 1 0 15 0;
#X connect 2 0 3 0;
#X connect 3 0 18 0;
#X connect 4 0 5 0;
#X connect 5 0 13 0;
#X connect 6 0 19 0;
#X connect 7 0 8 0;
#X connect 8 0 4 0;
#X connect 9 0 14 0;
#X connect 10 0 11 0;
#X connect 11 0 16 1;
#X connect 12 0 11 1;
#X connect 13 0 10 0;
#X connect 13 1 10 1;
#X connect 13 2 12 0;
#X connect 14 0 10 0;
#X connect 14 1 12 0;
#X connect 14 2 12 1;
#X connect 15 0 2 0;
#X connect 16 0 1 0;
#X connect 16 0 0 0;
#X connect 16 0 24 0;
#X connect 16 0 28 0;
#X connect 19 0 26 0;
#X connect 20 0 21 0;
#X connect 21 0 19 1;
#X connect 22 0 23 0;
#X connect 25 0 26 1;
#X connect 26 0 16 0;
#X connect 27 0 25 0;
#X coords 0 -1 1 1 80 190 1 100 100;
