#N canvas 817 188 538 517 10;
#X obj 77 24 sig~ 1;
#X floatatom 151 10 5 0 0 0 - - -, f 5;
#X obj 154 29 hsl 128 15 0 1 0 0 empty empty empty -2 -8 0 10 -262144
-1 -1 5200 1;
#X obj 87 290 env~;
#X obj 87 312 vsl 15 128 0 127 0 0 empty empty empty 0 -9 0 10 -262144
-1 -1 9173 1;
#X obj 142 268 *~;
#X obj 142 290 env~;
#X obj 142 312 vsl 15 128 0 127 0 0 empty empty empty 0 -9 0 10 -262144
-1 -1 0 1;
#X obj 182 268 *~;
#X obj 182 290 env~;
#X obj 182 312 vsl 15 128 0 127 0 0 empty empty empty 0 -9 0 10 -262144
-1 -1 0 1;
#X obj 222 268 *~;
#X obj 222 290 env~;
#X obj 222 312 vsl 15 128 0 127 0 0 empty empty empty 0 -9 0 10 -262144
-1 -1 0 1;
#X obj 87 241 gain~ 20;
#X floatatom 151 49 5 0 0 0 - - -, f 5;
#X obj 151 125 change;
#X obj 151 103 min 0.5;
#X obj 151 68 expr if($f1<0.5 \, $f1 \, 0.5) \; if($f1>0.5 \, $f1 \,
0.5) \;;
#X obj 310 125 change;
#X obj 310 103 max 0.5;
#X obj 131 197 expr 1-$f1;
#X floatatom 131 219 5 0 0 0 - - -, f 5;
#X obj 151 147 * 1.5;
#X floatatom 310 169 5 0 0 0 - - -, f 5;
#X floatatom 310 210 5 0 0 0 - - -, f 5;
#X obj 310 188 * 0.2;
#X connect 0 0 14 0;
#X connect 1 0 2 0;
#X connect 2 0 15 0;
#X connect 3 0 4 0;
#X connect 5 0 6 0;
#X connect 6 0 7 0;
#X connect 8 0 9 0;
#X connect 9 0 10 0;
#X connect 11 0 12 0;
#X connect 12 0 13 0;
#X connect 14 0 3 0;
#X connect 15 0 18 0;
#X connect 16 0 23 0;
#X connect 17 0 16 0;
#X connect 18 0 17 0;
#X connect 18 1 20 0;
#X connect 19 0 24 0;
#X connect 20 0 19 0;
#X connect 21 0 22 0;
#X connect 22 0 14 1;
#X connect 23 0 21 0;
#X connect 24 0 26 0;
#X connect 25 0 21 0;
#X connect 26 0 25 0;
