#N canvas 683 38 726 730 10;
#X floatatom 132 395 10 0 0 0 - - -, f 10;
#X floatatom 201 395 10 0 0 0 - - -, f 10;
#X floatatom 229 319 0 0 0 3 actual_azimuth - -;
#X floatatom 241 285 0 0 0 3 actual_elevation - -;
#X floatatom 251 264 7 0 0 1 actual_spreading - -, f 7;
#X text 170 144 to output updated values;
#X text 294 209 (ignore elevation in 2D \, that's for 3D);
#X obj 117 494 *~;
#X obj 187 495 *~;
#X floatatom 270 395 10 0 0 0 - - -, f 10;
#X floatatom 339 395 10 0 0 0 - - -, f 10;
#X obj 255 494 *~;
#X obj 324 495 *~;
#X text 283 7 Define 2D speaker arrangement with speakers at -135 \,
-45 \, 0 \, 45 and 135 degree positions (0 degrees is the center front).
This is a classic 5.1 setup.;
#X obj 132 346 route 0 1 2 3;
#X obj 132 436 vline~;
#X obj 202 436 vline~;
#X obj 270 436 vline~;
#X obj 339 438 vline~;
#X obj 195 216 f 80;
#X obj 566 91 loadbang;
#X obj 566 113 s init-\$0;
#X obj 107 93 r init-\$0;
#X obj 195 193 r init-\$0;
#X msg 132 414 \$1 30;
#X msg 202 414 \$1 30;
#X msg 270 414 \$1 30;
#X msg 339 416 \$1 30;
#X obj 132 163 inlet azimut-\$0;
#X obj 132 186 t b f;
#X obj 187 566 outlet~ signal-2-\$0;
#X obj 117 537 outlet~ signal-1-\$0;
#X obj 479 562 env~;
#X obj 479 584 vsl 15 128 0 127 0 0 empty empty empty 0 -9 0 10 -262144
-1 -1 9157 1;
#X obj 509 562 env~;
#X obj 509 584 vsl 15 128 0 127 0 0 empty empty empty 0 -9 0 10 -262144
-1 -1 9157 1;
#X obj 540 562 env~;
#X obj 540 584 vsl 15 128 0 127 0 0 empty empty empty 0 -9 0 10 -262144
-1 -1 8203 1;
#X obj 570 562 env~;
#X obj 570 584 vsl 15 128 0 127 0 0 empty empty empty 0 -9 0 10 -262144
-1 -1 8203 1;
#X obj 6 426 inlet~ signalL-\$0;
#X obj 21 448 inlet~ signalR-\$0;
#X floatatom 426 99 5 0 0 0 - - -, f 5;
#X obj 426 145 * 360;
#X msg 107 118 define_loudspeakers 2 -135 -135 -45 45;
#X obj 255 536 outlet~ signal-4-\$0;
#X obj 324 566 outlet~ signal-3-\$0;
#X obj 391 464 noise~;
#X obj 132 237 vbap 0 0 100;
#X connect 0 0 24 0;
#X connect 1 0 25 0;
#X connect 7 0 31 0;
#X connect 7 0 32 0;
#X connect 8 0 30 0;
#X connect 8 0 34 0;
#X connect 9 0 26 0;
#X connect 10 0 27 0;
#X connect 11 0 36 0;
#X connect 11 0 45 0;
#X connect 12 0 38 0;
#X connect 12 0 46 0;
#X connect 14 0 0 0;
#X connect 14 1 1 0;
#X connect 14 2 9 0;
#X connect 14 3 10 0;
#X connect 15 0 7 1;
#X connect 16 0 8 1;
#X connect 17 0 11 1;
#X connect 18 0 12 1;
#X connect 19 0 48 3;
#X connect 20 0 21 0;
#X connect 23 0 19 0;
#X connect 24 0 15 0;
#X connect 25 0 16 0;
#X connect 26 0 17 0;
#X connect 27 0 18 0;
#X connect 28 0 29 0;
#X connect 29 0 48 0;
#X connect 29 1 48 1;
#X connect 32 0 33 0;
#X connect 34 0 35 0;
#X connect 36 0 37 0;
#X connect 38 0 39 0;
#X connect 40 0 7 0;
#X connect 40 0 11 0;
#X connect 41 0 8 0;
#X connect 41 0 12 0;
#X connect 42 0 43 0;
#X connect 43 0 29 0;
#X connect 43 0 44 0;
#X connect 44 0 29 0;
#X connect 47 0 12 0;
#X connect 47 0 11 0;
#X connect 47 0 8 0;
#X connect 47 0 7 0;
#X connect 48 0 14 0;
#X connect 48 1 2 0;
#X connect 48 2 3 0;
#X connect 48 3 4 0;
