#N canvas 693 361 423 195 10;
#N canvas 0 22 238 196 lower 0;
#X obj 49 158 send~ lower;
#X obj 100 100 r lower;
#X obj 49 130 gain~ 40;
#X obj 49 32 receive~ input-1;
#X connect 1 0 2 1;
#X connect 2 0 0 0;
#X connect 3 0 2 0;
#X restore 11 33 pd lower;
#N canvas 0 22 450 300 extend 0;
#X obj 120 183 send~ extend;
#X obj 165 131 r extend;
#X obj 120 155 gain~ 40;
#X obj 120 56 receive~ input-1;
#X connect 1 0 2 1;
#X connect 2 0 0 0;
#X connect 3 0 2 0;
#X restore 12 56 pd extend;
#N canvas 591 23 474 271 vocal 1;
#X obj 25 143 throw~ out-1;
#X obj 45 163 throw~ out-2;
#X obj 25 37 receive~ input-2;
#X obj 65 183 throw~ out-3;
#X obj 85 203 throw~ out-4;
#X obj 25 89 delay~ 21 0;
#X obj 25 59 hip~ 220;
#X connect 2 0 6 0;
#X connect 5 0 0 0;
#X connect 5 0 1 0;
#X connect 5 0 3 0;
#X connect 5 0 4 0;
#X connect 6 0 5 0;
#X restore 91 10 pd vocal;
#X floatatom 203 22 5 0 0 1 clean clean --, f 5;
#X floatatom 203 62 5 0 0 1 lower lower --, f 5;
#X obj 280 41 tgl 15 0 - crumpled crumpling 17 7 0 10 -262144 -1 -1
0 1;
#X floatatom 203 42 5 0 0 1 extend extend --, f 5;
#X obj 280 61 tgl 15 0 - throwOnOFF throw 17 7 0 10 -262144 -1 -1 0
1;
#N canvas 0 23 281 191 clean 0;
#X obj 151 67 r clean;
#X floatatom 151 89 5 0 0 0 - - -, f 5;
#X obj 22 105 ../audio/gain~ 20;
#X obj 22 31 receive~ input-1;
#X obj 22 127 throw~ crumplingSig;
#X connect 0 0 1 0;
#X connect 1 0 2 1;
#X connect 2 0 4 0;
#X connect 3 0 2 0;
#X restore 12 9 pd clean;
#N canvas 268 400 744 419 crumble 0;
#X floatatom 14 36 5 0 0 0 - - -, f 5;
#X floatatom 149 106 5 0 0 1 thr - -, f 5;
#X obj 120 36 loadbang;
#X obj 234 143 send~ crumpling-1;
#X obj 244 163 send~ crumpling-2;
#X obj 254 183 send~ crumpling-3;
#X obj 234 41 catch~ crumplingSig;
#X obj 264 203 send~ crumpling-4;
#X obj 429 180 throw~ spat-1;
#X obj 439 200 throw~ spat-2;
#X obj 449 220 throw~ spat-3;
#X obj 459 240 throw~ spat-4;
#X obj 529 121 expr 1-$f1;
#X obj 374 8 r crumpled;
#X obj 14 212 >;
#X obj 14 260 s crumpled;
#X obj 234 105 ../audio/gain~ 20;
#X obj 429 150 ../audio/gain~ 20;
#X obj 377 56 ramp 5 250;
#X obj 14 65 ramp 5 400;
#X obj 14 234 change;
#X obj 14 12 r mav;
#X obj 120 58 t b b;
#X msg 120 80 0;
#X floatatom 14 133 5 0 0 0 - - -, f 5;
#X obj 14 109 normalizer 3 1;
#X obj 490 9 r throwOnOFF;
#X obj 14 87 findmax 1 100;
#X obj 14 182 spigot;
#X obj 131 167 t f f;
#X obj 131 188 sel 0;
#X msg 131 210 0;
#X obj 131 145 r crumpOnOff;
#X obj 197 22 inlet;
#X obj 131 232 t f f f;
#X obj 490 34 sel 1 0;
#X obj 490 56 t b b;
#X msg 548 96 1, f 1;
#X msg 426 77 0;
#X obj 374 30 f;
#X obj 377 78 t f f;
#X msg 150 85 0.14;
#X connect 0 0 19 0;
#X connect 1 0 14 1;
#X connect 2 0 22 0;
#X connect 6 0 16 0;
#X connect 6 0 17 0;
#X connect 12 0 17 1;
#X connect 13 0 39 0;
#X connect 14 0 20 0;
#X connect 16 0 3 0;
#X connect 16 0 4 0;
#X connect 16 0 5 0;
#X connect 16 0 7 0;
#X connect 17 0 8 0;
#X connect 17 0 9 0;
#X connect 17 0 10 0;
#X connect 17 0 11 0;
#X connect 18 0 40 0;
#X connect 19 0 27 0;
#X connect 20 0 15 0;
#X connect 21 0 0 0;
#X connect 22 0 23 0;
#X connect 22 1 41 0;
#X connect 23 0 14 0;
#X connect 24 0 28 0;
#X connect 25 0 24 0;
#X connect 26 0 35 0;
#X connect 27 0 25 0;
#X connect 28 0 14 0;
#X connect 29 0 30 0;
#X connect 29 1 28 1;
#X connect 30 0 31 0;
#X connect 31 0 16 1;
#X connect 31 0 34 0;
#X connect 32 0 29 0;
#X connect 33 0 29 0;
#X connect 34 0 18 0;
#X connect 34 0 12 0;
#X connect 34 1 14 0;
#X connect 34 2 28 1;
#X connect 35 0 36 0;
#X connect 35 1 39 0;
#X connect 36 0 37 0;
#X connect 36 1 38 0;
#X connect 37 0 17 1;
#X connect 38 0 16 1;
#X connect 39 0 18 0;
#X connect 40 0 16 1;
#X connect 40 1 12 0;
#X connect 41 0 1 0;
#X restore 11 81 pd crumble;
#X obj 280 21 tgl 15 0 empty empty crumpOnOff 17 7 0 10 -262144 -1
-1 0 1;
#X obj 91 32 loadbang;
#X msg 91 54 1;
#X obj 91 76 s crumpOnOff;
#X connect 10 0 9 0;
#X connect 11 0 12 0;
#X connect 12 0 13 0;
#X coords 0 -1 1 1 160 75 1 200 5;
