#N canvas 627 529 552 331 10;
#X msg 66 160 1;
#X obj 66 136 t b b;
#X obj 87 108 bng 15 250 50 0 empty empty empty 17 7 0 10 -262144 -1
-1;
#X obj 15 28 tgl 15 0 empty empty sample 17 7 0 10 -262144 -1 -1 0
1;
#X obj 15 60 sel 0 1;
#X msg 15 85 0;
#X msg 146 179 open /Users/balandinodidonato/Documents/water.wav;
#X msg 115 205 open /Users/balandinodidonato/Documents/backTrack.wav
;
#X obj 13 7 inlet;
#X obj 15 109 readsf~ 2;
#X obj 15 171 *~ 0.5;
#X floatatom 166 76 5 0 0 0 - - -, f 5;
#X obj 42 200 *~ 0.5;
#X obj 171 33 inlet;
#X obj 25 247 throw~ out-2;
#X obj 65 267 throw~ out-3;
#X obj 75 287 throw~ out-4;
#X msg 174 148 open /Users/balandinodidonato/Documents/harp.wav;
#X obj 15 227 throw~ audioIn-1;
#X obj 332 27 metro 2000;
#X obj 332 7 tgl 15 0 empty empty empty 17 7 0 10 -262144 -1 -1 0 1
;
#X obj 332 49 t b b;
#X msg 332 93 0.1 \, 0 200;
#X msg 412 93 0 \, 0.1 20;
#X obj 332 71 delay 20;
#X obj 332 115 vline~;
#X obj 261 61 noise~;
#X obj 261 83 *~;
#X connect 0 0 9 0;
#X connect 1 0 0 0;
#X connect 1 1 17 0;
#X connect 2 0 1 0;
#X connect 3 0 4 0;
#X connect 4 0 5 0;
#X connect 4 1 2 0;
#X connect 5 0 9 0;
#X connect 6 0 9 0;
#X connect 7 0 9 0;
#X connect 8 0 3 0;
#X connect 9 0 10 0;
#X connect 9 1 12 0;
#X connect 9 2 1 0;
#X connect 10 0 18 0;
#X connect 11 0 10 1;
#X connect 11 0 12 1;
#X connect 13 0 11 0;
#X connect 17 0 9 0;
#X connect 19 0 21 0;
#X connect 20 0 19 0;
#X connect 21 0 24 0;
#X connect 21 1 23 0;
#X connect 22 0 25 0;
#X connect 24 0 22 0;
#X connect 25 0 27 1;
#X connect 26 0 27 0;
#X connect 27 0 10 0;
#X coords 0 -1 1 1 60 40 1 10 10;
