#N canvas 647 321 463 257 10;
#X obj 61 198 outlet;
#X obj 61 44 inlet previous-tTraj;
#X obj 110 122 r initialPos;
#X obj 61 176 pack f f;
#X obj 61 90 delay;
#X obj 61 142 f;
#X obj 118 147 inlet tTraj;
#X obj 61 66 t b f;
#X connect 1 0 7 0;
#X connect 2 0 5 1;
#X connect 3 0 0 0;
#X connect 4 0 5 0;
#X connect 5 0 3 0;
#X connect 6 0 3 1;
#X connect 7 0 4 0;
#X connect 7 1 4 1;
