#N canvas 541 300 691 597 10;
#X obj 81 460 inlet current-tTraj;
#X obj 36 511 outlet;
#X obj 51 111 inlet;
#X obj 36 486 pack f f;
#X obj 36 29 inlet tPreviousTraj;
#X obj 36 462 f;
#X obj 36 80 delay;
#X obj 36 51 t b f;
#X obj 51 233 t b f;
#X obj 51 324 *;
#X obj 51 346 +;
#X obj 51 255 random 2000;
#X obj 51 277 - 1000;
#X obj 51 299 * 0.001;
#X obj 114 183 * 10000;
#X obj 148 227 * 0.5;
#X obj 148 249 i;
#X obj 114 205 t f f;
#X obj 114 227 i;
#X obj 51 368 abs;
#X floatatom 51 133 5 0 0 0 - - -, f 5;
#X obj 51 151 t f f f;
#X obj 51 389 * 1000;
#X obj 51 433 * 0.001;
#X obj 51 411 % 1000;
#X connect 0 0 3 1;
#X connect 2 0 20 0;
#X connect 3 0 1 0;
#X connect 4 0 7 0;
#X connect 5 0 3 0;
#X connect 6 0 5 0;
#X connect 7 0 6 0;
#X connect 7 1 6 1;
#X connect 8 0 11 0;
#X connect 8 1 9 1;
#X connect 9 0 10 0;
#X connect 10 0 19 0;
#X connect 11 0 12 0;
#X connect 12 0 13 0;
#X connect 13 0 9 0;
#X connect 14 0 17 0;
#X connect 15 0 16 0;
#X connect 16 0 12 1;
#X connect 17 0 18 0;
#X connect 17 1 15 0;
#X connect 18 0 11 1;
#X connect 19 0 22 0;
#X connect 20 0 21 0;
#X connect 21 0 8 0;
#X connect 21 1 10 1;
#X connect 21 2 14 0;
#X connect 22 0 24 0;
#X connect 23 0 5 1;
#X connect 24 0 23 0;
