#N canvas 0 22 450 300 10;
#X obj 20 31 receive~ throw;
#X obj 20 207 +~;
#X obj 65 89 t f f;
#X obj 65 66 inlet;
#X obj 92 120 expr 1-\$1;
#X obj 47 152 receive~ reverbered;
#X obj 20 229 throw~ out-\$1;
#X obj 20 113 gain~ 20;
#X obj 47 175 gain~ 20;
#X connect 0 0 7 0;
#X connect 1 0 6 0;
#X connect 2 0 7 1;
#X connect 2 1 4 0;
#X connect 3 0 2 0;
#X connect 4 0 8 1;
#X connect 5 0 8 0;
#X connect 7 0 1 0;
#X connect 8 0 1 1;
