#N canvas 429 194 733 557 10;
#X obj 51 223 tTraj4;
#X obj 70 203 tTraj3;
#X obj 89 183 tTraj2;
#X obj 33 130 pack;
#X obj 33 243 tTraj5;
#X obj 33 103 random 4;
#X obj 33 156 route 3 2 1 0;
#X msg 34 58 400;
#X obj 34 80 t b f;
#X connect 3 0 6 0;
#X connect 5 0 3 0;
#X connect 6 0 4 0;
#X connect 6 1 0 0;
#X connect 6 2 1 0;
#X connect 6 3 2 0;
#X connect 7 0 8 0;
#X connect 8 0 5 0;
#X connect 8 1 3 1;
