#N canvas 443 446 457 388 10;
#X obj 25 327 pack f f f;
#X obj 25 85 f;
#X obj 53 265 t f f;
#X obj 24 4 inlet bang;
#X obj 82 285 inlet current-tTraj;
#X obj 25 369 outlet;
#X obj 40 59 r initialPos;
#X obj 53 89 t b f;
#X obj 53 194 *;
#X obj 53 216 +;
#X obj 25 37 t b f f f;
#X obj 53 111 random 2000;
#X obj 53 133 - 1000;
#X obj 53 155 * 0.001;
#X obj 144 83 * 10000;
#X obj 178 127 * 0.5;
#X obj 178 149 i;
#X obj 144 105 t f f;
#X obj 144 127 i;
#X floatatom 227 277 5 0 0 0 - - -, f 5;
#X obj 53 238 abs;
#X msg 25 349 \$1 \, \$2 \$3;
#X floatatom 113 258 5 0 0 0 - - -, f 5;
#X connect 0 0 21 0;
#X connect 1 0 0 0;
#X connect 2 0 0 1;
#X connect 2 0 19 0;
#X connect 3 0 10 0;
#X connect 4 0 0 2;
#X connect 6 0 1 1;
#X connect 7 0 11 0;
#X connect 7 1 8 1;
#X connect 8 0 9 0;
#X connect 9 0 20 0;
#X connect 10 0 1 0;
#X connect 10 1 7 0;
#X connect 10 2 9 1;
#X connect 10 3 14 0;
#X connect 11 0 12 0;
#X connect 12 0 13 0;
#X connect 13 0 8 0;
#X connect 14 0 17 0;
#X connect 15 0 16 0;
#X connect 16 0 12 1;
#X connect 17 0 18 0;
#X connect 17 1 15 0;
#X connect 18 0 11 1;
#X connect 20 0 2 0;
#X connect 20 0 22 0;
#X connect 21 0 5 0;
