#N canvas 648 227 526 571 10;
#X declare -path abstraction/audio;
#X declare -path abstraction/extend;
#X obj 140 415 delay;
#X obj 7 15 declare -path abstraction/audio;
#X obj 7 35 declare -path abstraction/extend;
#X obj 112 190 f;
#X obj 140 454 s endThrow;
#X obj 140 370 t b f;
#X obj 140 436 bng 15 250 50 0 empty empty empty 17 7 0 10 -262144
-1 -1;
#X obj 7 405 line 0 0;
#X obj 272 23 bng 15 250 50 0 empty throw empty 17 7 0 10 -262144 -1
-1;
#X obj 48 169 f;
#X obj 7 74 r throw;
#X obj 65 310 +;
#X msg 7 384 \$2 \, \$1 \$3;
#X obj 7 361 pack f f f;
#X obj 113 326 t f f;
#X obj 7 427 * 1000;
#X obj 7 448 mod 1000;
#X obj 7 470 * 0.001;
#X obj 7 310 -;
#X obj 112 212 t f f f;
#N canvas 640 340 564 392 anlz 0;
#X obj 151 185 >;
#X obj 117 161 f;
#X obj 151 212 sel 1;
#X obj 52 158 f;
#X obj 89 214 sel 1;
#X obj 89 187 <;
#X obj 10 252 f;
#X obj 10 7 inlet;
#X obj 10 322 outlet;
#X obj 29 302 outlet;
#X obj 50 126 t f b f;
#X obj 112 129 t f b f;
#X obj 50 8 r yaw;
#X obj 50 101 t f f;
#X text 102 8 Analises direction of the throwing gesture;
#X obj 50 79 zexy/mavg 10;
#X msg 89 236 1;
#X msg 151 234 0;
#X obj 10 274 sel 0 1;
#X text 141 27 It gives 0 when throwing left and a 1 when trowing right
;
#X msg 50 30 1 \$1;
#X obj 50 52 -;
#X obj 98 322 bng 15 250 50 0 empty empty empty 17 7 0 10 -262144 -1
-1;
#X obj 141 317 bng 15 250 50 0 empty empty empty 17 7 0 10 -262144
-1 -1;
#X connect 0 0 2 0;
#X connect 1 0 0 1;
#X connect 2 0 17 0;
#X connect 3 0 5 1;
#X connect 4 0 16 0;
#X connect 5 0 4 0;
#X connect 6 0 18 0;
#X connect 7 0 6 0;
#X connect 10 0 3 1;
#X connect 10 1 3 0;
#X connect 10 2 5 0;
#X connect 11 0 1 1;
#X connect 11 1 1 0;
#X connect 11 2 0 0;
#X connect 12 0 20 0;
#X connect 13 0 10 0;
#X connect 13 1 11 0;
#X connect 15 0 13 0;
#X connect 16 0 6 1;
#X connect 17 0 6 1;
#X connect 18 0 8 0;
#X connect 18 0 22 0;
#X connect 18 1 9 0;
#X connect 18 1 23 0;
#X connect 20 0 21 0;
#X connect 21 0 15 0;
#X restore 7 138 pd anlz;
#X obj 7 192 t f f;
#X obj 7 170 f;
#X obj 73 138 t f f;
#X obj 48 191 t f f;
#X text 194 387 trigger the end of the trajectory;
#X text 193 405 and it stops overrinding yaw values;
#X text 65 430 module;
#X text 64 445 to spin;
#X text 65 458 around;
#X text 12 232 T direction;
#X obj 7 493 s trajectory;
#X text 177 236 calculates the maximum value over 200 ms;
#X obj 182 216 s throwOnOFF;
#X msg 182 189 1;
#X obj 7 98 t b b b;
#X obj 127 167 r yaw;
#X obj 7 214 * 4;
#X obj 48 213 * 4;
#X msg 7 279 \$2 \$1;
#X obj 7 258 pack f f;
#X msg 65 279 \$2 \$1;
#X obj 65 258 pack f f;
#X obj 220 462 s throwOnOFF;
#X msg 220 440 0;
#N canvas 0 22 450 300 throwing-Recognition 0;
#X obj 39 64 findmax 1 200;
#X obj 39 86 t f f;
#N canvas 0 22 532 414 max-acc-among-three 0;
#X obj 19 20 r acc;
#X obj 19 44 unpack f f f, f 33;
#X floatatom 23 291 5 0 0 0 - - -, f 5;
#X obj 23 310 outlet;
#X obj 19 106 t f f f f, f 15;
#X obj 117 106 t f f f f, f 14;
#X obj 215 106 t f f f f, f 14;
#X obj 19 135 expr if($f1>$f2 && $f1>$f3 \, 1 \, 0);
#X obj 79 157 expr if($f2>$f1 && $f2>$f3 \, 2 \, 0);
#X obj 23 234 sel 1;
#X obj 98 233 sel 2;
#X obj 210 228 sel 3;
#X obj 19 157 t f f f;
#X obj 79 179 t f f f;
#X obj 171 201 t f f f;
#X obj 171 179 expr if($f3>$f1 && $f3>$f2 \, 3 \, 0);
#X obj 23 260 f;
#X obj 98 260 f;
#X obj 210 253 f;
#X obj 19 66 zexy/mavg 2;
#X obj 117 66 zexy/mavg 2;
#X obj 215 66 zexy/mavg 2;
#X connect 0 0 1 0;
#X connect 1 0 19 0;
#X connect 1 1 20 0;
#X connect 1 2 21 0;
#X connect 2 0 3 0;
#X connect 4 0 7 0;
#X connect 4 1 8 0;
#X connect 4 2 15 0;
#X connect 4 3 16 1;
#X connect 5 0 7 1;
#X connect 5 1 8 1;
#X connect 5 2 15 1;
#X connect 5 3 17 1;
#X connect 6 0 7 2;
#X connect 6 1 8 2;
#X connect 6 2 15 2;
#X connect 6 3 11 1;
#X connect 7 0 12 0;
#X connect 8 0 13 0;
#X connect 9 0 16 0;
#X connect 10 0 17 0;
#X connect 11 0 18 0;
#X connect 12 0 9 0;
#X connect 12 1 10 0;
#X connect 12 2 11 0;
#X connect 13 0 9 0;
#X connect 13 1 10 0;
#X connect 13 2 11 0;
#X connect 14 0 9 0;
#X connect 14 1 10 0;
#X connect 14 2 11 0;
#X connect 15 0 14 0;
#X connect 16 0 2 0;
#X connect 17 0 2 0;
#X connect 18 0 2 0;
#X connect 19 0 4 0;
#X connect 20 0 5 0;
#X connect 21 0 6 0;
#X restore 39 41 pd max-acc-among-three;
#X obj 249 43 r mav;
#X obj 249 65 findmax 1 200;
#X floatatom 249 85 5 0 0 0 - - -, f 5;
#X obj 66 130 expr if($f1==1 && $f2==1 \, 1 \, 0);
#X obj 66 152 sel 1;
#X obj 39 205 outlet;
#X obj 249 106 > 0.2;
#X floatatom 127 109 5 0 0 0 - - -, f 5;
#X obj 66 108 > 0.3;
#X obj 66 174 s throw;
#X connect 0 0 1 0;
#X connect 0 0 10 0;
#X connect 1 0 8 0;
#X connect 1 1 11 0;
#X connect 2 0 0 0;
#X connect 3 0 4 0;
#X connect 4 0 5 0;
#X connect 5 0 9 0;
#X connect 6 0 7 0;
#X connect 9 0 6 1;
#X connect 11 0 6 0;
#X restore 73 77 pd throwing-Recognition;
#X obj 113 282 + 0.1;
#X obj 113 303 * 2000;
#X connect 0 0 6 0;
#X connect 3 0 19 0;
#X connect 5 0 0 0;
#X connect 5 1 0 1;
#X connect 6 0 4 0;
#X connect 6 0 44 0;
#X connect 7 0 15 0;
#X connect 9 0 24 0;
#X connect 10 0 35 0;
#X connect 11 0 13 0;
#X connect 12 0 7 0;
#X connect 13 0 12 0;
#X connect 14 0 13 2;
#X connect 14 1 5 0;
#X connect 15 0 16 0;
#X connect 16 0 17 0;
#X connect 17 0 31 0;
#X connect 18 0 13 0;
#X connect 19 0 40 1;
#X connect 19 1 42 1;
#X connect 19 2 13 1;
#X connect 20 0 22 0;
#X connect 20 1 9 0;
#X connect 21 0 37 0;
#X connect 21 1 46 0;
#X connect 22 0 21 0;
#X connect 23 0 22 1;
#X connect 23 1 9 1;
#X connect 24 0 38 0;
#X connect 24 1 46 0;
#X connect 34 0 33 0;
#X connect 35 0 20 0;
#X connect 35 1 3 0;
#X connect 35 2 34 0;
#X connect 36 0 3 1;
#X connect 37 0 40 0;
#X connect 38 0 42 0;
#X connect 39 0 18 0;
#X connect 40 0 39 0;
#X connect 41 0 11 0;
#X connect 42 0 41 0;
#X connect 44 0 43 0;
#X connect 45 0 23 0;
#X connect 46 0 47 0;
#X connect 47 0 14 0;
#X coords 0 -1 1 1 80 20 1 210 20;
