#N canvas 26 414 614 389 10;
#X obj 496 110 +;
#X obj 496 157 +;
#X obj 511 89 r tTraj-2-\$0;
#X obj 511 134 r tTraj-1-\$0;
#X obj 496 67 +;
#X obj 511 43 r tTraj-3-\$0;
#X obj 496 22 r tTraj-4-\$0;
#X obj 25 22 inlet;
#X obj 134 141 r tTraj-2-\$0;
#X obj 76 97 r tTraj-1-\$0;
#X obj 25 351 outlet;
#X obj 397 151 s tTraj-1-\$0;
#X obj 380 214 s tTraj-2-\$0;
#X obj 397 109 * 0.25;
#X obj 363 279 s tTraj-3-\$0;
#X obj 380 171 * 0.5;
#X obj 208 275 endTraj, f 8;
#X obj 25 44 t f f;
#X obj 363 237 * 0.75;
#X obj 346 88 t f f f f;
#X obj 346 324 s tTraj-4-\$0;
#X obj 148 207 +;
#X obj 25 71 t f f f;
#X obj 253 251 r tTraj-4-\$0;
#X obj 208 253 +;
#X obj 148 251 midTraj, f 8;
#X obj 89 185 midTraj, f 8;
#X obj 76 117 t f f f;
#X obj 134 163 t f f;
#X obj 193 186 r tTraj-3-\$0;
#X obj 193 208 t f f;
#X obj 148 229 t f f;
#X obj 496 184 outlet;
#X obj 25 140 startTraj;
#X obj 346 298 i;
#X obj 363 259 i;
#X obj 380 193 i;
#X obj 397 131 i;
#X floatatom 495 219 5 0 0 0 - - -, f 5;
#X obj 346 65 * 2000;
#X connect 0 0 1 0;
#X connect 1 0 32 0;
#X connect 1 0 38 0;
#X connect 2 0 0 1;
#X connect 3 0 1 1;
#X connect 4 0 0 0;
#X connect 5 0 4 1;
#X connect 6 0 4 0;
#X connect 7 0 17 0;
#X connect 8 0 28 0;
#X connect 9 0 27 0;
#X connect 13 0 37 0;
#X connect 15 0 36 0;
#X connect 16 0 10 0;
#X connect 17 0 22 0;
#X connect 17 1 39 0;
#X connect 18 0 35 0;
#X connect 19 0 34 0;
#X connect 19 1 18 0;
#X connect 19 2 15 0;
#X connect 19 3 13 0;
#X connect 21 0 31 0;
#X connect 22 0 33 0;
#X connect 22 1 26 1;
#X connect 22 2 25 1;
#X connect 23 0 16 1;
#X connect 24 0 16 0;
#X connect 25 0 10 0;
#X connect 26 0 10 0;
#X connect 27 0 33 1;
#X connect 27 1 26 0;
#X connect 27 2 21 1;
#X connect 28 0 26 2;
#X connect 28 1 21 0;
#X connect 29 0 30 0;
#X connect 30 0 25 2;
#X connect 30 1 24 0;
#X connect 31 0 25 0;
#X connect 31 1 24 1;
#X connect 33 0 10 0;
#X connect 34 0 20 0;
#X connect 35 0 14 0;
#X connect 36 0 12 0;
#X connect 37 0 11 0;
#X connect 39 0 19 0;
