#N canvas 0 22 812 580 10;
#X obj 676 160 +;
#X obj 676 231 s tTraj-Tot;
#X msg 25 498 \$1 \, \$2 \$3;
#X obj 25 520 line 0 0;
#X obj 116 544 hsl 128 15 0 1 0 0 empty empty empty -2 -8 0 10 -262144
-1 -1 0 1;
#X obj 25 78 expr 1-$f1;
#X obj 25 100 * 1000;
#X obj 25 8 inlet;
#X obj 676 207 +;
#X obj 282 544 s currentPos;
#X msg 282 519 0.5;
#X msg 115 25 0.5;
#X msg 76 25 0;
#X msg 158 27 1;
#X obj 25 58 min 0.9;
#X obj 95 307 r tTraj-1-\$0;
#X obj 154 372 r tTraj-3-\$0;
#X obj 25 318 startTraj;
#X obj 76 285 r tTraj-1-\$0;
#X obj 569 33 r tTraj-1;
#X floatatom 569 55 5 0 0 0 - - -, f 5;
#X floatatom 508 55 5 0 0 0 - - -, f 5;
#X obj 508 33 r tTraj-2;
#X obj 596 104 s tTraj-1-\$0;
#X obj 508 97 +;
#X obj 535 142 s tTraj-2-\$0;
#X obj 569 74 t f f;
#X obj 508 119 t f f;
#X obj 691 139 r tTraj-2-\$0;
#X obj 691 184 r tTraj-1-\$0;
#X floatatom 761 233 5 0 0 0 - - -, f 5;
#X floatatom 446 55 5 0 0 0 - - -, f 5;
#X obj 446 147 +;
#X obj 446 169 t f f;
#X obj 473 194 s tTraj-3-\$0;
#X obj 446 33 r tTraj-3;
#X floatatom 363 55 5 0 0 0 - - -, f 5;
#X obj 363 147 +;
#X obj 363 169 t f f;
#X obj 363 33 r tTraj-4;
#X obj 676 117 +;
#X obj 691 93 r tTraj-3-\$0;
#X obj 173 394 r tTraj-3-\$0;
#X obj 193 416 r tTraj-4-\$0;
#X obj 232 458 r tTraj-5-\$0;
#X obj 691 45 r tTraj-4-\$0;
#X obj 676 70 +;
#X floatatom 300 55 5 0 0 0 - - -, f 5;
#X obj 300 200 +;
#X obj 390 195 s tTraj-4-\$0;
#X obj 300 223 s tTraj-5-\$0;
#X obj 300 33 r tTraj-5;
#X obj 25 122 t b f f f f f;
#X obj 100 149 tTraj 1;
#X obj 85 169 tTraj 2;
#X obj 70 189 tTraj 3;
#X obj 55 209 tTraj 4;
#X obj 676 25 r tTraj-5-\$0;
#X obj 40 229 tTraj 5;
#X obj 115 328 r tTraj-2-\$0;
#X obj 134 349 r tTraj-2-\$0;
#X obj 212 436 r tTraj-4-\$0;
#X obj 25 542 outlet;
#X obj 193 482 endTraj;
#X obj 76 350 midTraj;
#X obj 115 396 midTraj;
#X obj 154 440 midTraj;
#X connect 0 0 8 0;
#X connect 2 0 3 0;
#X connect 3 0 4 0;
#X connect 3 0 62 0;
#X connect 5 0 6 0;
#X connect 6 0 52 0;
#X connect 7 0 14 0;
#X connect 8 0 1 0;
#X connect 8 0 30 0;
#X connect 10 0 9 0;
#X connect 11 0 14 0;
#X connect 12 0 14 0;
#X connect 13 0 14 0;
#X connect 14 0 5 0;
#X connect 15 0 64 1;
#X connect 16 0 65 2;
#X connect 17 0 2 0;
#X connect 17 1 64 0;
#X connect 18 0 17 1;
#X connect 19 0 20 0;
#X connect 20 0 26 0;
#X connect 21 0 24 0;
#X connect 22 0 21 0;
#X connect 24 0 27 0;
#X connect 26 0 24 1;
#X connect 26 1 23 0;
#X connect 27 0 32 1;
#X connect 27 1 25 0;
#X connect 28 0 0 1;
#X connect 29 0 8 1;
#X connect 31 0 32 0;
#X connect 32 0 33 0;
#X connect 33 0 37 1;
#X connect 33 1 34 0;
#X connect 35 0 31 0;
#X connect 36 0 37 0;
#X connect 37 0 38 0;
#X connect 38 0 48 1;
#X connect 38 1 49 0;
#X connect 39 0 36 0;
#X connect 40 0 0 0;
#X connect 41 0 40 1;
#X connect 42 0 66 1;
#X connect 43 0 66 2;
#X connect 44 0 63 2;
#X connect 45 0 46 1;
#X connect 46 0 40 0;
#X connect 47 0 48 0;
#X connect 48 0 50 0;
#X connect 51 0 47 0;
#X connect 52 0 17 0;
#X connect 52 1 58 0;
#X connect 52 2 56 0;
#X connect 52 3 55 0;
#X connect 52 4 54 0;
#X connect 52 5 53 0;
#X connect 57 0 46 0;
#X connect 59 0 64 2;
#X connect 60 0 65 1;
#X connect 61 0 63 1;
#X connect 63 0 2 0;
#X connect 64 0 2 0;
#X connect 64 1 65 0;
#X connect 65 0 2 0;
#X connect 65 1 66 0;
#X connect 66 0 2 0;
#X connect 66 1 63 0;
