#N canvas 160 325 399 345 10;
#X obj 28 33 inlet;
#X obj 274 268 +;
#X obj 79 226 r tTraj-1-\$0;
#X obj 172 250 r tTraj-2-\$0;
#X obj 28 310 outlet;
#X obj 134 135 * 0.5;
#X obj 134 178 s tTraj-1-\$0;
#X obj 94 198 s tTraj-2-\$0;
#X obj 75 110 t f f f;
#X obj 28 62 t f f;
#X obj 91 249 r tTraj-1-\$0;
#X obj 91 280 endTraj, f 14;
#X obj 289 245 r tTraj-1-\$0;
#X obj 274 224 r tTraj-2-\$0;
#X obj 274 292 outlet;
#X obj 94 175 i;
#X obj 134 157 i;
#X obj 28 249 startTraj;
#X obj 75 87 * 2500;
#X connect 0 0 9 0;
#X connect 1 0 14 0;
#X connect 2 0 17 1;
#X connect 3 0 11 1;
#X connect 5 0 16 0;
#X connect 8 1 15 0;
#X connect 8 2 5 0;
#X connect 9 0 17 0;
#X connect 9 1 18 0;
#X connect 10 0 11 0;
#X connect 11 0 4 0;
#X connect 12 0 1 1;
#X connect 13 0 1 0;
#X connect 15 0 7 0;
#X connect 16 0 6 0;
#X connect 17 0 4 0;
#X connect 18 0 8 0;
