#N canvas 290 234 439 494 10;
#X obj 315 74 +;
#X obj 315 145 s tTraj-Tot;
#X obj 25 8 inlet;
#X obj 315 121 +;
#X obj 139 293 r tTraj-2-\$0;
#X obj 275 375 r tTraj-3-\$0;
#X obj 76 239 r tTraj-1-\$0;
#X obj 315 31 r tTraj-3-\$0;
#X obj 330 53 r tTraj-2-\$0;
#X obj 330 98 r tTraj-1-\$0;
#X obj 25 452 outlet;
#X obj 156 134 s tTraj-1-\$0;
#X obj 117 156 s tTraj-2-\$0;
#X obj 98 72 t f f f;
#X obj 156 92 * 0.25;
#X obj 98 198 s tTraj-3-\$0;
#X obj 117 114 * 0.5;
#X obj 194 399 endTraj, f 12;
#X obj 25 30 t f f;
#X obj 25 281 startTraj;
#X obj 25 122 t f f;
#X obj 76 347 midTraj, f 11;
#X obj 139 315 t f f;
#X obj 194 367 +;
#X obj 76 261 t f f f;
#X obj 251 465 outlet;
#X obj 98 177 i;
#X obj 117 136 i;
#X obj 156 114 i;
#X obj 98 49 * 2500;
#X connect 0 0 3 0;
#X connect 2 0 18 0;
#X connect 3 0 1 0;
#X connect 3 0 25 0;
#X connect 4 0 22 0;
#X connect 5 0 17 1;
#X connect 6 0 24 0;
#X connect 7 0 0 0;
#X connect 8 0 0 1;
#X connect 9 0 3 1;
#X connect 13 0 26 0;
#X connect 13 1 16 0;
#X connect 13 2 14 0;
#X connect 14 0 28 0;
#X connect 16 0 27 0;
#X connect 17 0 10 0;
#X connect 18 0 20 0;
#X connect 18 1 29 0;
#X connect 19 0 10 0;
#X connect 20 0 19 0;
#X connect 20 1 21 1;
#X connect 21 0 10 0;
#X connect 22 0 21 2;
#X connect 22 1 23 0;
#X connect 23 0 17 0;
#X connect 24 0 19 1;
#X connect 24 1 21 0;
#X connect 24 2 23 1;
#X connect 26 0 15 0;
#X connect 27 0 12 0;
#X connect 28 0 11 0;
#X connect 29 0 13 0;
