#N canvas 0 22 450 300 10;
#X obj 69 141 + 200;
#X floatatom 69 163 5 0 0 0 - - -, f 5;
#X obj 69 119 random;
#X obj 69 87 t b f;
#X obj 69 183 s tTraj-\$1;
#X obj 69 61 inlet;
#X connect 0 0 1 0;
#X connect 1 0 4 0;
#X connect 2 0 0 0;
#X connect 3 0 2 0;
#X connect 3 1 2 1;
#X connect 5 0 3 0;
