#N canvas 0 22 535 448 10;
#X obj 93 28 inlet;
#X floatatom 93 51 5 0 0 0 - - -, f 5;
#X obj 93 198 > 0;
#X obj 93 220 sel 1 0;
#X obj 93 260 f;
#X obj 162 259 f;
#X obj 150 219 t f f;
#X msg 93 314 \$1 20;
#X obj 93 346 line;
#X floatatom 93 367 5 0 0 0 - - -, f 5;
#X msg 143 313 \$1 1000;
#X obj 93 99 abs;
#X obj 93 121 t b f f;
#X obj 93 173 -;
#X obj 123 153 f;
#X obj 93 70 t f f;
#X obj 93 282 pack f \$1;
#X obj 162 281 pack f \$2;
#X obj 93 386 outlet;
#X connect 0 0 1 0;
#X connect 1 0 15 0;
#X connect 2 0 3 0;
#X connect 3 0 4 0;
#X connect 3 1 5 0;
#X connect 4 0 16 0;
#X connect 5 0 17 0;
#X connect 6 0 4 1;
#X connect 6 1 5 1;
#X connect 7 0 8 0;
#X connect 8 0 9 0;
#X connect 9 0 18 0;
#X connect 10 0 8 0;
#X connect 11 0 12 0;
#X connect 12 0 14 0;
#X connect 12 1 13 0;
#X connect 12 2 14 1;
#X connect 13 0 2 0;
#X connect 14 0 13 1;
#X connect 15 0 11 0;
#X connect 15 1 6 0;
#X connect 16 0 7 0;
#X connect 17 0 10 0;
