#N canvas 0 22 752 487 10;
#X obj 358 223 f;
#X obj 343 246 >;
#X obj 401 392 -;
#X msg 401 373 1 \$1;
#X obj 245 179 t b f f f f;
#X obj 44 31 inlet;
#X obj 369 350 line 0;
#X obj 260 340 line 0;
#X obj 259 382 spigot;
#X obj 368 412 spigot;
#X obj 78 207 f;
#X obj 161 357 -;
#X msg 161 338 1 \$1;
#X obj 44 174 t b f f f f;
#X obj 29 448 outlet;
#X obj 128 317 line 0;
#X obj 29 335 line 0;
#X obj 29 377 spigot;
#X obj 128 377 spigot;
#X obj 62 241 <;
#X obj 272 104 >= 0.5;
#X obj 245 159 spigot, f 9;
#X obj 272 126 t f f;
#X obj 44 151 spigot;
#X msg 77 106 1 \$1;
#X obj 77 128 - 1;
#X obj 245 79 t f f;
#X obj 44 53 t f f, f 24;
#X obj 393 65 \$1;
#X obj 444 65 \$2;
#X obj 369 324 pack f f;
#X obj 29 306 pack f f;
#X obj 393 87 s a-\$0;
#X obj 444 87 s r-\$0;
#X obj 393 20 loadbang;
#X obj 393 42 t b b, f 9;
#X obj 74 280 r a-\$0;
#X obj 414 298 r r-\$0;
#X obj 128 295 pack f f;
#X obj 173 269 r r-\$0;
#X obj 260 317 pack f f;
#X obj 305 291 r a-\$0;
#X text 372 143 generates a ramp with adjustable attach and delay centred
around 0.5;
#X connect 0 0 1 1;
#X connect 1 0 8 1;
#X connect 1 0 3 0;
#X connect 2 0 9 1;
#X connect 3 0 2 0;
#X connect 4 0 0 0;
#X connect 4 1 40 0;
#X connect 4 2 30 0;
#X connect 4 3 1 0;
#X connect 4 4 0 1;
#X connect 5 0 27 0;
#X connect 6 0 9 0;
#X connect 7 0 8 0;
#X connect 8 0 14 0;
#X connect 9 0 14 0;
#X connect 10 0 19 1;
#X connect 11 0 18 1;
#X connect 12 0 11 0;
#X connect 13 0 10 0;
#X connect 13 1 31 0;
#X connect 13 2 38 0;
#X connect 13 3 19 0;
#X connect 13 4 10 1;
#X connect 15 0 18 0;
#X connect 16 0 17 0;
#X connect 17 0 14 0;
#X connect 18 0 14 0;
#X connect 19 0 12 0;
#X connect 19 0 17 1;
#X connect 20 0 22 0;
#X connect 21 0 4 0;
#X connect 22 0 24 0;
#X connect 22 1 21 1;
#X connect 23 0 13 0;
#X connect 24 0 25 0;
#X connect 25 0 23 1;
#X connect 26 0 21 0;
#X connect 26 1 20 0;
#X connect 27 0 23 0;
#X connect 27 1 26 0;
#X connect 28 0 32 0;
#X connect 29 0 33 0;
#X connect 30 0 6 0;
#X connect 31 0 16 0;
#X connect 34 0 35 0;
#X connect 35 0 28 0;
#X connect 35 1 29 0;
#X connect 36 0 31 1;
#X connect 37 0 30 1;
#X connect 38 0 15 0;
#X connect 39 0 38 1;
#X connect 40 0 7 0;
#X connect 41 0 40 1;
