#N canvas 260 354 1003 463 10;
#X obj 23 43 oscparse;
#X obj 23 65 list trim;
#X obj 23 21 netreceive -u -b 9000;
#X obj 23 87 route yaw mav emg;
#X floatatom 30 131 5 0 0 0 - - -, f 5;
#X floatatom 89 130 5 0 0 0 - - -, f 5;
#X obj 160 121 unpack f f f f f f f f;
#X floatatom 162 158 5 0 0 0 - - -, f 5;
#X floatatom 215 159 5 0 0 0 - - -, f 5;
#X floatatom 253 162 5 0 0 0 - - -, f 5;
#X floatatom 306 163 5 0 0 0 - - -, f 5;
#X floatatom 345 164 5 0 0 0 - - -, f 5;
#X floatatom 388 165 5 0 0 0 - - -, f 5;
#X floatatom 432 164 5 0 0 0 - - -, f 5;
#X floatatom 476 165 5 0 0 0 - - -, f 5;
#X connect 0 0 1 0;
#X connect 1 0 3 0;
#X connect 2 0 0 0;
#X connect 3 0 4 0;
#X connect 3 1 5 0;
#X connect 3 2 6 0;
#X connect 6 0 7 0;
#X connect 6 1 8 0;
#X connect 6 2 9 0;
#X connect 6 3 10 0;
#X connect 6 4 11 0;
#X connect 6 5 12 0;
#X connect 6 6 13 0;
#X connect 6 7 14 0;
