#N canvas 0 22 336 509 10;
#X obj 68 13 inlet;
#X msg 68 99 1;
#X obj 68 141 metro 1000;
#X obj 68 121 tgl 15 0 empty empty empty 17 7 0 10 -262144 -1 -1 0
1;
#X msg 68 163 1;
#X obj 68 185 +;
#X floatatom 68 207 5 0 0 0 - - -, f 5;
#X obj 68 226 > 1;
#X obj 68 248 sel 1;
#X msg 68 310 1;
#X obj 67 404 spigot;
#X msg 113 308 0;
#X msg 176 307 0;
#X obj 68 270 t b b;
#X obj 101 372 tgl 15 0 empty empty empty 17 7 0 10 -262144 -1 -1 0
1;
#X obj 67 465 outlet;
#X floatatom 67 448 5 0 0 0 - - -, f 5;
#X obj 68 35 change;
#X obj 68 347 t b f;
#X obj 68 369 f;
#X obj 68 77 t b b f f;
#X obj 67 426 change;
#X obj 144 116 f \$1;
#X obj 144 75 loadbang;
#X connect 0 0 17 0;
#X connect 1 0 3 0;
#X connect 2 0 4 0;
#X connect 3 0 2 0;
#X connect 4 0 5 0;
#X connect 5 0 6 0;
#X connect 6 0 5 1;
#X connect 6 0 7 0;
#X connect 7 0 8 0;
#X connect 8 0 13 0;
#X connect 9 0 18 0;
#X connect 10 0 21 0;
#X connect 11 0 14 0;
#X connect 11 0 6 0;
#X connect 12 0 3 0;
#X connect 12 0 6 0;
#X connect 13 0 9 0;
#X connect 13 1 12 0;
#X connect 14 0 10 1;
#X connect 16 0 15 0;
#X connect 17 0 20 0;
#X connect 18 0 19 0;
#X connect 18 1 14 0;
#X connect 19 0 10 0;
#X connect 20 0 1 0;
#X connect 20 1 11 0;
#X connect 20 2 19 1;
#X connect 20 3 10 0;
#X connect 21 0 16 0;
#X connect 22 0 2 1;
#X connect 23 0 22 0;
