#N canvas 0 22 326 560 10;
#X obj 29 48 hsl 128 15 0 1 0 0 empty empty empty -2 -8 0 10 -262144
-1 -1 0 1;
#X obj 65 95 expr if($f1>0.25 && $f1<0.75 \, 1 \, 0);
#X obj 45 198 spigot, f 8;
#X obj 65 127 t f f;
#X obj 26 153 spigot, f 7;
#X msg 92 153 1 \$1;
#X obj 92 175 -;
#X obj 26 68 t f f f;
#X obj 26 240 t f f f;
#X obj 66 270 >= 0.5;
#X obj 45 363 spigot, f 8;
#X obj 66 292 t f f;
#X obj 26 318 spigot, f 7;
#X msg 93 317 1 \$1;
#X obj 93 339 -;
#X floatatom 45 391 5 0 0 0 - - -, f 5;
#X floatatom 26 504 5 0 0 0 - - -, f 5;
#X obj 164 238 t f f f;
#X obj 204 268 >= 0.5;
#X obj 183 361 spigot, f 8;
#X obj 204 290 t f f;
#X obj 164 316 spigot, f 7;
#X msg 231 316 1 \$1;
#X obj 231 338 -;
#X obj 164 440 * 0.4;
#X obj 164 460 + 0.6;
#X obj 26 423 * 1.6;
#X obj 26 445 - 0.3;
#X obj 104 410 * 1.7;
#X obj 104 432 - 0.33;
#X obj 251 419 * 0.4;
#X obj 26 19 inlet;
#X obj 26 523 outlet;
#X connect 0 0 7 0;
#X connect 1 0 3 0;
#X connect 2 0 17 0;
#X connect 3 0 4 1;
#X connect 3 1 5 0;
#X connect 4 0 8 0;
#X connect 5 0 6 0;
#X connect 6 0 2 1;
#X connect 7 0 4 0;
#X connect 7 1 2 0;
#X connect 7 2 1 0;
#X connect 8 0 12 0;
#X connect 8 1 10 0;
#X connect 8 2 9 0;
#X connect 9 0 11 0;
#X connect 10 0 15 0;
#X connect 10 0 28 0;
#X connect 11 0 12 1;
#X connect 11 1 13 0;
#X connect 12 0 26 0;
#X connect 13 0 14 0;
#X connect 14 0 10 1;
#X connect 16 0 32 0;
#X connect 17 0 21 0;
#X connect 17 1 19 0;
#X connect 17 2 18 0;
#X connect 18 0 20 0;
#X connect 19 0 30 0;
#X connect 20 0 21 1;
#X connect 20 1 22 0;
#X connect 21 0 24 0;
#X connect 22 0 23 0;
#X connect 23 0 19 1;
#X connect 24 0 25 0;
#X connect 25 0 16 0;
#X connect 26 0 27 0;
#X connect 27 0 16 0;
#X connect 28 0 29 0;
#X connect 29 0 16 0;
#X connect 30 0 16 0;
#X connect 31 0 0 0;
