#N canvas 324 517 598 317 10;
#X obj 15 17 inlet;
#X obj 150 253 outlet;
#X floatatom 150 11 5 0 0 0 - - -, f 5;
#X obj 150 30 + 1;
#X obj 150 52 log;
#X obj 150 74 + 1;
#X obj 150 96 log;
#X obj 150 124 + 1;
#X obj 150 146 log;
#X obj 150 174 + 1;
#X obj 150 196 log;
#X obj 150 228 * 2.83454;
#X connect 0 0 3 0;
#X connect 2 0 3 0;
#X connect 3 0 4 0;
#X connect 4 0 5 0;
#X connect 5 0 6 0;
#X connect 6 0 7 0;
#X connect 7 0 8 0;
#X connect 8 0 9 0;
#X connect 9 0 10 0;
#X connect 10 0 11 0;
#X connect 11 0 1 0;
