#N canvas 0 22 450 300 10;
#X floatatom 46 164 5 0 0 0 - - -, f 5;
#X obj 50 57 sel 4;
#X obj 102 160 f;
#X obj 90 103 t b f;
#X obj 90 129 spigot;
#X msg 175 108 0;
#X msg 50 126 4;
#X obj 50 79 t b b;
#X msg 215 108 1;
#X obj 173 55 r endThrow;
#X obj 173 77 t b b;
#X obj 46 183 outlet;
#X obj 50 28 inlet;
#X connect 0 0 11 0;
#X connect 1 0 7 0;
#X connect 1 1 3 0;
#X connect 2 0 0 0;
#X connect 3 0 4 0;
#X connect 3 1 2 1;
#X connect 4 0 2 0;
#X connect 5 0 4 1;
#X connect 6 0 0 0;
#X connect 7 0 6 0;
#X connect 7 1 5 0;
#X connect 8 0 4 1;
#X connect 9 0 10 0;
#X connect 10 0 4 0;
#X connect 10 1 8 0;
#X connect 12 0 1 0;
