#N canvas 0 22 574 298 10;
#X obj 51 152 sel 1;
#X obj 51 108 t f f;
#X obj 51 82 inlet;
#X obj 51 202 outlet;
#X msg 141 142 -1e+10;
#X obj 51 130 > -1e+10;
#X obj 51 179 f -1e+10;
#X obj 141 164 t f f;
#X obj 141 99 \$1;
#X obj 168 99 \$2;
#X obj 141 72 loadbang;
#X obj 141 122 metro;
#X obj 241 72 inlet;
#X obj 283 72 inlet;
#X text 372 18 Inelt;
#X text 382 34 1 - value;
#X text 382 44 2 - reset;
#X obj 202 72 inlet;
#X text 382 54 3 - auto-reset ON/OFF;
#X text 382 64 5 - auto-reset timing;
#X text 372 78 Settings;
#X text 382 94 1 - auto-reset ON/OFF;
#X text 382 104 2 - auto-reset timing;
#X text 49 18 outut maximim value from a data series;
#X connect 0 0 6 0;
#X connect 1 0 5 0;
#X connect 1 1 6 1;
#X connect 2 0 1 0;
#X connect 4 0 7 0;
#X connect 5 0 0 0;
#X connect 6 0 3 0;
#X connect 6 0 5 1;
#X connect 7 0 5 1;
#X connect 7 1 6 1;
#X connect 8 0 11 0;
#X connect 9 0 11 1;
#X connect 10 0 8 0;
#X connect 10 0 9 0;
#X connect 11 0 4 0;
#X connect 12 0 8 0;
#X connect 13 0 9 0;
#X connect 17 0 4 0;
