#N canvas 0 22 854 327 10;
#X obj 51 152 sel 1;
#X obj 51 108 t f f;
#X obj 51 82 inlet;
#X obj 51 202 outlet;
#X obj 141 164 t f f;
#X obj 141 99 \$1;
#X obj 168 99 \$2;
#X obj 141 72 loadbang;
#X obj 141 122 metro;
#X obj 241 72 inlet;
#X obj 283 72 inlet;
#X text 372 18 Inelt;
#X text 382 34 1 - value;
#X text 382 44 2 - reset;
#X obj 202 72 inlet;
#X text 382 54 3 - auto-reset ON/OFF;
#X text 382 64 5 - auto-reset timing;
#X text 372 78 Settings;
#X text 382 94 1 - auto-reset ON/OFF;
#X text 382 104 2 - auto-reset timing;
#X obj 51 130 < 1e+09;
#X text 49 18 outut the minimum value from a data series;
#X obj 51 179 f 1e+09;
#X msg 141 142 1e+09;
#X connect 0 0 22 0;
#X connect 1 0 20 0;
#X connect 1 1 22 1;
#X connect 2 0 1 0;
#X connect 4 0 20 1;
#X connect 4 1 22 1;
#X connect 5 0 8 0;
#X connect 6 0 8 1;
#X connect 7 0 5 0;
#X connect 7 0 6 0;
#X connect 8 0 23 0;
#X connect 9 0 5 0;
#X connect 10 0 6 0;
#X connect 14 0 23 0;
#X connect 20 0 0 0;
#X connect 22 0 3 0;
#X connect 22 0 20 1;
#X connect 23 0 4 0;
