#N canvas 334 33 450 300 10;
#X obj 51 122 sel 1;
#X obj 51 26 inlet;
#X obj 51 52 t f f f f;
#X obj 101 122 sel 1;
#X obj 51 204 pack f f;
#X obj 101 171 t b f;
#X obj 51 171 f;
#X obj 101 149 f;
#X obj 51 149 f;
#X obj 101 100 > 0;
#X obj 51 226 print RANGE-\$1:;
#X obj 51 99 < 1000;
#X connect 0 0 8 0;
#X connect 1 0 2 0;
#X connect 2 0 11 0;
#X connect 2 1 8 1;
#X connect 2 2 9 0;
#X connect 2 3 7 1;
#X connect 3 0 7 0;
#X connect 4 0 10 0;
#X connect 5 0 6 0;
#X connect 5 1 4 1;
#X connect 6 0 4 0;
#X connect 7 0 5 0;
#X connect 7 0 9 1;
#X connect 8 0 6 0;
#X connect 8 0 11 1;
#X connect 9 0 3 0;
#X connect 11 0 0 0;
