#N canvas 615 283 299 233 10;
#X obj 30 44 bng 15 250 50 0 empty empty None_1 17 7 0 10 -4034 -1
-1;
#X obj 30 65 bng 15 250 50 0 empty empty Extend_2 17 7 0 10 -204800
-1 -1;
#X obj 30 85 bng 15 250 50 0 empty empty Lower_3 17 7 0 10 -204800
-1 -1;
#X obj 30 105 bng 15 250 50 0 empty empty Throw_4 17 7 0 10 -204800
-1 -1;
#X obj 91 178 s forceGesture;
#X obj 30 126 bng 15 250 50 0 empty empty PANIC 17 7 0 10 -258113 -1
-1;
#X msg 116 143 /PANIC;
#X msg 116 61 1;
#X msg 116 81 2;
#X msg 116 101 3;
#X msg 116 121 4;
#X connect 0 0 7 0;
#X connect 1 0 8 0;
#X connect 2 0 9 0;
#X connect 3 0 10 0;
#X connect 5 0 6 0;
#X connect 6 0 4 0;
#X connect 7 0 4 0;
#X connect 8 0 4 0;
#X connect 9 0 4 0;
#X connect 10 0 4 0;
#X coords 0 -1 1 1 85 130 1 20 20;
