#N canvas 490 440 450 300 10;
#X obj 53 239 s gesture;
#X obj 173 110 s gestureMapping;
#X msg 173 87 0;
#X obj 26 264 s gestureMapping;
#X obj 26 14 inlet;
#X obj 99 173 f \$1;
#X msg 26 170 1;
#X obj 26 45 t b b b, f 25;
#X obj 26 192 t f b;
#X obj 222 31 inlet;
#X msg 54 218 7;
#X obj 26 125 delay \$2;
#X connect 2 0 1 0;
#X connect 4 0 7 0;
#X connect 5 0 0 0;
#X connect 6 0 8 0;
#X connect 7 0 11 0;
#X connect 7 1 5 0;
#X connect 7 2 2 0;
#X connect 8 0 3 0;
#X connect 8 1 10 0;
#X connect 9 0 11 1;
#X connect 10 0 0 0;
#X connect 11 0 6 0;
