#N canvas 0 22 647 358 10;
#X declare -path abstraction/generics;
#X obj 19 12 inlet;
#X obj 19 264 outlet;
#X obj 192 8 declare -path abstraction/generics;
#X obj 46 61 findmax;
#X obj 59 33 bng 15 250 50 0 empty empty empty 17 7 0 10 -262144 -1
-1;
#X floatatom 46 83 5 0 0 0 - - -, f 5;
#X obj 19 218 *;
#X obj 19 34 t f f;
#X floatatom 19 240 5 0 0 0 - - -, f 5;
#X floatatom 46 197 5 0 0 0 - - -, f 5;
#X obj 46 174 /;
#X obj 46 102 t b f;
#X text 192 31 \$1 = normalisation target;
#X obj 46 124 \$2;
#X obj 59 11 r resetNorm-\$1;
#X obj 46 148 pack f f;
#X connect 0 0 7 0;
#X connect 3 0 5 0;
#X connect 4 0 3 1;
#X connect 5 0 11 0;
#X connect 6 0 8 0;
#X connect 7 0 6 0;
#X connect 7 1 3 0;
#X connect 8 0 1 0;
#X connect 9 0 6 1;
#X connect 10 0 9 0;
#X connect 11 0 13 0;
#X connect 11 1 15 1;
#X connect 13 0 15 0;
#X connect 14 0 4 0;
#X connect 15 0 10 0;
