#N canvas 606 229 370 420 10;
#X obj 20 164 oscparse;
#X obj 20 187 list trim;
#X obj 19 43 loadbang;
#X obj 81 22 tgl 15 0 empty empty empty 17 7 0 10 -262144 -1 -1 1 1
;
#X obj 20 140 spigot;
#X obj 21 334 s yaw;
#X obj 128 333 s mav;
#X obj 169 333 s emg;
#X obj 60 311 pack f f;
#X obj 60 333 s YawPitch;
#X obj 21 260 t f f;
#X msg 19 65 listen 9000;
#X obj 20 88 netreceive -u -b 9000;
#X msg 21 282 1 \$1;
#X obj 21 304 -;
#X obj 219 335 s acc;
#N canvas 0 22 450 300 smooth 0;
#X obj 37 37 inlet;
#X floatatom 34 64 5 0 0 0 - - -, f 5;
#X obj 34 137 line 0 0;
#X obj 34 89 zexy/mavg 3;
#X msg 34 115 \$1 5;
#X obj 34 159 outlet;
#X connect 0 0 1 0;
#X connect 1 0 3 0;
#X connect 2 0 5 0;
#X connect 3 0 4 0;
#X connect 4 0 2 0;
#X restore 21 235 pd smooth;
#N canvas 0 22 450 300 smooth 0;
#X obj 37 37 inlet;
#X floatatom 34 64 5 0 0 0 - - -, f 5;
#X obj 34 137 line 0 0;
#X obj 34 89 zexy/mavg 3;
#X msg 34 115 \$1 5;
#X obj 34 159 outlet;
#X connect 0 0 1 0;
#X connect 1 0 3 0;
#X connect 2 0 5 0;
#X connect 3 0 4 0;
#X connect 4 0 2 0;
#X restore 84 272 pd smooth;
#X floatatom 254 257 5 0 0 0 - - -, f 5;
#X obj 254 235 findmax 1 500 1;
#X obj 21 209 route yaw pitch mav emg acc;
#X connect 0 0 1 0;
#X connect 1 0 20 0;
#X connect 2 0 11 0;
#X connect 3 0 4 1;
#X connect 4 0 0 0;
#X connect 8 0 9 0;
#X connect 10 0 13 0;
#X connect 10 1 8 0;
#X connect 11 0 12 0;
#X connect 12 0 4 0;
#X connect 13 0 14 0;
#X connect 14 0 5 0;
#X connect 16 0 10 0;
#X connect 17 0 8 1;
#X connect 19 0 18 0;
#X connect 20 0 16 0;
#X connect 20 1 17 0;
#X connect 20 2 6 0;
#X connect 20 3 7 0;
#X connect 20 4 15 0;
#X connect 20 4 19 0;
#X coords 0 -1 1 1 80 20 1 20 20;
