#N canvas 499 161 652 348 10;
#X obj 37 59 oscparse;
#X obj 37 81 list trim;
#X obj 37 103 route wek;
#X obj 37 125 route inputs;
#X obj 268 13 loadbang;
#X obj 344 112 metro 20;
#X msg 270 37 listen 8000;
#X msg 344 86 1;
#X obj 330 159 bng 15 250 50 0 empty empty empty 17 7 0 10 -262144
-1 -1;
#X obj 370 159 bng 15 250 50 0 empty empty empty 17 7 0 10 -262144
-1 -1;
#X obj 37 37 netreceive -b -u 5000;
#X obj 176 96 bng 15 250 50 0 empty empty empty 17 7 0 10 -262144 -1
-1;
#X msg 39 11 listen 5000;
#X obj 333 240 expr 1/$f1;
#X obj 333 186 cputime;
#X obj 333 208 * 0.001;
#X obj 333 262 findmax 1;
#X connect 0 0 1 0;
#X connect 1 0 2 0;
#X connect 2 0 3 0;
#X connect 4 0 6 0;
#X connect 4 0 7 0;
#X connect 6 0 10 0;
#X connect 7 0 5 0;
#X connect 8 0 14 0;
#X connect 9 0 14 1;
#X connect 10 0 0 0;
#X connect 10 0 11 0;
#X connect 11 0 9 0;
#X connect 12 0 10 0;
#X connect 13 0 16 0;
#X connect 14 0 15 0;
#X connect 15 0 13 0;
