#N canvas 487 53 308 405 10;
#X obj 58 108 t f b;
#X obj 12 17 receive~ splitIn;
#X obj 58 72 inlet;
#X obj 12 357 outlet~;
#X obj 58 204 vline~;
#X obj 58 160 +;
#X obj 85 133 random 3000;
#X msg 58 182 \$1 200;
#X obj 12 327 *~ 3;
#X obj 12 275 vcf~ 2;
#X obj 12 295 vcf~ 2;
#X connect 0 0 5 0;
#X connect 0 1 6 0;
#X connect 1 0 9 0;
#X connect 2 0 0 0;
#X connect 4 0 9 1;
#X connect 4 0 10 1;
#X connect 5 0 7 0;
#X connect 6 0 5 1;
#X connect 7 0 4 0;
#X connect 8 0 3 0;
#X connect 9 0 10 0;
#X connect 10 0 8 0;
