#N canvas 0 22 483 756 10;
#X obj 138 172 unpack;
#X obj 138 224 int;
#X obj 138 246 change;
#X obj 138 328 t f b;
#X obj 138 380 +;
#X obj 14 367 receive~ splitIn;
#X obj 138 268 clip 30 17000;
#X obj 138 142 inlet;
#X obj 107 607 outlet~;
#X obj 165 353 random 1000;
#X obj 138 424 vline~;
#X obj 138 446 snapshot~;
#X obj 186 423 bang~;
#X msg 138 402 \$1 100;
#X obj 138 468 int;
#X obj 188 605 outlet;
#X obj 117 526 lop~;
#X obj 117 548 rev;
#X connect 0 0 1 0;
#X connect 1 0 2 0;
#X connect 2 0 6 0;
#X connect 3 0 4 0;
#X connect 3 1 9 0;
#X connect 4 0 13 0;
#X connect 5 0 16 0;
#X connect 6 0 3 0;
#X connect 7 0 0 0;
#X connect 9 0 4 1;
#X connect 10 0 11 0;
#X connect 11 0 14 0;
#X connect 12 0 11 0;
#X connect 13 0 10 0;
#X connect 14 0 15 0;
#X connect 14 0 16 1;
#X connect 16 0 17 0;
#X connect 17 0 8 0;
