#N canvas 0 22 450 300 10;
#X obj 98 62 unpack;
#X obj 98 84 int;
#X obj 98 106 change;
#X obj 98 128 clip 30 17000;
#X obj 98 40 inlet;
#X obj 98 180 outlet;
#X obj 98 150 t f f;
#X obj 148 180 outlet;
#X connect 0 0 1 0;
#X connect 1 0 2 0;
#X connect 2 0 3 0;
#X connect 3 0 6 0;
#X connect 4 0 0 0;
#X connect 6 0 5 0;
#X connect 6 1 7 0;
