#N canvas 362 112 666 669 10;
#X obj 148 34 inlet;
#X obj 81 590 s strip-\$1;
#X obj 81 290 delay;
#X msg 81 316 0;
#X obj 81 373 pack f f f;
#X obj 148 126 delay;
#X obj 81 338 t f f f;
#X obj 148 191 i \$2;
#X obj 179 191 i \$3;
#X obj 209 191 i \$4;
#X obj 175 99 f \$5;
#X obj 108 264 f \$6;
#X msg 81 437 \$1 \$2 \$3 0;
#X msg 94 457 \$1 \$2 \$3 1;
#X msg 111 477 \$1 \$2 \$3 2;
#X msg 124 497 \$1 \$2 \$3 3;
#X msg 161 437 \$1 \$2 \$3 4;
#X msg 174 457 \$1 \$2 \$3 5;
#X msg 191 477 \$1 \$2 \$3 6;
#X msg 204 497 \$1 \$2 \$3 7;
#X msg 241 437 \$1 \$2 \$3 8;
#X msg 254 456 \$1 \$2 \$3 9;
#X msg 271 477 \$1 \$2 \$3 10;
#X msg 284 497 \$1 \$2 \$3 11;
#X msg 331 437 \$1 \$2 \$3 12;
#X msg 344 457 \$1 \$2 \$3 13;
#X msg 361 477 \$1 \$2 \$3 14;
#X msg 374 497 \$1 \$2 \$3 15;
#X msg 421 437 \$1 \$2 \$3 16;
#X msg 434 457 \$1 \$2 \$3 17;
#X obj 81 395 t a a a a a a a a a a a a a a a a a a;
#X obj 80 238 t b b;
#X obj 148 159 t b b b b;
#X obj 148 62 t b b;
#X connect 0 0 33 0;
#X connect 2 0 3 0;
#X connect 3 0 6 0;
#X connect 4 0 30 0;
#X connect 5 0 32 0;
#X connect 6 0 4 0;
#X connect 6 1 4 1;
#X connect 6 2 4 2;
#X connect 7 0 4 0;
#X connect 8 0 4 1;
#X connect 9 0 4 2;
#X connect 10 0 5 1;
#X connect 11 0 2 1;
#X connect 12 0 1 0;
#X connect 13 0 1 0;
#X connect 14 0 1 0;
#X connect 15 0 1 0;
#X connect 16 0 1 0;
#X connect 17 0 1 0;
#X connect 18 0 1 0;
#X connect 19 0 1 0;
#X connect 20 0 1 0;
#X connect 21 0 1 0;
#X connect 22 0 1 0;
#X connect 23 0 1 0;
#X connect 24 0 1 0;
#X connect 25 0 1 0;
#X connect 26 0 1 0;
#X connect 27 0 1 0;
#X connect 28 0 1 0;
#X connect 29 0 1 0;
#X connect 30 0 12 0;
#X connect 30 1 13 0;
#X connect 30 2 14 0;
#X connect 30 3 15 0;
#X connect 30 4 16 0;
#X connect 30 5 17 0;
#X connect 30 6 18 0;
#X connect 30 7 19 0;
#X connect 30 8 20 0;
#X connect 30 9 21 0;
#X connect 30 10 22 0;
#X connect 30 11 23 0;
#X connect 30 12 24 0;
#X connect 30 13 25 0;
#X connect 30 14 26 0;
#X connect 30 15 27 0;
#X connect 30 16 28 0;
#X connect 30 17 29 0;
#X connect 31 0 2 0;
#X connect 31 1 11 0;
#X connect 32 0 7 0;
#X connect 32 1 8 0;
#X connect 32 2 9 0;
#X connect 32 3 31 0;
#X connect 33 0 5 0;
#X connect 33 1 10 0;
