#N canvas 465 101 790 277 10;
#X obj 74 49 inlet;
#X obj 74 71 t b b b;
#X obj 74 97 grain 0 54 500 255 0 0 250 250;
#X obj 97 120 grain 0 54 500 0 255 0 250 250;
#X obj 106 146 grain 0 54 500 0 0 255 250 250;
#X obj 74 182 s strip-\$1;
#X connect 0 0 1 0;
#X connect 1 0 2 0;
#X connect 1 1 3 0;
#X connect 1 2 4 0;
