#N canvas 64 142 532 602 10;
#X obj 28 567 outlet;
#X obj 95 75 i \$1;
#X obj 28 320 delay;
#X obj 289 229 t b b b b;
#X obj 291 313 pack f f;
#X obj 318 543 pack f f f f;
#X obj 421 273 t f f f;
#X obj 291 345 line 0 0;
#X obj 351 313 pack f f;
#X obj 351 345 line 0 0;
#X obj 411 313 pack f f;
#X obj 411 345 line 0 0;
#X obj 28 384 t f f f;
#X obj 28 533 pack f f f f;
#X obj 28 475 line 0 0;
#X obj 148 475 line 0 0;
#X msg 28 449 \$2 \, 0 \$1;
#X msg 88 449 \$2 \, 0 \$1;
#X msg 148 449 \$2 \, 0 \$1;
#X obj 28 423 pack f f;
#X obj 88 423 pack f f;
#X obj 148 423 pack f f;
#X text 210 63 \$3 = grain size (ms);
#X text 210 25 \$1 = min grain position range on the strip led;
#X text 210 40 \$2 = max grain position range on the strip led;
#X obj 45 76 i \$2;
#X obj 28 135 random;
#X obj 28 157 +;
#X obj 45 106 -;
#X obj 95 97 t f f;
#X text 210 78 \$4 \, \$5 \, \$6 - grain color in RGB values;
#X text 210 98 \$7 = grain fade-in (ms);
#X obj 55 207 i \$3;
#X obj 291 271 i \$4;
#X obj 331 271 i \$5;
#X obj 371 271 i \$6;
#X obj 28 352 i \$8;
#X text 210 118 \$8 = grain fade-out (ms);
#X obj 421 251 i \$7;
#X obj 55 267 -;
#X obj 28 42 t b b b b b;
#X obj 65 224 i \$8;
#X obj 28 17 inlet;
#X obj 55 289 max 10;
#X obj 28 497 i;
#X obj 88 475 line 0 0;
#X obj 148 497 i;
#X obj 88 497 i;
#X obj 291 367 i;
#X obj 291 389 t f f;
#X obj 351 367 i;
#X obj 351 389 t f f;
#X obj 411 367 i;
#X obj 411 389 t f f;
#X floatatom 70 347 5 0 0 0 - - -, f 5;
#X obj 28 177 t b b b f f;
#X obj 65 246 + 1;
#X connect 1 0 29 0;
#X connect 2 0 36 0;
#X connect 3 0 33 0;
#X connect 3 1 34 0;
#X connect 3 2 35 0;
#X connect 3 3 38 0;
#X connect 4 0 7 0;
#X connect 5 0 0 0;
#X connect 6 0 4 1;
#X connect 6 1 8 1;
#X connect 6 2 10 1;
#X connect 7 0 48 0;
#X connect 8 0 9 0;
#X connect 9 0 50 0;
#X connect 10 0 11 0;
#X connect 11 0 52 0;
#X connect 12 0 19 0;
#X connect 12 1 20 0;
#X connect 12 2 21 0;
#X connect 13 0 0 0;
#X connect 14 0 44 0;
#X connect 15 0 46 0;
#X connect 16 0 14 0;
#X connect 17 0 45 0;
#X connect 18 0 15 0;
#X connect 19 0 16 0;
#X connect 20 0 17 0;
#X connect 21 0 18 0;
#X connect 25 0 28 0;
#X connect 26 0 27 0;
#X connect 27 0 55 0;
#X connect 28 0 26 1;
#X connect 29 0 28 1;
#X connect 29 1 27 1;
#X connect 32 0 39 0;
#X connect 33 0 4 0;
#X connect 34 0 8 0;
#X connect 35 0 10 0;
#X connect 36 0 12 0;
#X connect 36 0 54 0;
#X connect 38 0 6 0;
#X connect 39 0 43 0;
#X connect 40 0 26 0;
#X connect 40 1 25 0;
#X connect 40 2 1 0;
#X connect 40 3 32 0;
#X connect 40 4 41 0;
#X connect 41 0 56 0;
#X connect 42 0 40 0;
#X connect 43 0 2 1;
#X connect 44 0 13 0;
#X connect 45 0 47 0;
#X connect 46 0 13 2;
#X connect 47 0 13 1;
#X connect 48 0 49 0;
#X connect 49 0 19 1;
#X connect 49 1 5 0;
#X connect 50 0 51 0;
#X connect 51 0 20 1;
#X connect 51 1 5 1;
#X connect 52 0 53 0;
#X connect 53 0 21 1;
#X connect 53 1 5 2;
#X connect 55 0 2 0;
#X connect 55 1 2 0;
#X connect 55 2 3 0;
#X connect 55 3 5 3;
#X connect 55 4 13 3;
#X connect 56 0 39 1;
