#N canvas 222 464 356 171 10;
#N canvas 683 23 832 496 LEDs-comunication 0;
#X msg 289 131 disconnect;
#X obj 23 197 tgl 15 0 empty empty connection_status 17 7 0 10 -262144
-1 -1 1 1;
#X obj 23 158 mrpeach/udpsend 169.254.7.142 8000;
#X obj 23 133 mrpeach/packOSC;
#X msg 128 132 connect 169.254.1.1 9000;
#X obj 23 88 list prepend sendtyped;
#X obj 23 110 list trim;
#X obj 23 219 bng 15 250 50 0 connect empty Connect 17 7 0 10 -262144
-1 -1;
#X obj 23 237 bng 15 250 50 0 disconnect empty Disconnect 17 7 0 10
-262144 -1 -1;
#X obj 23 259 tgl 15 0 osc-messages empty osc-messages 17 7 0 10 -262144
-1 -1 0 1;
#X obj 23 7 r osc-messages;
#X obj 128 110 r connect;
#X obj 289 110 r disconnect;
#X obj 23 34 metro 50;
#X obj 23 61 stripLED 1;
#X obj 401 184 s strip-1;
#X msg 461 132 255 255 255 \$1;
#X obj 434 222 bng 15 250 50 0 clear empty clear 17 7 0 10 -262144
-1 -1;
#X msg 401 132 0 0 0 \$1;
#X floatatom 461 102 5 26 300 0 on - -, f 5;
#X floatatom 401 103 5 26 300 0 off - -, f 5;
#X obj 461 55 line;
#X msg 457 16 0 \, 300 2000;
#X obj 461 77 i;
#X obj 343 49 line;
#X obj 343 71 i;
#X obj 518 92 sel 300;
#X msg 339 10 299 \, 0 2000;
#X obj 337 167 sel 0;
#X connect 0 0 2 0;
#X connect 2 0 1 0;
#X connect 3 0 2 0;
#X connect 4 0 2 0;
#X connect 5 0 6 0;
#X connect 6 0 3 0;
#X connect 10 0 13 0;
#X connect 11 0 4 0;
#X connect 12 0 0 0;
#X connect 13 0 14 0;
#X connect 14 0 5 0;
#X connect 16 0 15 0;
#X connect 18 0 15 0;
#X connect 19 0 16 0;
#X connect 19 0 26 0;
#X connect 20 0 18 0;
#X connect 20 0 28 0;
#X connect 21 0 23 0;
#X connect 22 0 21 0;
#X connect 23 0 19 0;
#X connect 24 0 25 0;
#X connect 25 0 20 0;
#X connect 26 0 27 0;
#X connect 27 0 24 0;
#X connect 28 0 22 0;
#X coords 0 -1 1 1 150 100 1 15 180;
#X restore 10 21 pd LEDs-comunication;
#X obj 260 24 bng 15 250 50 0 clear empty clear 17 7 0 10 -262144 -1
-1;
#N canvas 568 423 579 174 examples 0;
#X obj 26 51 tgl 15 0 panning empty up-down 17 7 0 10 -262144 -1 -1
0 1;
#X obj 26 29 tgl 15 0 granular empty granular 17 7 0 10 -262144 -1
-1 0 1;
#N canvas 0 23 638 287 granular 0;
#X obj 74 43 metro 501;
#X obj 74 14 r granular;
#X obj 74 110 grainPoly 1;
#X connect 0 0 2 0;
#X connect 1 0 0 0;
#X restore 115 42 pd granular;
#N canvas 574 395 450 300 up-down 0;
#X obj 32 19 r panning;
#X obj 32 80 t b b;
#X obj 32 48 metro 2020;
#X obj 32 102 panning 300 0 1000 0 255 0 1010;
#X obj 32 162 s strip-1;
#X obj 59 130 panning 0 300 1000 0 255 0 0;
#X connect 0 0 2 0;
#X connect 1 0 3 0;
#X connect 1 1 5 0;
#X connect 2 0 1 0;
#X connect 3 0 4 0;
#X connect 5 0 4 0;
#X restore 115 20 pd up-down;
#X coords 0 -1 1 1 85 100 1 20 10;
#X restore 169 22 pd examples;
