#N canvas 371 581 972 162 10;
#N canvas 363 265 391 299 LEDs-comunication 0;
#X msg 289 131 disconnect;
#X obj 23 197 tgl 15 0 empty empty connection_status 17 7 0 10 -262144
-1 -1 0 1;
#X obj 23 158 mrpeach/udpsend 169.254.7.142 8000;
#X obj 23 133 mrpeach/packOSC;
#X msg 128 132 connect 169.254.1.1 9000;
#X obj 23 88 list prepend sendtyped;
#X obj 23 110 list trim;
#X obj 23 219 bng 15 250 50 0 connect empty Connect 17 7 0 10 -262144
-1 -1;
#X obj 23 237 bng 15 250 50 0 disconnect empty Disconnect 17 7 0 10
-262144 -1 -1;
#X obj 23 259 tgl 15 0 osc-messages empty osc-messages 17 7 0 10 -262144
-1 -1 0 1;
#X obj 23 7 r osc-messages;
#X obj 128 110 r connect;
#X obj 289 110 r disconnect;
#N canvas 0 22 396 343 stripsLEDs 0;
#X obj 15 53 inlet;
#X obj 23 297 outlet;
#X obj 15 86 thread 2 __________________________________;
#X obj 23 148 stripLED 1;
#X obj 103 148 stripLED 5;
#X obj 142 191 stripLED 7;
#X obj 152 211 stripLED 8;
#X obj 183 148 stripLED 9;
#X obj 202 169 stripLED 10;
#X obj 222 191 stripLED 11;
#X obj 232 211 stripLED 12;
#X obj 263 148 stripLED 13;
#X obj 122 169 stripLED 6;
#X obj 282 169 stripLED 14;
#X obj 302 191 stripLED 15;
#X obj 312 211 stripLED 16;
#X obj 42 169 stripLED 2;
#X obj 62 191 stripLED 3;
#X obj 72 211 stripLED 4;
#X connect 0 0 2 0;
#X connect 2 0 3 0;
#X connect 2 1 16 0;
#X connect 2 2 17 0;
#X connect 2 3 18 0;
#X connect 2 4 4 0;
#X connect 2 5 12 0;
#X connect 2 6 5 0;
#X connect 2 7 6 0;
#X connect 2 8 7 0;
#X connect 2 9 8 0;
#X connect 2 10 9 0;
#X connect 2 11 10 0;
#X connect 2 12 11 0;
#X connect 2 13 13 0;
#X connect 2 14 14 0;
#X connect 2 15 15 0;
#X connect 3 0 1 0;
#X connect 4 0 1 0;
#X connect 5 0 1 0;
#X connect 6 0 1 0;
#X connect 7 0 1 0;
#X connect 8 0 1 0;
#X connect 9 0 1 0;
#X connect 10 0 1 0;
#X connect 11 0 1 0;
#X connect 12 0 1 0;
#X connect 13 0 1 0;
#X connect 14 0 1 0;
#X connect 15 0 1 0;
#X connect 16 0 1 0;
#X connect 17 0 1 0;
#X connect 18 0 1 0;
#X restore 23 61 pd stripsLEDs;
#X obj 23 34 metro 40;
#X connect 0 0 2 0;
#X connect 2 0 1 0;
#X connect 3 0 2 0;
#X connect 4 0 2 0;
#X connect 5 0 6 0;
#X connect 6 0 3 0;
#X connect 10 0 14 0;
#X connect 11 0 4 0;
#X connect 12 0 0 0;
#X connect 13 0 5 0;
#X connect 14 0 13 0;
#X coords 0 -1 1 1 150 100 1 15 180;
#X restore 10 21 pd LEDs-comunication;
#X obj 260 24 bng 15 250 50 0 clear empty clear 17 7 0 10 -262144 -1
-1;
#N canvas 20 478 579 174 examples 1;
#X obj 26 51 tgl 15 0 upDown empty up-down 17 7 0 10 -262144 -1 -1
0 1;
#X obj 26 29 tgl 15 0 granular empty granular 17 7 0 10 -262144 -1
-1 0 1;
#N canvas 0 22 450 300 wave 0;
#X obj 33 128 wave 1;
#X obj 33 60 metro 2000;
#X obj 33 31 r wave;
#X obj 33 84 t b b b b b b b b b b b b b b b b;
#X obj 43 148 wave 2;
#X obj 53 169 wave 3;
#X obj 63 189 wave 4;
#X obj 83 128 wave 5;
#X obj 93 148 wave 6;
#X obj 103 169 wave 7;
#X obj 113 189 wave 8;
#X obj 133 128 wave 9;
#X obj 143 148 wave 10;
#X obj 153 169 wave 11;
#X obj 163 189 wave 12;
#X obj 183 128 wave 13;
#X obj 193 148 wave 14;
#X obj 203 169 wave 15;
#X obj 213 189 wave 16;
#X connect 1 0 3 0;
#X connect 2 0 1 0;
#X connect 3 0 0 0;
#X connect 3 1 4 0;
#X connect 3 2 5 0;
#X connect 3 4 7 0;
#X connect 3 5 8 0;
#X connect 3 6 9 0;
#X connect 3 7 10 0;
#X connect 3 8 11 0;
#X connect 3 9 12 0;
#X connect 3 10 13 0;
#X connect 3 11 14 0;
#X connect 3 12 15 0;
#X connect 3 13 16 0;
#X connect 3 14 17 0;
#X connect 3 15 18 0;
#X restore 115 64 pd wave;
#N canvas 0 23 638 287 granular 0;
#X obj 74 43 metro 501;
#X obj 74 14 r granular;
#X obj 74 65 t b b b b b b b b b b b b b b b b;
#X obj 312 170 grainPoly 12;
#X obj 294 150 grainPoly 11;
#X obj 74 110 grainPoly 1;
#X obj 92 130 grainPoly 2;
#X obj 114 150 grainPoly 3;
#X obj 132 170 grainPoly 4;
#X obj 164 110 grainPoly 5;
#X obj 182 130 grainPoly 6;
#X obj 204 150 grainPoly 7;
#X obj 222 170 grainPoly 8;
#X obj 254 110 grainPoly 9;
#X obj 272 131 grainPoly 10;
#X obj 344 110 grainPoly 13;
#X obj 362 130 grainPoly 14;
#X obj 384 150 grainPoly 15;
#X obj 402 170 grainPoly 16;
#X connect 0 0 2 0;
#X connect 1 0 0 0;
#X connect 2 0 5 0;
#X connect 2 1 6 0;
#X connect 2 2 7 0;
#X connect 2 3 9 0;
#X connect 2 4 10 0;
#X connect 2 5 11 0;
#X connect 2 6 12 0;
#X connect 2 7 13 0;
#X connect 2 8 14 0;
#X connect 2 9 4 0;
#X connect 2 10 3 0;
#X connect 2 11 15 0;
#X connect 2 12 16 0;
#X connect 2 13 17 0;
#X connect 2 14 18 0;
#X restore 115 42 pd granular;
#X obj 26 71 tgl 15 0 wave empty wave 17 7 0 10 -262144 -1 -1 0 1;
#N canvas 0 22 450 300 up-down 1;
#X obj 32 80 t b b;
#X obj 32 48 metro 2020;
#X obj 32 19 r upDown;
#X obj 32 102 panning 17 2 1000 0 255 0 1010;
#X obj 59 130 panning 2 17 1000 0 255 0 0;
#X obj 32 158 s strip-5;
#X connect 0 0 3 0;
#X connect 0 1 4 0;
#X connect 1 0 0 0;
#X connect 2 0 1 0;
#X restore 115 20 pd up-down;
#N canvas 0 22 442 498 l-r 0;
#X obj 36 30 tgl 15 0 empty l-r l-r 17 7 0 10 -262144 -1 -1 0 1;
#X obj 36 74 t b b b b b b b b b b b b b b b b b;
#X obj 186 347 bar 11 255 0 0 1100 200;
#X obj 36 113 bar 1 255 0 0 0 200;
#X obj 48 135 bar 2 255 0 0 100 200;
#X obj 61 157 bar 3 255 0 0 200 200;
#X obj 78 179 bar 4 255 0 0 300 200;
#X obj 91 201 bar 5 255 0 0 400 200;
#X obj 108 223 bar 6 255 0 0 500 200;
#X obj 121 245 bar 6 255 0 0 600 200;
#X obj 138 267 bar 7 255 0 0 700 200;
#X obj 154 286 bar 8 255 0 0 800 200;
#X obj 168 307 bar 9 255 0 0 900 200;
#X obj 178 327 bar 10 255 0 0 1000 200;
#X obj 196 367 bar 12 255 0 0 1200 200;
#X obj 206 387 bar 13 255 0 0 1300 200;
#X obj 216 407 bar 14 255 0 0 1400 200;
#X obj 226 427 bar 15 255 0 0 1500 200;
#X obj 236 447 bar 16 255 0 0 1600 200;
#X obj 36 52 metro 1800;
#X connect 0 0 19 0;
#X connect 1 0 3 0;
#X connect 1 1 4 0;
#X connect 1 2 5 0;
#X connect 1 3 6 0;
#X connect 1 4 7 0;
#X connect 1 5 8 0;
#X connect 1 6 9 0;
#X connect 1 7 10 0;
#X connect 1 8 11 0;
#X connect 1 9 12 0;
#X connect 1 10 13 0;
#X connect 1 11 2 0;
#X connect 1 12 14 0;
#X connect 1 13 15 0;
#X connect 1 14 16 0;
#X connect 1 15 17 0;
#X connect 1 16 18 0;
#X connect 19 0 1 0;
#X restore 116 87 pd l-r;
#X obj 26 89 tgl 15 0 l-r empty l-r 17 7 0 10 -262144 -1 -1 0 1;
#N canvas 0 23 503 362 circles 0;
#X obj 82 24 tgl 15 0 empty circles circles 17 7 0 10 -262144 -1 -1
0 1;
#X obj 82 71 t b b b b b b b b b b;
#X floatatom 264 64 5 0 0 0 - - -, f 5;
#N canvas 0 22 1124 770 sum____________________________ 0;
#X obj 258 83 t f f;
#X obj 258 48 inlet;
#X obj 258 130 outlet;
#X obj 315 133 t f f;
#X obj 372 156 + 1;
#X obj 315 180 outlet;
#X obj 372 183 t f f;
#X obj 429 206 + 1;
#X obj 372 230 outlet;
#X obj 429 233 t f f;
#X obj 481 256 + 1;
#X obj 429 280 outlet;
#X obj 481 283 t f f;
#X obj 481 330 outlet;
#X obj 533 332 t f f;
#X obj 590 355 + 1;
#X obj 533 379 outlet;
#X obj 590 382 t f f;
#X obj 647 405 + 1;
#X obj 590 429 outlet;
#X obj 647 432 t f f;
#X obj 704 455 + 1;
#X obj 647 479 outlet;
#X obj 704 482 t f f;
#X obj 704 529 outlet;
#X obj 315 106 + 1;
#X obj 360 78 t f f f f f f f;
#X obj 360 25 inlet;
#X obj 360 57 i \$2;
#X obj 408 30 loadbang;
#X connect 0 0 2 0;
#X connect 0 1 25 0;
#X connect 1 0 0 0;
#X connect 3 0 5 0;
#X connect 3 1 4 0;
#X connect 4 0 6 0;
#X connect 6 0 8 0;
#X connect 6 1 7 0;
#X connect 7 0 9 0;
#X connect 9 0 11 0;
#X connect 9 1 10 0;
#X connect 10 0 12 0;
#X connect 12 0 13 0;
#X connect 12 1 14 0;
#X connect 14 0 16 0;
#X connect 14 1 15 0;
#X connect 15 0 17 0;
#X connect 17 0 19 0;
#X connect 17 1 18 0;
#X connect 18 0 20 0;
#X connect 20 0 22 0;
#X connect 20 1 21 0;
#X connect 21 0 23 0;
#X connect 23 0 24 0;
#X connect 25 0 3 0;
#X connect 26 0 25 1;
#X connect 26 1 4 1;
#X connect 26 2 7 1;
#X connect 26 3 10 1;
#X connect 26 4 15 1;
#X connect 26 5 18 1;
#X connect 26 6 21 1;
#X connect 27 0 28 0;
#X connect 28 0 26 0;
#X connect 29 0 28 0;
#X restore 280 98 pd sum____________________________;
#X floatatom 377 60 5 0 0 0 - - -, f 5;
#X obj 82 49 metro 4000;
#X obj 82 133 singleLED 5 5 0 0 150 0 300 100 200;
#X obj 92 153 singleLED 6 5 0 0 150 0 300 100 200;
#X connect 0 0 5 0;
#X connect 1 0 6 0;
#X connect 1 1 7 0;
#X connect 2 0 3 0;
#X connect 4 0 3 1;
#X connect 5 0 1 0;
#X restore 115 109 pd circles;
#X obj 26 108 tgl 15 0 circles empty circles 17 7 0 10 -262144 -1 -1
0 1;
#X coords 0 -1 1 1 85 120 1 20 10;
#X restore 169 22 pd examples;
#X obj 338 32 crumbleLEDs;
