#N canvas 224 312 697 514 10;
#X obj 36 220 i;
#X obj 36 195 line 0 0;
#X obj 55 307 - 1;
#X obj 84 307 + 1;
#X obj 36 10 inlet;
#X obj 36 126 i \$1;
#X text 224 21 \$1 = start paning;
#X obj 68 126 i \$2;
#X text 224 36 \$2 = end panning;
#X msg 36 171 \$1 \, \$2 \$3;
#X obj 100 126 i \$3;
#X obj 36 455 outlet;
#X text 223 67 \$4 \, \$5 \, \$6 = RGB color grain;
#X obj 36 391 i \$4;
#X obj 76 391 i \$5;
#X obj 116 391 i \$6;
#X obj 36 105 t b b b;
#X obj 36 427 pack f f f f;
#X obj 36 362 t b b b f;
#X msg 185 432 0 0 0 \$1;
#X obj 36 148 pack f f f;
#X obj 36 82 delay;
#X obj 63 35 loadbang;
#X obj 63 59 i \$7;
#X text 223 84 \$7 = inital delay time in ms (default 0);
#X text 223 51 \$3 = time panning (in ms);
#X floatatom 189 250 5 0 0 0 - - -, f 5;
#X obj 36 244 t f f f f f f f;
#X obj 115 307 - 2;
#X obj 144 307 + 2;
#X obj 175 307 - 2;
#X obj 204 307 + 2;
#X obj 241 308 - 3;
#X obj 270 308 + 3;
#X obj 185 409 min 299;
#X obj 185 387 max 0;
#X connect 0 0 27 0;
#X connect 0 0 26 0;
#X connect 1 0 0 0;
#X connect 2 0 35 0;
#X connect 3 0 35 0;
#X connect 4 0 21 0;
#X connect 5 0 20 0;
#X connect 7 0 20 1;
#X connect 9 0 1 0;
#X connect 10 0 20 2;
#X connect 13 0 17 0;
#X connect 14 0 17 1;
#X connect 15 0 17 2;
#X connect 16 0 5 0;
#X connect 16 1 7 0;
#X connect 16 2 10 0;
#X connect 17 0 11 0;
#X connect 18 0 13 0;
#X connect 18 1 14 0;
#X connect 18 2 15 0;
#X connect 18 3 17 3;
#X connect 19 0 11 0;
#X connect 20 0 9 0;
#X connect 21 0 16 0;
#X connect 22 0 23 0;
#X connect 23 0 21 1;
#X connect 27 0 18 0;
#X connect 27 1 2 0;
#X connect 27 2 3 0;
#X connect 27 3 28 0;
#X connect 27 4 29 0;
#X connect 27 5 30 0;
#X connect 27 6 31 0;
#X connect 28 0 35 0;
#X connect 29 0 35 0;
#X connect 30 0 35 0;
#X connect 31 0 35 0;
#X connect 32 0 35 0;
#X connect 33 0 35 0;
#X connect 34 0 19 0;
#X connect 35 0 34 0;
