#N canvas 432 189 637 493 10;
#X obj 93 94 metro \$1;
#X obj 93 28 loadbang;
#X msg 93 50 1;
#X obj 93 72 tgl 15 0 empty empty empty 17 7 0 10 -262144 -1 -1 1 1
;
#X obj 93 333 outlet;
#X obj 93 144 t b b b b;
#X obj 93 311 pack f f f f;
#X obj 330 176 random \$2;
#X obj 93 175 random 256;
#X obj 93 257 -;
#X obj 93 197 t f b f;
#X obj 112 235 random;
#X obj 93 279 abs;
#X obj 173 175 random 256;
#X obj 173 257 -;
#X obj 173 197 t f b f;
#X obj 192 235 random;
#X obj 173 279 abs;
#X obj 254 175 random 256;
#X obj 254 257 -;
#X obj 254 197 t f b f;
#X obj 273 235 random;
#X obj 254 279 abs;
#X connect 0 0 5 0;
#X connect 1 0 2 0;
#X connect 2 0 3 0;
#X connect 3 0 0 0;
#X connect 5 0 8 0;
#X connect 5 1 13 0;
#X connect 5 2 18 0;
#X connect 5 3 7 0;
#X connect 6 0 4 0;
#X connect 7 0 6 3;
#X connect 8 0 10 0;
#X connect 9 0 12 0;
#X connect 10 0 9 0;
#X connect 10 1 11 0;
#X connect 10 2 11 1;
#X connect 11 0 9 1;
#X connect 12 0 6 0;
#X connect 13 0 15 0;
#X connect 14 0 17 0;
#X connect 15 0 14 0;
#X connect 15 1 16 0;
#X connect 15 2 16 1;
#X connect 16 0 14 1;
#X connect 17 0 6 1;
#X connect 18 0 20 0;
#X connect 19 0 22 0;
#X connect 20 0 19 0;
#X connect 20 1 21 0;
#X connect 20 2 21 1;
#X connect 21 0 19 1;
#X connect 22 0 6 2;
