#N canvas 0 22 450 300 10;
#X obj 27 81 bng 15 250 50 0 empty empty reading 17 7 0 10 -262144
-1 -1;
#X obj 27 34 tgl 15 0 empty empty empty 17 7 0 10 -262144 -1 -1 1 1
;
#X obj 27 60 metro 40;
#X obj 27 9 loadbang;
#X obj 27 101 array get strip-\$1;
#X obj 27 125 s LEDs-\$1;
#X connect 0 0 4 0;
#X connect 1 0 2 0;
#X connect 2 0 0 0;
#X connect 3 0 1 0;
#X connect 4 0 5 0;
#X coords 0 -1 1 1 85 40 1 20 60;
