#N canvas 487 450 488 411 10;
#X obj 24 221 pack f f f f f f;
#X obj 28 329 array set color;
#X obj 24 246 unpack f f f f f f;
#X obj 79 187 + 1;
#X obj 117 187 + 2;
#X obj 42 157 t f f f;
#X obj 42 137 * 3;
#X obj 24 16 r LED;
#X obj 24 61 unpack 0 0 0 0;
#X connect 0 0 2 0;
#X connect 2 0 1 0;
#X connect 2 1 1 1;
#X connect 2 2 1 0;
#X connect 2 3 1 1;
#X connect 2 4 1 0;
#X connect 2 5 1 1;
#X connect 3 0 0 3;
#X connect 4 0 0 5;
#X connect 5 0 0 1;
#X connect 5 1 3 0;
#X connect 5 2 4 0;
#X connect 6 0 5 0;
#X connect 8 0 0 0;
#X connect 8 1 0 2;
#X connect 8 2 0 4;
#X connect 8 3 6 0;
