#N canvas 607 179 723 666 10;
#X obj 45 10 inlet;
#X obj 188 523 s strip-\$1;
#X obj 45 205 delay;
#X obj 288 126 delay;
#X msg 188 490 \$1 \$2 \$3 \$4;
#X obj 288 466 pack f f f f;
#X text 528 20 \$1 = strip led;
#X text 528 32 \$2 = distance from centre;
#X text 529 52 \$3 \, \$4 \, \$5 = RGB color;
#X obj 288 191 i \$3;
#X obj 319 191 i \$4;
#X obj 349 191 i \$5;
#X obj 379 191 i \$2;
#X obj 315 99 f \$6;
#X obj 73 179 f \$7;
#X obj 288 319 line;
#X obj 288 260 pack 0 0;
#X text 529 101 \$8 = fade in (ms);
#X text 529 111 \$9 = fade out (ms);
#X obj 348 319 line;
#X obj 348 260 pack 0 0;
#X obj 408 319 line;
#X obj 408 260 pack 0 0;
#X obj 414 168 i \$8;
#X obj 414 190 t f f f;
#X obj 171 229 t f f f;
#X obj 171 207 i \$9;
#X obj 414 102 loadbang;
#X obj 171 177 loadbang;
#X obj 288 73 t b b;
#X obj 288 159 t b b b b;
#X obj 114 180 i \$2;
#X obj 45 153 t b b b;
#X text 360 59 Fade-In;
#X text 86 116 Fade-Out;
#X text 529 81 \$7 = duration;
#X text 528 70 \$6 = pre-delay;
#X msg 288 287 0 \, \$1 \$2;
#X msg 348 287 0 \, \$1 \$2;
#X msg 409 287 0 \, \$1 \$2;
#X obj 45 470 pack f f f f;
#X obj 45 343 line;
#X obj 45 284 pack 0 0;
#X obj 105 284 pack 0 0;
#X obj 165 284 pack 0 0;
#X obj 46 258 i \$3;
#X obj 77 258 i \$4;
#X obj 107 258 i \$5;
#X msg 45 311 \$1 \, 0 \$2;
#X msg 105 311 \$1 \, 0 \$2;
#X msg 166 311 \$1 \, 0 \$2;
#X obj 46 226 t b b b;
#X obj 45 34 t b b b;
#X obj 105 343 line;
#X obj 165 343 line;
#X connect 0 0 52 0;
#X connect 2 0 51 0;
#X connect 3 0 30 0;
#X connect 4 0 1 0;
#X connect 5 0 4 0;
#X connect 9 0 16 0;
#X connect 10 0 20 0;
#X connect 11 0 22 0;
#X connect 12 0 5 3;
#X connect 13 0 3 1;
#X connect 14 0 2 1;
#X connect 15 0 5 0;
#X connect 16 0 37 0;
#X connect 19 0 5 1;
#X connect 20 0 38 0;
#X connect 21 0 5 2;
#X connect 22 0 39 0;
#X connect 23 0 24 0;
#X connect 24 0 16 1;
#X connect 24 1 20 1;
#X connect 24 2 22 1;
#X connect 25 0 42 1;
#X connect 25 1 43 1;
#X connect 25 2 44 1;
#X connect 26 0 25 0;
#X connect 27 0 23 0;
#X connect 28 0 26 0;
#X connect 29 0 3 0;
#X connect 29 1 13 0;
#X connect 30 0 9 0;
#X connect 30 1 10 0;
#X connect 30 2 11 0;
#X connect 30 3 12 0;
#X connect 31 0 40 3;
#X connect 32 0 2 0;
#X connect 32 1 14 0;
#X connect 32 2 31 0;
#X connect 37 0 15 0;
#X connect 38 0 19 0;
#X connect 39 0 21 0;
#X connect 40 0 4 0;
#X connect 41 0 40 0;
#X connect 42 0 48 0;
#X connect 43 0 49 0;
#X connect 44 0 50 0;
#X connect 45 0 42 0;
#X connect 46 0 43 0;
#X connect 47 0 44 0;
#X connect 48 0 41 0;
#X connect 49 0 53 0;
#X connect 50 0 54 0;
#X connect 51 0 45 0;
#X connect 51 1 46 0;
#X connect 51 2 47 0;
#X connect 52 0 32 0;
#X connect 52 1 29 0;
#X connect 53 0 40 1;
#X connect 54 0 40 2;
