#N canvas 370 501 636 282 10;
#X obj 310 98 * 3;
#X obj 229 129 array set strip-\$1;
#X msg 492 117 const 0;
#X obj 492 152 array define strip-\$1;
#X obj 29 103 list prepend b;
#X obj 29 129 list prepend /outputs/rgb/\$1;
#X obj 29 152 outlet;
#X obj 29 52 inlet;
#X obj 492 57 loadbang;
#X obj 29 79 array get strip-\$1;
#X obj 492 80 t b b;
#X obj 431 55 r clear;
#X msg 551 118 resize 54;
#X obj 229 100 pack f f f;
#X obj 228 45 r strip-\$1;
#X obj 228 70 unpack 0 0 0 0;
#X obj 141 234 print;
#X obj 141 188 list prepend strip;
#X obj 140 166 list prepend \$1;
#X obj 141 210 list trim;
#X connect 0 0 1 1;
#X connect 2 0 3 0;
#X connect 4 0 5 0;
#X connect 5 0 6 0;
#X connect 7 0 9 0;
#X connect 8 0 10 0;
#X connect 9 0 4 0;
#X connect 9 0 18 0;
#X connect 10 0 2 0;
#X connect 10 1 12 0;
#X connect 11 0 2 0;
#X connect 12 0 3 0;
#X connect 13 0 1 0;
#X connect 14 0 15 0;
#X connect 15 0 13 0;
#X connect 15 1 13 1;
#X connect 15 2 13 2;
#X connect 15 3 0 0;
#X connect 17 0 19 0;
#X connect 18 0 17 0;
#X connect 19 0 16 0;
