#N canvas 0 22 676 355 10;
#X obj 23 15 inlet;
#X obj 23 265 outlet;
#X obj 36 287 outlet;
#X obj 49 309 outlet;
#X obj 62 331 outlet;
#X obj 152 261 outlet;
#X obj 166 282 outlet;
#X obj 179 305 outlet;
#X obj 192 328 outlet;
#X obj 233 261 outlet;
#X obj 246 282 outlet;
#X obj 259 304 outlet;
#X obj 272 325 outlet;
#X obj 313 263 outlet;
#X obj 326 283 outlet;
#X obj 339 303 outlet;
#X obj 352 323 outlet;
#X obj 23 55 t b b b b b b b b b b b b b b b b b;
#X obj 371 36 i \$1;
#X obj 384 86 * 2;
#X obj 394 106 * 3;
#X obj 404 126 * 4;
#X obj 424 86 * 5;
#X obj 434 106 * 6;
#X obj 444 126 * 7;
#X obj 454 146 * 8;
#X obj 464 86 * 9;
#X obj 474 106 * 10;
#X obj 484 126 * 11;
#X obj 494 146 * 12;
#X obj 514 86 * 13;
#X obj 524 106 * 14;
#X obj 534 126 * 15;
#X obj 371 58 t f f f f f f f f f f f f f f f;
#X obj 23 157 delay;
#X obj 36 177 delay;
#X obj 49 197 delay;
#X obj 62 217 delay;
#X obj 153 157 delay;
#X obj 166 177 delay;
#X obj 179 197 delay;
#X obj 192 217 delay;
#X obj 233 157 delay;
#X obj 246 177 delay;
#X obj 259 197 delay;
#X obj 272 217 delay;
#X obj 313 157 delay;
#X obj 326 177 delay;
#X obj 339 197 delay;
#X obj 352 217 delay;
#X obj 373 16 loadbang;
#X obj 544 146 * 16;
#X connect 0 0 17 0;
#X connect 17 0 34 0;
#X connect 17 1 35 0;
#X connect 17 2 36 0;
#X connect 17 3 37 0;
#X connect 17 4 38 0;
#X connect 17 5 39 0;
#X connect 17 6 40 0;
#X connect 17 7 41 0;
#X connect 17 8 42 0;
#X connect 17 9 43 0;
#X connect 17 10 44 0;
#X connect 17 11 45 0;
#X connect 17 12 46 0;
#X connect 17 13 47 0;
#X connect 17 14 48 0;
#X connect 17 16 49 0;
#X connect 18 0 33 0;
#X connect 19 0 35 1;
#X connect 20 0 36 1;
#X connect 21 0 37 1;
#X connect 22 0 38 1;
#X connect 23 0 39 1;
#X connect 24 0 40 1;
#X connect 25 0 41 1;
#X connect 26 0 42 1;
#X connect 27 0 43 1;
#X connect 28 0 44 1;
#X connect 29 0 45 1;
#X connect 30 0 46 1;
#X connect 31 0 47 1;
#X connect 32 0 48 1;
#X connect 33 0 34 1;
#X connect 33 1 19 0;
#X connect 33 2 21 0;
#X connect 33 3 22 0;
#X connect 33 4 23 0;
#X connect 33 5 24 0;
#X connect 33 6 25 0;
#X connect 33 7 26 0;
#X connect 33 8 27 0;
#X connect 33 9 28 0;
#X connect 33 10 29 0;
#X connect 33 11 30 0;
#X connect 33 12 31 0;
#X connect 33 13 32 0;
#X connect 33 14 51 0;
#X connect 34 0 1 0;
#X connect 35 0 2 0;
#X connect 36 0 3 0;
#X connect 37 0 4 0;
#X connect 38 0 5 0;
#X connect 39 0 6 0;
#X connect 40 0 7 0;
#X connect 41 0 8 0;
#X connect 42 0 9 0;
#X connect 43 0 10 0;
#X connect 44 0 11 0;
#X connect 45 0 12 0;
#X connect 46 0 13 0;
#X connect 47 0 14 0;
#X connect 48 0 15 0;
#X connect 49 0 16 0;
#X connect 50 0 18 0;
#X connect 51 0 49 1;
