#N canvas 0 22 450 300 10;
#X obj 95 173 panning 0 18 1000 0 255 0 0;
#X obj 68 122 t b b;
#X obj 68 25 inlet;
#X obj 68 93 delay;
#X obj 116 76 * 100;
#X obj 114 48 i \$1;
#X obj 68 47 t b b;
#X obj 68 144 panning 18 0 1000 0 255 0 1005;
#X obj 68 199 s strip-\$1;
#X connect 1 0 7 0;
#X connect 1 1 0 0;
#X connect 2 0 6 0;
#X connect 3 0 1 0;
#X connect 4 0 3 1;
#X connect 5 0 4 0;
#X connect 6 0 3 0;
#X connect 6 1 5 0;
