#N canvas 0 22 295 398 10;
#X obj 16 225 pack f f f f f f;
#X obj 16 250 unpack f f f f f f;
#X obj 71 191 + 1;
#X obj 109 191 + 2;
#X obj 34 161 t f f f;
#X obj 34 141 * 3;
#X obj 16 90 unpack 0 0 0 0;
#X floatatom 110 150 5 0 0 3 R - -, f 5;
#X floatatom 146 127 5 0 0 0 LED - -, f 5;
#X floatatom 146 150 5 0 0 3 G - -, f 5;
#X floatatom 183 151 5 0 0 3 B - -, f 5;
#X obj 20 333 array set strip-\$1;
#X obj 16 65 r strip-\$1;
#X connect 0 0 1 0;
#X connect 1 0 7 0;
#X connect 1 0 11 0;
#X connect 1 1 11 1;
#X connect 1 2 9 0;
#X connect 1 2 11 0;
#X connect 1 3 11 1;
#X connect 1 4 10 0;
#X connect 1 4 11 0;
#X connect 1 5 11 1;
#X connect 2 0 0 3;
#X connect 3 0 0 5;
#X connect 4 0 0 1;
#X connect 4 1 2 0;
#X connect 4 2 3 0;
#X connect 5 0 4 0;
#X connect 6 0 0 0;
#X connect 6 1 0 2;
#X connect 6 2 0 4;
#X connect 6 3 5 0;
#X connect 6 3 8 0;
#X connect 12 0 6 0;
#X coords 0 -1 1 1 120 80 1 100 100;
